<svg width="666" height="90" viewBox="0 0 666 90" fill="none" xmlns="http://www.w3.org/2000/svg">
<g clip-path="url(#clip0_1_177)">
<path d="M665.55 17.56C664.96 17.56 664.67 17.56 663.93 17.71C656.73 18.45 655.85 20.5 655.85 26.38V28C655.85 52.38 643.8 72.07 625.59 82.64C607.67 72.06 595.77 52.23 595.77 28V26.38C595.77 20.51 594.89 18.45 587.69 17.71C586.96 17.56 586.66 17.56 586.08 17.56L585.93 14.18L587.99 14.33C593.13 14.77 595.19 15.06 597.98 15.06H609.44C612.23 15.06 614.29 14.77 619.43 14.33L621.49 14.18L621.34 17.56C620.75 17.56 620.46 17.56 619.72 17.71C612.82 18.45 611.79 20.35 611.64 25.64C611.79 56.63 616.93 66.62 625.74 73.23C634.55 66.62 639.84 56.63 639.99 25.64C639.84 20.35 638.82 18.44 631.91 17.71C631.18 17.56 630.88 17.56 630.3 17.56L630.15 14.18L632.21 14.33C637.35 14.77 639.41 15.06 642.2 15.06H653.66C656.45 15.06 658.51 14.77 663.65 14.33L665.71 14.18L665.56 17.56H665.55Z" fill="black"/>
<path d="M626.4 55.28H625.24C623.62 51.57 621.18 49.13 617.47 47.51V46.35C621.18 44.73 623.62 42.29 625.24 38.58H626.4C628.02 42.29 630.46 44.73 634.17 46.35V47.51C630.46 49.13 628.02 51.57 626.4 55.28Z" fill="black"/>
<path d="M66.99 48.38C66.99 59.3 66.97 70.23 67.01 81.15C67.01 82.29 66.68 82.55 65.61 82.55C44.21 82.51 22.81 82.5 1.40999 82.52C0.32999 82.52 -0.0100098 82.25 -0.0100098 81.11C0.0299902 59.26 0.0299902 37.41 -9.76585e-06 15.56C-9.76585e-06 14.45 0.29999 14.12 1.39999 14.13C22.8 14.15 44.2 14.15 65.6 14.1C66.8 14.1 67.03 14.47 67.02 15.61C66.98 26.53 67 37.46 67 48.38H66.99ZM59.61 51.8C59.61 41.62 59.61 31.64 59.61 21.68H51.92C51.92 28.3 51.92 34.82 51.92 41.47C43.08 41.47 34.37 41.47 25.54 41.47C25.54 43.83 25.54 46.05 25.54 48.29C23.12 48.29 20.83 48.29 18.54 48.29C18.54 43.55 18.54 38.88 18.54 34.11C27.27 34.11 35.9 34.11 44.56 34.11C44.56 29.88 44.56 25.77 44.56 21.6C38.21 21.6 31.96 21.6 25.59 21.6C25.59 23.83 25.59 25.98 25.59 28.21C23.17 28.21 20.88 28.21 18.45 28.21C18.45 25.99 18.45 23.84 18.45 21.6C17.92 21.57 17.52 21.52 17.11 21.52C14.3 21.52 11.49 21.57 8.68999 21.49C7.55999 21.46 7.19999 21.78 7.20999 22.98C7.24999 33.52 7.22999 44.05 7.23999 54.59C7.23999 55.03 7.29999 55.48 7.33999 56.02C17.32 56.02 27.17 56.02 37.07 56.02C37.07 61.11 37.07 66.08 37.07 71.08C34.67 71.08 32.34 71.08 29.87 71.08C29.87 68.45 29.87 65.91 29.87 63.35C22.27 63.35 14.82 63.35 7.28999 63.35C7.26999 63.81 7.22999 64.19 7.22999 64.57C7.22999 67.63 7.26999 70.69 7.19999 73.75C7.16999 74.88 7.52999 75.33 8.61999 75.16C8.72999 75.14 8.84999 75.16 8.95999 75.16C25.43 75.14 41.89 75.11 58.36 75.09C58.76 75.09 59.17 75.05 59.63 75.03C59.63 69.68 59.63 64.44 59.63 59.02C55.23 59.02 50.9 59.02 46.56 59.02C46.56 56.54 46.56 54.23 46.56 51.8C50.94 51.8 55.24 51.8 59.6 51.8H59.61Z" fill="black"/>
<path d="M338.83 72.39C326.02 72.39 315.64 62.01 315.64 49.2C315.64 36.39 326.02 26.01 338.83 26.01C346.42 26.01 353.14 29.67 357.37 35.31C357.37 35.23 357.37 35.17 357.37 35.08C357.37 30.43 357.3 25.77 357.41 21.12C357.45 19.22 356.77 18.61 354.91 18.64C349.75 18.73 344.59 18.69 339.43 18.66C336.7 18.65 335.82 17.33 336.73 14.74C338.57 9.52 337.51 5.21 333.66 2.22C329.86 -0.729997 324.04 -0.759997 319.88 2.15C316.93 4.21 315.38 9.55 316.63 13.43C316.84 14.07 317.16 14.68 317.35 15.32C317.98 17.38 317.13 18.61 314.97 18.62C309.73 18.66 310.16 18.72 304.92 18.6C302.85 18.55 302.28 19.37 302.31 21.28C302.4 25.93 302.39 30.58 302.38 35.24C302.37 38.6 300.82 39.63 297.66 38.46C292.75 36.64 287.66 38 284.68 41.94C281.93 45.57 281.93 51.09 284.7 54.74C287.64 58.63 292.78 59.98 297.7 58.17C300.89 57 302.4 58 302.42 61.35C302.45 66 302.48 70.66 302.4 75.31C302.37 77.21 302.92 78.05 305 78C309.89 77.87 309.1 77.96 314.44 77.96C314.44 77.96 314.44 77.95 314.44 77.94H340.64V77.87C342.73 77.87 344.85 77.87 346.99 77.87C349.78 77.87 352.58 77.95 355.36 77.77C356.08 77.72 357.33 76.81 357.34 76.27C357.44 71.88 357.41 67.49 357.37 63.09C353.14 68.73 346.42 72.39 338.83 72.39Z" fill="black"/>
<path d="M213.7 22.6V25.54H210.14V22.6H204.96V25.54H201.4V22.6H196.22V35.83H193.06V33.5H189.36V35.83H186.37V33.5H182.67V35.83H179.68V33.5H175.98V35.83H172.99V33.5H169.29V35.83H166.3V33.5H162.6V35.83H159.44V22.6H154.26V25.54H150.7V22.6H145.52V25.54H141.96V22.6H136.78V40.48H137.3C137.55 40.48 137.77 40.51 138.16 40.59C143.77 41.16 144.45 42.76 144.45 47.34V64.84C144.45 69.42 143.76 71.02 138.16 71.59C137.59 71.7 137.36 71.7 136.9 71.7L136.78 74.33L138.38 74.22C142.38 73.88 143.98 73.65 146.16 73.65H156.8V51.54C156.8 51.32 156.83 51.11 156.88 50.9C157.27 47.41 160.39 44.68 164.24 44.68C168.35 44.68 171.68 47.78 171.68 51.61C171.68 51.82 171.63 52.02 171.61 52.23L171.68 52.25V64.83C171.68 69.41 170.99 71.01 165.39 71.58C164.82 71.69 164.59 71.69 164.13 71.69L164.02 74.32L165.62 74.21C169.62 73.87 171.22 73.64 173.4 73.64H182.32C184.49 73.64 186.09 73.87 190.1 74.21L191.7 74.32L191.59 71.69C191.13 71.69 190.9 71.69 190.33 71.58C184.72 71.01 184.04 69.41 184.04 64.83V52.36L184.12 52.33C184.09 52.09 184.04 51.85 184.04 51.6C184.04 47.77 187.37 44.67 191.48 44.67C195.59 44.67 198.92 47.77 198.92 51.6C198.92 51.71 198.89 51.81 198.89 51.92C198.89 52.01 198.92 52.1 198.92 52.2V73.64H209.56C211.73 73.64 213.33 73.87 217.34 74.21L218.94 74.32L218.82 71.69C218.36 71.69 218.13 71.69 217.56 71.58C211.95 71.01 211.27 69.41 211.27 64.83V47.33C211.27 42.75 211.96 41.15 217.56 40.58C218.13 40.47 218.36 40.47 218.82 40.47H218.94V22.6H213.76H213.7Z" fill="black"/>
<path d="M477.74 29.36C483.865 29.36 488.83 24.3948 488.83 18.27C488.83 12.1452 483.865 7.18 477.74 7.18C471.615 7.18 466.65 12.1452 466.65 18.27C466.65 24.3948 471.615 29.36 477.74 29.36Z" fill="black"/>
<path d="M477.74 12.63L496.44 89.48H459.04L477.74 12.63Z" fill="black"/>
</g>
<defs>
<clipPath id="clip0_1_177">
<rect width="665.7" height="89.48" fill="white"/>
</clipPath>
</defs>
</svg>
