<svg width="183" height="152" viewBox="0 0 183 152" fill="none" xmlns="http://www.w3.org/2000/svg">
<g clip-path="url(#clip0_1_167)">
<path d="M111.32 87.22C110.74 87.22 110.45 87.22 109.72 87.37C102.59 88.1 101.72 90.14 101.72 95.96V97.56C101.72 121.72 89.78 141.23 71.73 151.71C53.97 141.23 42.18 121.58 42.18 97.56V95.96C42.18 90.14 41.31 88.1 34.17 87.37C33.44 87.22 33.15 87.22 32.57 87.22L32.42 83.87L34.46 84.02C39.55 84.46 41.59 84.75 44.36 84.75H55.72C58.48 84.75 60.52 84.46 65.62 84.02L67.66 83.87L67.51 87.22C66.93 87.22 66.64 87.22 65.91 87.37C59.07 88.1 58.05 89.99 57.91 95.23C58.06 125.95 63.15 135.84 71.88 142.39C80.61 135.84 85.85 125.94 86 95.23C85.85 89.99 84.84 88.1 77.99 87.37C77.26 87.22 76.97 87.22 76.39 87.22L76.24 83.87L78.28 84.02C83.37 84.46 85.41 84.75 88.18 84.75H99.54C102.31 84.75 104.34 84.46 109.44 84.02L111.48 83.87L111.33 87.22H111.32Z" fill="#ED8C3F"/>
<path d="M72.52 124.6H71.37C69.76 120.92 67.35 118.51 63.67 116.9V115.75C67.35 114.14 69.76 111.73 71.37 108.05H72.52C74.13 111.73 76.54 114.14 80.22 115.75V116.9C76.54 118.51 74.13 120.92 72.52 124.6Z" fill="#ED8C3F"/>
<path d="M182.51 33.41C182.51 43.77 182.49 54.14 182.53 64.5C182.53 65.58 182.22 65.83 181.2 65.83C160.9 65.79 140.59 65.78 120.29 65.8C119.27 65.8 118.94 65.54 118.95 64.46C118.98 43.73 118.98 23 118.95 2.27C118.95 1.21 119.23 0.910005 120.28 0.910005C140.58 0.930005 160.89 0.930005 181.19 0.880005C182.33 0.880005 182.54 1.23 182.54 2.31C182.5 12.67 182.52 23.04 182.52 33.4L182.51 33.41ZM175.5 36.65C175.5 26.99 175.5 17.53 175.5 8.07C173.05 8.07 170.69 8.07 168.2 8.07C168.2 14.35 168.2 20.54 168.2 26.85C159.81 26.85 151.55 26.85 143.17 26.85C143.17 29.09 143.17 31.2 143.17 33.32C140.88 33.32 138.7 33.32 136.53 33.32C136.53 28.82 136.53 24.4 136.53 19.86C144.81 19.86 153 19.86 161.22 19.86C161.22 15.85 161.22 11.95 161.22 7.99C155.19 7.99 149.27 7.99 143.22 7.99C143.22 10.11 143.22 12.15 143.22 14.26C140.92 14.26 138.75 14.26 136.45 14.26C136.45 12.15 136.45 10.11 136.45 7.98C135.95 7.95 135.57 7.91 135.18 7.91C132.52 7.91 129.85 7.95001 127.19 7.88C126.12 7.85 125.78 8.15 125.78 9.29C125.82 19.29 125.8 29.29 125.81 39.28C125.81 39.7 125.87 40.12 125.91 40.64C135.38 40.64 144.72 40.64 154.12 40.64C154.12 45.47 154.12 50.18 154.12 54.93C151.84 54.93 149.64 54.93 147.29 54.93C147.29 52.43 147.29 50.03 147.29 47.59C140.08 47.59 133.01 47.59 125.86 47.59C125.84 48.03 125.81 48.39 125.81 48.75C125.81 51.65 125.85 54.56 125.79 57.46C125.77 58.53 126.1 58.96 127.14 58.8C127.25 58.78 127.36 58.8 127.46 58.8C143.08 58.78 158.71 58.76 174.33 58.73C174.71 58.73 175.1 58.69 175.53 58.67C175.53 53.6 175.53 48.62 175.53 43.48C171.35 43.48 167.24 43.48 163.13 43.48C163.13 41.13 163.13 38.94 163.13 36.63C167.28 36.63 171.37 36.63 175.5 36.63V36.65Z" fill="#EA605D"/>
<path d="M164.29 146.19C151.71 146.19 141.51 135.99 141.51 123.41C141.51 110.83 151.71 100.63 164.29 100.63C171.75 100.63 178.34 104.23 182.5 109.77C182.5 109.69 182.5 109.63 182.5 109.54C182.5 104.97 182.43 100.4 182.54 95.83C182.58 93.96 181.91 93.36 180.08 93.4C175.01 93.49 169.94 93.45 164.88 93.42C162.2 93.41 161.33 92.11 162.23 89.57C164.03 84.44 162.99 80.21 159.21 77.28C155.48 74.39 149.77 74.36 145.67 77.21C142.77 79.23 141.25 84.48 142.48 88.29C142.68 88.92 143 89.52 143.19 90.15C143.81 92.17 142.98 93.38 140.86 93.4C135.71 93.44 136.14 93.5 130.99 93.38C128.96 93.33 128.39 94.13 128.43 96.01C128.52 100.58 128.51 105.15 128.49 109.72C128.48 113.02 126.96 114.03 123.86 112.88C119.04 111.09 114.04 112.43 111.11 116.3C108.41 119.87 108.41 125.29 111.13 128.87C114.02 132.69 119.06 134.02 123.9 132.24C127.03 131.09 128.52 132.07 128.54 135.37C128.57 139.94 128.6 144.51 128.52 149.08C128.49 150.95 129.03 151.77 131.07 151.72C135.87 151.6 135.1 151.68 140.35 151.68C140.35 151.68 140.35 151.67 140.35 151.66H166.09V151.59C168.15 151.59 170.23 151.59 172.32 151.59C175.06 151.59 177.81 151.67 180.54 151.49C181.25 151.44 182.47 150.54 182.48 150.02C182.58 145.71 182.55 141.39 182.51 137.08C178.36 142.61 171.76 146.21 164.3 146.21L164.29 146.19Z" fill="#E9B73E"/>
<path d="M97.93 0V3.75H93.39V0H86.79V3.75H82.26V0H75.66V16.84H71.64V13.87H66.93V16.84H63.12V13.87H58.41V16.84H54.6V13.87H49.89V16.84H46.08V13.87H41.37V16.84H37.56V13.87H32.85V16.84H28.83V0H22.23V3.75H17.69V0H11.09V3.75H6.55V0H0V22.75H0.66C0.97 22.76 1.26 22.79 1.75 22.89C8.88 23.62 9.76 25.66 9.76 31.48V53.75C9.76 59.57 8.89 61.61 1.75 62.34C1.02 62.49 0.73 62.49 0.15 62.49L0 65.84L2.04 65.69C7.13 65.25 9.17 64.96 11.94 64.96H25.48V36.83C25.48 36.55 25.52 36.28 25.58 36.02C26.07 31.58 30.05 28.1 34.94 28.1C40.17 28.1 44.4 32.05 44.4 36.92C44.4 37.19 44.34 37.45 44.31 37.71L44.4 37.74V53.75C44.4 59.57 43.53 61.61 36.39 62.34C35.66 62.49 35.37 62.49 34.79 62.49L34.64 65.84L36.68 65.69C41.77 65.25 43.81 64.96 46.58 64.96H57.94C60.71 64.96 62.74 65.25 67.84 65.69L69.88 65.84L69.73 62.49C69.15 62.49 68.86 62.49 68.13 62.34C61 61.61 60.12 59.57 60.12 53.75V37.88L60.22 37.85C60.18 37.54 60.12 37.24 60.12 36.92C60.12 32.05 64.36 28.1 69.58 28.1C74.8 28.1 79.04 32.05 79.04 36.92C79.04 37.06 79 37.19 79 37.32C79.01 37.44 79.04 37.55 79.04 37.68V64.96H92.58C95.35 64.96 97.38 65.25 102.48 65.69L104.52 65.84L104.37 62.49C103.79 62.49 103.5 62.49 102.77 62.34C95.64 61.61 94.76 59.57 94.76 53.75V31.48C94.76 25.66 95.63 23.62 102.77 22.89C103.5 22.74 103.79 22.74 104.37 22.74H104.52V0H97.92H97.93Z" fill="#4BB0B8"/>
<path d="M17.41 95.74C23.1151 95.74 27.74 91.1151 27.74 85.41C27.74 79.7049 23.1151 75.08 17.41 75.08C11.7049 75.08 7.08 79.7049 7.08 85.41C7.08 91.1151 11.7049 95.74 17.41 95.74Z" fill="#6FA260"/>
<path d="M17.41 80.16L34.81 151.71H0L17.41 80.16Z" fill="#6FA260"/>
</g>
<defs>
<clipPath id="clip0_1_167">
<rect width="182.54" height="151.71" fill="white"/>
</clipPath>
</defs>
</svg>
