<svg width="715" height="107" viewBox="0 0 715 107" fill="none" xmlns="http://www.w3.org/2000/svg">
<g clip-path="url(#clip0_1_76)">
<path d="M34.05 81.73V100.46C34.05 101.29 33.9 102.06 33.6 102.78C33.3 103.49 32.89 104.11 32.36 104.61C31.83 105.12 31.23 105.51 30.54 105.79C29.85 106.07 29.12 106.19 28.34 106.16V105.92C28.99 105.67 29.56 105.25 30.04 104.68C30.52 104.11 30.89 103.45 31.14 102.7C31.39 101.95 31.52 101.17 31.52 100.38V81.73H34.04H34.05ZM31.6 83.71H31.52C31.5 83.24 31.33 82.84 30.99 82.5C30.65 82.17 30.25 82 29.78 82H29.43V81.73H31.6V83.71ZM33.96 83.71V81.73H36.13V82H35.78C35.31 82 34.91 82.17 34.57 82.5C34.24 82.84 34.06 83.24 34.04 83.71H33.96Z" fill="#0C2136"/>
<path d="M47.45 84.06C48.79 84.06 50.02 84.26 51.15 84.67C52.28 85.08 53.27 85.66 54.11 86.41C54.95 87.16 55.61 88.06 56.08 89.1C56.55 90.14 56.79 91.3 56.79 92.59C56.79 93.88 56.55 95.04 56.08 96.08C55.61 97.12 54.96 98.02 54.11 98.77C53.27 99.52 52.28 100.1 51.15 100.51C50.02 100.92 48.78 101.12 47.45 101.12C46.12 101.12 44.91 100.92 43.79 100.51C42.67 100.1 41.68 99.52 40.83 98.77C39.98 98.02 39.32 97.12 38.86 96.08C38.4 95.04 38.17 93.88 38.17 92.59C38.17 91.3 38.4 90.14 38.86 89.1C39.32 88.06 39.98 87.16 40.83 86.41C41.68 85.66 42.67 85.08 43.79 84.67C44.91 84.26 46.13 84.06 47.45 84.06ZM47.45 100.21C48.72 100.21 49.85 99.89 50.84 99.25C51.84 98.61 52.62 97.72 53.19 96.58C53.76 95.44 54.04 94.11 54.04 92.59C54.04 91.07 53.75 89.72 53.19 88.59C52.62 87.46 51.84 86.57 50.84 85.93C49.84 85.29 48.71 84.97 47.45 84.97C46.19 84.97 45.11 85.29 44.11 85.93C43.11 86.57 42.33 87.46 41.75 88.59C41.17 89.72 40.88 91.05 40.88 92.59C40.88 94.13 41.17 95.44 41.75 96.58C42.33 97.72 43.12 98.61 44.11 99.25C45.11 99.89 46.22 100.21 47.45 100.21Z" fill="#0C2136"/>
<path d="M68.27 84.06C69.1 84.06 69.9 84.12 70.67 84.24C71.44 84.36 72.17 84.53 72.86 84.76C73.55 84.99 74.17 85.26 74.73 85.59L75.14 89.58H74.9C74.65 88.49 74.23 87.61 73.66 86.93C73.09 86.25 72.38 85.75 71.53 85.44C70.68 85.13 69.68 84.96 68.54 84.96C67.2 84.96 66.04 85.27 65.05 85.88C64.06 86.49 63.3 87.38 62.77 88.53C62.24 89.68 61.97 91.05 61.97 92.64C61.97 94.23 62.23 95.52 62.76 96.66C63.28 97.8 64.03 98.68 64.99 99.29C65.95 99.91 67.07 100.21 68.36 100.21C69.05 100.21 69.71 100.12 70.34 99.95C70.97 99.78 71.57 99.51 72.13 99.15C72.69 98.79 73.19 98.34 73.62 97.79L73.65 94.29C73.67 93.95 73.56 93.68 73.34 93.5C73.11 93.32 72.81 93.23 72.43 93.23H72.05V92.96H77.67V93.23H77.32C76.51 93.23 76.1 93.59 76.1 94.32V97.69C75.7 98.21 75.13 98.74 74.38 99.26C73.63 99.78 72.74 100.22 71.71 100.58C70.68 100.93 69.52 101.11 68.24 101.11C66.45 101.09 64.89 100.74 63.56 100.05C62.23 99.36 61.19 98.39 60.45 97.12C59.71 95.85 59.34 94.34 59.34 92.59C59.34 90.84 59.71 89.3 60.45 88.03C61.19 86.76 62.23 85.79 63.57 85.1C64.91 84.41 66.48 84.07 68.29 84.07L68.27 84.06Z" fill="#0C2136"/>
<path d="M88.68 84.06C90.02 84.06 91.25 84.26 92.38 84.67C93.51 85.08 94.5 85.66 95.34 86.41C96.18 87.16 96.84 88.06 97.31 89.1C97.78 90.14 98.02 91.3 98.02 92.59C98.02 93.88 97.78 95.04 97.31 96.08C96.84 97.12 96.18 98.02 95.34 98.77C94.5 99.52 93.51 100.1 92.38 100.51C91.25 100.92 90.02 101.12 88.68 101.12C87.34 101.12 86.14 100.92 85.02 100.51C83.9 100.1 82.91 99.52 82.06 98.77C81.21 98.02 80.55 97.12 80.09 96.08C79.63 95.04 79.4 93.88 79.4 92.59C79.4 91.3 79.63 90.14 80.09 89.1C80.55 88.06 81.21 87.16 82.06 86.41C82.91 85.66 83.89 85.08 85.02 84.67C86.14 84.26 87.36 84.06 88.68 84.06ZM88.68 100.21C89.95 100.21 91.08 99.89 92.07 99.25C93.06 98.61 93.85 97.72 94.42 96.58C94.99 95.44 95.28 94.11 95.28 92.59C95.28 91.07 94.99 89.72 94.42 88.59C93.85 87.46 93.07 86.57 92.07 85.93C91.07 85.29 89.94 84.97 88.68 84.97C87.42 84.97 86.34 85.29 85.34 85.93C84.34 86.57 83.56 87.46 82.98 88.59C82.4 89.72 82.11 91.05 82.11 92.59C82.11 94.13 82.4 95.44 82.98 96.58C83.56 97.72 84.35 98.61 85.34 99.25C86.33 99.89 87.45 100.21 88.68 100.21Z" fill="#0C2136"/>
<path d="M105.61 84.06C106.08 84.06 106.53 84.08 106.95 84.11C107.38 84.15 107.77 84.19 108.12 84.23C108.47 84.27 108.78 84.33 109.06 84.39C109.33 84.45 109.54 84.51 109.68 84.57L109.6 87.47H109.3C109.3 86.69 109.03 86.08 108.5 85.64C107.97 85.2 107.16 84.98 106.1 84.98C105.19 84.98 104.44 85.21 103.83 85.67C103.22 86.13 102.92 86.71 102.92 87.39C102.92 87.66 102.96 87.92 103.06 88.16C103.15 88.4 103.29 88.64 103.49 88.87C103.69 89.1 103.93 89.32 104.22 89.53L109.3 93.25C109.82 93.59 110.22 94.06 110.49 94.65C110.76 95.24 110.89 95.87 110.87 96.54C110.87 97.41 110.63 98.19 110.16 98.89C109.69 99.59 109.06 100.13 108.26 100.52C107.46 100.91 106.56 101.1 105.55 101.1C104.94 101.1 104.31 101.05 103.69 100.94C103.07 100.83 102.5 100.68 101.99 100.48C101.48 100.28 101.07 100.05 100.74 99.77C100.67 99.48 100.63 99.12 100.63 98.68C100.63 98.24 100.68 97.8 100.77 97.34C100.86 96.88 100.98 96.48 101.12 96.13H101.42C101.35 96.94 101.47 97.66 101.8 98.27C102.12 98.89 102.6 99.36 103.22 99.7C103.84 100.04 104.58 100.19 105.43 100.18C106.53 100.16 107.39 99.89 107.99 99.38C108.6 98.86 108.9 98.2 108.9 97.38C108.9 96.93 108.8 96.52 108.59 96.16C108.38 95.8 108.04 95.44 107.57 95.1L102.66 91.52C102.03 91.07 101.58 90.54 101.32 89.93C101.06 89.32 100.94 88.7 100.98 88.07C101.02 87.29 101.24 86.6 101.65 85.99C102.06 85.38 102.6 84.91 103.29 84.56C103.98 84.21 104.74 84.04 105.6 84.04L105.61 84.06ZM109.68 84.31V84.8H107.43V84.31H109.68Z" fill="#0C2136"/>
<path d="M122.28 86.18H122.23C122.21 85.76 122.05 85.42 121.76 85.13C121.46 84.85 121.1 84.71 120.69 84.71H120.36V84.44H122.29V86.18H122.28ZM122.3 98.96V100.72H120.34V100.45H120.69C121.11 100.45 121.46 100.3 121.76 100C122.06 99.7 122.21 99.35 122.21 98.95H122.29L122.3 98.96ZM124.72 84.44V100.72H122.22V84.44H124.72ZM129.44 84.44C131.28 84.44 132.87 84.77 134.2 85.42C135.53 86.07 136.55 87.01 137.27 88.23C137.99 89.45 138.34 90.9 138.34 92.59C138.34 94.28 137.98 95.72 137.27 96.93C136.56 98.14 135.53 99.08 134.2 99.74C132.87 100.4 131.28 100.73 129.44 100.73H123.58L123.53 99.83H129.34C131.31 99.83 132.86 99.18 133.98 97.89C135.1 96.6 135.66 94.83 135.66 92.58C135.66 90.33 135.1 88.57 133.98 87.27C132.86 85.98 131.31 85.33 129.34 85.33H123.26V84.43H129.45L129.44 84.44Z" fill="#0C2136"/>
<path d="M142.44 86.15H142.39C142.37 85.73 142.22 85.39 141.94 85.12C141.66 84.85 141.3 84.71 140.87 84.71H140.49V84.44H142.74L142.44 86.15ZM142.44 98.99L142.74 100.73H140.49V100.46H140.87C141.3 100.46 141.66 100.32 141.94 100.03C142.22 99.74 142.37 99.4 142.39 99H142.44V98.99ZM144.86 84.44V100.72H142.39V84.44H144.86ZM151.91 84.44V85.36H144.8V84.44H151.91ZM150.69 92.15V93.07H144.8V92.15H150.69ZM151.83 99.8L152.02 100.72H144.8V99.8H151.83ZM153.43 96.46L152.1 100.72H147.79L148.69 99.8C149.54 99.8 150.25 99.66 150.82 99.38C151.39 99.1 151.87 98.71 152.25 98.2C152.63 97.69 152.94 97.11 153.17 96.46H153.44H153.43ZM151.91 84.01V84.72L148.9 84.45C149.46 84.45 150.05 84.4 150.66 84.3C151.28 84.2 151.69 84.11 151.91 84.01ZM150.69 90.39V92.21H148.95V92.16C149.42 92.16 149.78 92.02 150.02 91.73C150.26 91.44 150.39 91.1 150.39 90.7V90.4H150.69V90.39ZM150.69 93.02V94.84H150.39V94.54C150.39 94.12 150.27 93.78 150.02 93.49C149.78 93.21 149.42 93.07 148.95 93.07V93.02H150.69ZM151.91 85.28V87.51H151.64V87.16C151.64 86.64 151.49 86.21 151.18 85.87C150.87 85.53 150.45 85.37 149.9 85.37V85.29H151.91V85.28Z" fill="#0C2136"/>
<path d="M161.3 83.98C161.46 84.03 161.71 84.1 162.05 84.17C162.39 84.24 162.76 84.3 163.16 84.35C163.57 84.39 163.94 84.42 164.29 84.42L161.3 84.69V83.98ZM176.5 84.41V85.31H161.3V84.41H176.5ZM163.34 85.26V85.31C162.8 85.33 162.37 85.5 162.06 85.83C161.75 86.16 161.6 86.58 161.6 87.11V87.46H161.3V85.26H163.33H163.34ZM167.71 98.99V100.73H165.78V100.46H166.1C166.52 100.46 166.87 100.32 167.17 100.03C167.47 99.74 167.63 99.4 167.65 99H167.7L167.71 98.99ZM170.15 84.52V100.72H167.65V84.52H170.15ZM170.07 98.99H170.15C170.15 99.39 170.3 99.73 170.61 100.02C170.92 100.31 171.28 100.45 171.7 100.45H172V100.72H170.07V98.98V98.99ZM176.5 83.98V84.69L173.51 84.42C173.85 84.42 174.23 84.4 174.64 84.35C175.05 84.3 175.42 84.25 175.75 84.17C176.08 84.09 176.33 84.03 176.5 83.98ZM176.5 85.26V87.46H176.2V87.11C176.2 86.59 176.04 86.16 175.74 85.83C175.43 85.5 175.01 85.33 174.46 85.31V85.26H176.49H176.5Z" fill="#0C2136"/>
<path d="M178.78 98.8C178.58 99.32 178.61 99.73 178.86 100.02C179.11 100.31 179.4 100.45 179.73 100.45H179.95V100.72H174.69V100.45H174.91C175.27 100.45 175.65 100.32 176.05 100.07C176.45 99.82 176.79 99.39 177.08 98.79H178.79L178.78 98.8ZM183.96 83.95L184.12 86.28L178.01 100.64H176.19L182.6 86.91C182.6 86.91 182.68 86.73 182.79 86.49C182.9 86.25 183.02 85.96 183.16 85.63C183.3 85.3 183.42 84.99 183.54 84.68C183.66 84.37 183.72 84.13 183.74 83.95H183.96ZM186.89 94.73V95.63H179.78V94.73H186.89ZM183.96 83.95L191.61 100.56H188.65L183.11 87.21L183.95 83.95H183.96ZM187.95 98.8H190.83C191.1 99.4 191.44 99.82 191.83 100.08C192.22 100.34 192.61 100.46 192.97 100.46H193.19V100.73H186.81V100.46H187.03C187.34 100.46 187.62 100.32 187.87 100.03C188.12 99.74 188.15 99.33 187.95 98.81V98.8Z" fill="#0C2136"/>
<path d="M196.12 86.18H196.04C196.04 85.75 195.89 85.39 195.61 85.12C195.33 84.85 194.94 84.71 194.47 84.71H194.17V84.44H196.12V86.18ZM196.12 98.99V100.73H194.17V100.46H194.47C194.94 100.46 195.32 100.32 195.61 100.03C195.9 99.74 196.04 99.4 196.04 99H196.12V98.99ZM198.48 84.44V100.72H196.04V84.44H198.48ZM200.27 84.44C200.83 84.44 201.45 84.49 202.12 84.59C202.79 84.69 203.42 84.88 204.02 85.15C204.62 85.42 205.11 85.83 205.5 86.37C205.89 86.91 206.08 87.63 206.08 88.51C206.08 89.09 205.93 89.62 205.65 90.1C205.36 90.58 204.99 90.97 204.54 91.27C204.09 91.57 203.61 91.77 203.1 91.88C203.95 91.95 204.71 92.18 205.38 92.57C206.05 92.96 206.58 93.46 206.97 94.08C207.36 94.7 207.55 95.38 207.55 96.14C207.55 97.01 207.37 97.74 207.01 98.33C206.65 98.92 206.16 99.39 205.54 99.74C204.92 100.09 204.25 100.35 203.51 100.5C202.77 100.65 202.03 100.73 201.28 100.73H198.24C198.26 100.42 198.27 100.12 198.27 99.83H200.88C201.62 99.83 202.29 99.7 202.87 99.44C203.46 99.18 203.93 98.77 204.28 98.2C204.63 97.63 204.81 96.92 204.81 96.06C204.81 95.26 204.65 94.61 204.34 94.09C204.02 93.57 203.6 93.18 203.08 92.9C202.55 92.62 201.97 92.42 201.32 92.3C200.67 92.18 200 92.12 199.31 92.12V91.85C199.78 91.85 200.26 91.81 200.75 91.73C201.24 91.65 201.69 91.49 202.09 91.25C202.5 91.02 202.83 90.69 203.09 90.26C203.35 89.83 203.48 89.28 203.48 88.59C203.48 87.43 203.16 86.6 202.53 86.09C201.9 85.58 201.05 85.33 199.98 85.33H196.88C196.88 85.33 196.86 85.23 196.81 85.09C196.77 84.95 196.71 84.73 196.63 84.44H200.27Z" fill="#0C2136"/>
<path d="M211.32 84.44V85.88H211.27C211.25 85.54 211.12 85.26 210.88 85.04C210.64 84.82 210.33 84.71 209.97 84.71H209.59V84.44H211.33H211.32ZM213.71 84.44V94.7C213.71 96.42 214.14 97.77 215 98.76C215.86 99.75 217.03 100.24 218.51 100.24C220.14 100.24 221.42 99.77 222.34 98.84C223.26 97.91 223.72 96.63 223.72 95V84.44H225.16V94.94C225.16 96.84 224.56 98.34 223.36 99.45C222.16 100.55 220.5 101.11 218.38 101.11C216.12 101.11 214.37 100.56 213.13 99.47C211.89 98.38 211.27 96.88 211.27 94.98V84.45H213.71V84.44ZM215.39 84.44V84.71H214.98C214.64 84.71 214.34 84.82 214.08 85.04C213.83 85.26 213.7 85.54 213.7 85.88H213.65V84.44H215.39ZM223.78 84.44V85.88H223.73C223.73 85.54 223.6 85.26 223.35 85.04C223.1 84.82 222.8 84.71 222.45 84.71H222.04V84.44H223.78ZM226.82 84.44V84.71H226.44C226.1 84.71 225.8 84.82 225.54 85.04C225.29 85.26 225.16 85.54 225.16 85.88H225.11V84.44H226.82Z" fill="#0C2136"/>
<path d="M230.92 86.18H230.87C230.85 85.76 230.69 85.42 230.39 85.13C230.09 84.85 229.73 84.71 229.29 84.71H228.96V84.44H230.92V86.18ZM230.92 98.99L231.22 100.73H228.97V100.46H229.35C229.78 100.46 230.14 100.32 230.42 100.03C230.7 99.74 230.85 99.4 230.87 99H230.92V98.99ZM233.33 84.44V100.72H230.86V84.44H233.33ZM233.25 86.18V84.44H235.23V84.71H234.91C234.47 84.71 234.1 84.85 233.8 85.13C233.49 85.41 233.34 85.76 233.34 86.18H233.26H233.25ZM240.31 99.8L240.5 100.72H233.28V99.8H240.31ZM241.91 96.46L240.58 100.72H236.26L237.16 99.8C238.01 99.8 238.72 99.66 239.29 99.38C239.86 99.1 240.34 98.71 240.72 98.2C241.1 97.69 241.41 97.11 241.64 96.46H241.91Z" fill="#0C2136"/>
<path d="M245.06 86.15H245.01C244.99 85.73 244.84 85.39 244.56 85.12C244.28 84.85 243.92 84.71 243.49 84.71H243.11V84.44H245.36L245.06 86.15ZM245.06 98.99L245.36 100.73H243.11V100.46H243.49C243.92 100.46 244.28 100.32 244.56 100.03C244.84 99.74 244.99 99.4 245.01 99H245.06V98.99ZM247.47 84.44V100.72H245V84.44H247.47ZM254.53 84.44V85.36H247.42V84.44H254.53ZM253.31 92.15V93.07H247.42V92.15H253.31ZM254.45 99.8L254.64 100.72H247.42V99.8H254.45ZM256.05 96.46L254.72 100.72H250.41L251.31 99.8C252.16 99.8 252.87 99.66 253.44 99.38C254.01 99.1 254.48 98.71 254.87 98.2C255.25 97.69 255.56 97.11 255.79 96.46H256.06H256.05ZM254.53 84.01V84.72L251.52 84.45C252.08 84.45 252.67 84.4 253.28 84.3C253.9 84.2 254.31 84.11 254.53 84.01ZM253.31 90.39V92.21H251.57V92.16C252.04 92.16 252.4 92.02 252.64 91.73C252.88 91.44 253.01 91.1 253.01 90.7V90.4H253.31V90.39ZM253.31 93.02V94.84H253.01V94.54C253.01 94.12 252.89 93.78 252.64 93.49C252.4 93.21 252.04 93.07 251.57 93.07V93.02H253.31ZM254.53 85.28V87.51H254.26V87.16C254.26 86.64 254.1 86.21 253.8 85.87C253.49 85.53 253.07 85.37 252.52 85.37V85.29H254.53V85.28Z" fill="#0C2136"/>
<path d="M260.06 86.18H259.98C259.96 85.76 259.79 85.42 259.45 85.13C259.12 84.85 258.7 84.71 258.22 84.71H257.87V84.44H260.07V86.18H260.06ZM260.06 98.99V100.73H257.86V100.46H258.24C258.71 100.46 259.11 100.32 259.45 100.03C259.79 99.74 259.96 99.4 259.98 99H260.06V98.99ZM262.42 84.44V100.72H259.98V84.44H262.42ZM262.34 86.18V84.44H264.54L264.51 84.71H264.18C263.69 84.71 263.28 84.85 262.94 85.13C262.6 85.41 262.43 85.76 262.41 86.18H262.33H262.34ZM262.34 98.99H262.42C262.44 99.39 262.61 99.73 262.95 100.02C263.29 100.31 263.7 100.45 264.19 100.45H264.52L264.55 100.72H262.35V98.98L262.34 98.99Z" fill="#0C2136"/>
<path d="M269.07 86.15H269.02C269 85.73 268.85 85.39 268.56 85.12C268.27 84.85 267.92 84.71 267.5 84.71H267.12V84.44H269.32L269.08 86.15H269.07ZM269.07 98.99L269.31 100.73H267.11V100.46H267.49C267.91 100.46 268.26 100.32 268.55 100.03C268.84 99.74 268.99 99.4 269.01 99H269.06L269.07 98.99ZM271.46 84.44V100.72H268.99V84.44H271.46ZM271.38 98.99H271.46C271.46 99.41 271.61 99.75 271.91 100.03C272.21 100.31 272.57 100.45 272.98 100.45H273.31L273.34 100.72H271.12L271.39 98.98L271.38 98.99ZM274.45 84.44C275.26 84.44 276.02 84.53 276.7 84.71C277.39 84.89 277.98 85.17 278.49 85.54C279 85.91 279.39 86.37 279.67 86.92C279.95 87.47 280.09 88.12 280.09 88.86C280.09 89.6 279.93 90.24 279.6 90.88C279.27 91.52 278.8 92.06 278.19 92.49C277.58 92.92 276.85 93.2 276.02 93.3C276.4 93.43 276.81 93.72 277.24 94.17C277.68 94.62 278.03 95.06 278.3 95.47C278.34 95.51 278.46 95.68 278.68 96C278.9 96.32 279.17 96.7 279.51 97.14C279.84 97.58 280.18 98.02 280.53 98.46C280.91 98.89 281.25 99.26 281.55 99.55C281.85 99.84 282.17 100.06 282.51 100.21C282.85 100.36 283.25 100.44 283.71 100.44V100.71H282.41C281.41 100.71 280.59 100.6 279.94 100.38C279.29 100.16 278.74 99.86 278.31 99.48C277.87 99.1 277.49 98.68 277.17 98.23C277.06 98.1 276.89 97.86 276.65 97.5C276.42 97.14 276.17 96.75 275.9 96.35C275.64 95.94 275.4 95.57 275.18 95.22C274.96 94.88 274.83 94.65 274.77 94.54C274.44 94.03 274.08 93.61 273.67 93.28C273.26 92.95 272.84 92.78 272.41 92.78V92.51C272.88 92.53 273.3 92.53 273.66 92.51C274.13 92.49 274.6 92.44 275.06 92.36C275.52 92.28 275.95 92.06 276.35 91.71C276.75 91.36 277.06 90.8 277.27 90.04C277.32 89.88 277.37 89.67 277.41 89.43C277.45 89.19 277.45 88.92 277.44 88.63C277.4 88.07 277.3 87.59 277.11 87.19C276.93 86.79 276.68 86.46 276.36 86.2C276.04 85.94 275.69 85.74 275.3 85.6C274.91 85.46 274.49 85.39 274.04 85.37C273.37 85.35 272.78 85.35 272.26 85.36C271.74 85.37 271.46 85.36 271.41 85.35C271.32 85.04 271.23 84.73 271.14 84.43H274.45V84.44Z" fill="#0C2136"/>
<path d="M292.77 84.06C294.11 84.06 295.34 84.26 296.47 84.67C297.6 85.08 298.59 85.66 299.43 86.41C300.27 87.16 300.93 88.06 301.4 89.1C301.87 90.14 302.11 91.3 302.11 92.59C302.11 93.88 301.87 95.04 301.4 96.08C300.93 97.12 300.27 98.02 299.43 98.77C298.59 99.52 297.6 100.1 296.47 100.51C295.34 100.92 294.1 101.12 292.77 101.12C291.44 101.12 290.23 100.92 289.11 100.51C287.99 100.1 287 99.52 286.15 98.77C285.3 98.02 284.65 97.12 284.18 96.08C283.72 95.04 283.49 93.88 283.49 92.59C283.49 91.3 283.72 90.14 284.18 89.1C284.64 88.06 285.3 87.16 286.15 86.41C287 85.66 287.99 85.08 289.11 84.67C290.23 84.26 291.45 84.06 292.77 84.06ZM292.77 100.21C294.04 100.21 295.17 99.89 296.16 99.25C297.15 98.61 297.94 97.72 298.51 96.58C299.08 95.44 299.36 94.11 299.36 92.59C299.36 91.07 299.08 89.72 298.51 88.59C297.94 87.46 297.16 86.57 296.16 85.93C295.16 85.29 294.03 84.97 292.77 84.97C291.51 84.97 290.43 85.29 289.43 85.93C288.43 86.57 287.65 87.46 287.07 88.59C286.49 89.72 286.2 91.05 286.2 92.59C286.2 94.13 286.49 95.44 287.07 96.58C287.65 97.72 288.43 98.61 289.43 99.25C290.43 99.89 291.54 100.21 292.77 100.21Z" fill="#0C2136"/>
<path d="M303.62 98.5C303.8 98.23 304.05 98.06 304.37 98C304.69 97.94 305 97.98 305.32 98.14C305.64 98.29 305.88 98.56 306.04 98.94C306.29 99.52 306.39 100.08 306.33 100.61C306.27 101.14 306.09 101.62 305.81 102.04C305.53 102.46 305.17 102.79 304.74 103.03C304.31 103.27 303.83 103.39 303.33 103.37L303.25 103.13C303.76 102.95 304.1 102.7 304.28 102.4C304.46 102.09 304.52 101.76 304.47 101.41C304.41 101.06 304.28 100.75 304.06 100.5C303.91 100.32 303.78 100.12 303.65 99.9C303.52 99.68 303.45 99.45 303.43 99.21C303.41 98.97 303.48 98.73 303.62 98.52V98.5Z" fill="#0C2136"/>
<path d="M317.49 86.18H317.44C317.42 85.76 317.26 85.42 316.97 85.13C316.67 84.85 316.31 84.71 315.9 84.71H315.57V84.44H317.5V86.18H317.49ZM317.52 98.96V100.72H315.56V100.45H315.91C316.33 100.45 316.68 100.3 316.98 100C317.28 99.7 317.43 99.35 317.43 98.95H317.51L317.52 98.96ZM319.93 84.44V100.72H317.43V84.44H319.93ZM324.66 84.44C326.5 84.44 328.09 84.77 329.42 85.42C330.75 86.07 331.77 87.01 332.49 88.23C333.21 89.45 333.56 90.9 333.56 92.59C333.56 94.28 333.2 95.72 332.49 96.93C331.78 98.14 330.75 99.08 329.42 99.74C328.09 100.4 326.5 100.73 324.66 100.73H318.8L318.75 99.83H324.56C326.53 99.83 328.08 99.18 329.2 97.89C330.32 96.6 330.88 94.83 330.88 92.58C330.88 90.33 330.32 88.57 329.2 87.27C328.08 85.98 326.53 85.33 324.56 85.33H318.48V84.43H324.67L324.66 84.44Z" fill="#0C2136"/>
<path d="M337.66 86.15H337.61C337.59 85.73 337.44 85.39 337.16 85.12C336.88 84.85 336.52 84.71 336.09 84.71H335.71V84.44H337.96L337.66 86.15ZM337.66 98.99L337.96 100.73H335.71V100.46H336.09C336.52 100.46 336.88 100.32 337.16 100.03C337.44 99.74 337.59 99.4 337.61 99H337.66V98.99ZM340.07 84.44V100.72H337.6V84.44H340.07ZM347.13 84.44V85.36H340.02V84.44H347.13ZM345.91 92.15V93.07H340.02V92.15H345.91ZM347.05 99.8L347.24 100.72H340.02V99.8H347.05ZM348.65 96.46L347.32 100.72H343.01L343.91 99.8C344.76 99.8 345.47 99.66 346.04 99.38C346.61 99.1 347.09 98.71 347.47 98.2C347.85 97.69 348.16 97.11 348.39 96.46H348.66H348.65ZM347.13 84.01V84.72L344.12 84.45C344.68 84.45 345.27 84.4 345.88 84.3C346.5 84.2 346.91 84.11 347.13 84.01ZM345.91 90.39V92.21H344.17V92.16C344.64 92.16 345 92.02 345.24 91.73C345.48 91.44 345.61 91.1 345.61 90.7V90.4H345.91V90.39ZM345.91 93.02V94.84H345.61V94.54C345.61 94.12 345.49 93.78 345.24 93.49C345 93.21 344.64 93.07 344.17 93.07V93.02H345.91ZM347.13 85.28V87.51H346.86V87.16C346.86 86.64 346.71 86.21 346.4 85.87C346.09 85.53 345.67 85.37 345.12 85.37V85.29H347.13V85.28Z" fill="#0C2136"/>
<path d="M355.76 84.06C356.23 84.06 356.68 84.08 357.1 84.11C357.53 84.15 357.92 84.19 358.27 84.23C358.62 84.27 358.93 84.33 359.21 84.39C359.48 84.45 359.69 84.51 359.83 84.57L359.75 87.47H359.45C359.45 86.69 359.18 86.08 358.65 85.64C358.12 85.2 357.31 84.98 356.25 84.98C355.34 84.98 354.59 85.21 353.98 85.67C353.37 86.13 353.07 86.71 353.07 87.39C353.07 87.66 353.11 87.92 353.21 88.16C353.3 88.4 353.44 88.64 353.64 88.87C353.84 89.1 354.08 89.32 354.37 89.53L359.45 93.25C359.97 93.59 360.37 94.06 360.64 94.65C360.91 95.24 361.04 95.87 361.02 96.54C361.02 97.41 360.78 98.19 360.31 98.89C359.84 99.59 359.21 100.13 358.41 100.52C357.61 100.91 356.71 101.1 355.7 101.1C355.09 101.1 354.46 101.05 353.84 100.94C353.22 100.83 352.65 100.68 352.14 100.48C351.63 100.28 351.22 100.05 350.89 99.77C350.82 99.48 350.78 99.12 350.78 98.68C350.78 98.24 350.83 97.8 350.92 97.34C351.01 96.88 351.13 96.48 351.27 96.13H351.57C351.5 96.94 351.62 97.66 351.95 98.27C352.27 98.89 352.75 99.36 353.37 99.7C353.99 100.04 354.73 100.19 355.58 100.18C356.68 100.16 357.54 99.89 358.14 99.38C358.75 98.86 359.05 98.2 359.05 97.38C359.05 96.93 358.95 96.52 358.74 96.16C358.53 95.8 358.19 95.44 357.72 95.1L352.81 91.52C352.18 91.07 351.73 90.54 351.47 89.93C351.21 89.32 351.09 88.7 351.13 88.07C351.17 87.29 351.39 86.6 351.8 85.99C352.21 85.38 352.75 84.91 353.44 84.56C354.13 84.21 354.89 84.04 355.75 84.04L355.76 84.06ZM359.83 84.31V84.8H357.58V84.31H359.83Z" fill="#0C2136"/>
<path d="M366.13 98.8C365.93 99.32 365.96 99.73 366.21 100.02C366.46 100.31 366.75 100.45 367.08 100.45H367.3V100.72H362.03V100.45H362.25C362.61 100.45 362.99 100.32 363.39 100.07C363.79 99.82 364.13 99.39 364.42 98.79H366.13V98.8ZM371.31 83.95L371.47 86.28L365.36 100.64H363.54L369.95 86.91C369.95 86.91 370.03 86.73 370.14 86.49C370.25 86.25 370.37 85.96 370.51 85.63C370.65 85.3 370.77 84.99 370.89 84.68C371.01 84.37 371.08 84.13 371.09 83.95H371.31ZM374.24 94.73V95.63H367.13V94.73H374.24ZM371.31 83.95L378.96 100.56H376L370.46 87.21L371.3 83.95H371.31ZM375.3 98.8H378.18C378.45 99.4 378.79 99.82 379.18 100.08C379.58 100.33 379.96 100.46 380.32 100.46H380.54V100.73H374.16V100.46H374.38C374.69 100.46 374.97 100.32 375.22 100.03C375.47 99.74 375.5 99.33 375.3 98.81V98.8Z" fill="#0C2136"/>
<path d="M383.47 86.15H383.41C383.39 85.73 383.24 85.39 382.95 85.12C382.66 84.85 382.3 84.71 381.86 84.71H381.48V84.44H383.73L383.46 86.15H383.47ZM383.47 98.99L383.74 100.73H381.49V100.46H381.87C382.3 100.46 382.67 100.32 382.96 100.03C383.25 99.74 383.4 99.4 383.42 99H383.48L383.47 98.99ZM385.86 84.44V100.72H383.42V84.44H385.86ZM385.8 98.99H385.86C385.88 99.39 386.03 99.73 386.32 100.02C386.61 100.31 386.98 100.45 387.43 100.45H387.78V100.72H385.53L385.8 98.98V98.99ZM393.02 84.44V85.36H385.8V84.44H393.02ZM391.75 92.15V93.07H385.81V92.15H391.75ZM393.02 84.01V84.72L389.98 84.45C390.34 84.45 390.73 84.43 391.13 84.38C391.54 84.33 391.91 84.28 392.26 84.2C392.61 84.12 392.86 84.06 393.02 84.01ZM391.75 90.39V92.21H390.01V92.16C390.5 92.16 390.86 92.02 391.09 91.73C391.33 91.44 391.44 91.1 391.44 90.7V90.4H391.74L391.75 90.39ZM391.75 93.02V94.84H391.45V94.54C391.45 94.12 391.33 93.78 391.1 93.49C390.87 93.21 390.5 93.07 390.02 93.07V93.02H391.76H391.75ZM393.02 85.28V87.51H392.72V87.16C392.72 86.64 392.57 86.21 392.26 85.87C391.95 85.53 391.53 85.37 390.98 85.37V85.29H393.02V85.28Z" fill="#0C2136"/>
<path d="M397.99 86.18H397.91C397.89 85.76 397.71 85.42 397.38 85.13C397.04 84.85 396.63 84.71 396.14 84.71H395.79V84.44H397.99V86.18ZM397.99 98.99V100.73H395.79V100.46H396.17C396.64 100.46 397.04 100.32 397.38 100.03C397.71 99.74 397.89 99.4 397.91 99H397.99V98.99ZM400.35 84.44V100.72H397.91V84.44H400.35ZM400.27 86.18V84.44H402.47L402.44 84.71H402.11C401.62 84.71 401.21 84.85 400.87 85.13C400.54 85.41 400.36 85.76 400.34 86.18H400.26H400.27ZM400.27 98.99H400.35C400.37 99.39 400.54 99.73 400.88 100.02C401.21 100.31 401.63 100.45 402.12 100.45H402.45L402.48 100.72H400.28V98.98L400.27 98.99Z" fill="#0C2136"/>
<path d="M413.89 84.06C415.23 84.06 416.46 84.26 417.59 84.67C418.72 85.08 419.71 85.66 420.55 86.41C421.39 87.16 422.05 88.06 422.52 89.1C422.99 90.14 423.23 91.3 423.23 92.59C423.23 93.88 422.99 95.04 422.52 96.08C422.05 97.12 421.4 98.02 420.55 98.77C419.71 99.52 418.72 100.1 417.59 100.51C416.46 100.92 415.22 101.12 413.89 101.12C412.56 101.12 411.35 100.92 410.23 100.51C409.11 100.1 408.12 99.52 407.27 98.77C406.42 98.02 405.76 97.12 405.3 96.08C404.84 95.04 404.61 93.88 404.61 92.59C404.61 91.3 404.84 90.14 405.3 89.1C405.76 88.06 406.42 87.16 407.27 86.41C408.12 85.66 409.11 85.08 410.23 84.67C411.35 84.26 412.57 84.06 413.89 84.06ZM413.89 100.21C415.16 100.21 416.29 99.89 417.28 99.25C418.28 98.61 419.06 97.72 419.63 96.58C420.2 95.44 420.48 94.11 420.48 92.59C420.48 91.07 420.19 89.72 419.63 88.59C419.06 87.46 418.28 86.57 417.28 85.93C416.28 85.29 415.15 84.97 413.89 84.97C412.63 84.97 411.55 85.29 410.55 85.93C409.55 86.57 408.77 87.46 408.19 88.59C407.61 89.72 407.32 91.05 407.32 92.59C407.32 94.13 407.61 95.44 408.19 96.58C408.77 97.72 409.56 98.61 410.55 99.25C411.55 99.89 412.66 100.21 413.89 100.21Z" fill="#0C2136"/>
<path d="M430.83 84.06C431.3 84.06 431.75 84.08 432.17 84.11C432.59 84.14 432.98 84.19 433.34 84.23C433.69 84.28 434 84.33 434.28 84.39C434.55 84.45 434.76 84.51 434.9 84.57L434.82 87.47H434.52C434.52 86.69 434.25 86.08 433.72 85.64C433.19 85.2 432.38 84.98 431.32 84.98C430.42 84.98 429.66 85.21 429.05 85.67C428.44 86.13 428.14 86.71 428.14 87.39C428.14 87.66 428.18 87.92 428.28 88.16C428.37 88.4 428.52 88.64 428.71 88.87C428.91 89.1 429.15 89.32 429.44 89.53L434.52 93.25C435.04 93.59 435.44 94.06 435.71 94.65C435.98 95.24 436.11 95.87 436.09 96.54C436.09 97.41 435.85 98.19 435.38 98.89C434.91 99.59 434.28 100.13 433.48 100.52C432.68 100.91 431.78 101.1 430.77 101.1C430.15 101.1 429.53 101.05 428.91 100.94C428.29 100.83 427.72 100.68 427.21 100.48C426.7 100.28 426.29 100.05 425.96 99.77C425.89 99.48 425.85 99.12 425.85 98.68C425.85 98.24 425.89 97.8 425.99 97.34C426.08 96.88 426.2 96.48 426.34 96.13H426.64C426.57 96.94 426.69 97.66 427.02 98.27C427.35 98.89 427.82 99.36 428.45 99.7C429.07 100.04 429.81 100.19 430.66 100.18C431.76 100.16 432.62 99.89 433.22 99.38C433.83 98.86 434.13 98.2 434.13 97.38C434.13 96.93 434.03 96.52 433.82 96.16C433.61 95.8 433.27 95.44 432.8 95.1L427.89 91.52C427.26 91.07 426.81 90.54 426.55 89.93C426.29 89.32 426.17 88.7 426.21 88.07C426.25 87.29 426.47 86.6 426.87 85.99C427.28 85.38 427.82 84.91 428.51 84.56C429.2 84.21 429.97 84.04 430.82 84.04L430.83 84.06ZM434.9 84.31V84.8H432.65V84.31H434.9Z" fill="#0C2136"/>
<path d="M447.52 86.15H447.47C447.45 85.73 447.3 85.39 447.02 85.12C446.74 84.85 446.38 84.71 445.95 84.71H445.57V84.44H447.82L447.52 86.15ZM447.52 98.99L447.82 100.73H445.57V100.46H445.95C446.38 100.46 446.74 100.32 447.02 100.03C447.3 99.74 447.45 99.4 447.47 99H447.52V98.99ZM449.93 84.44V100.72H447.46V84.44H449.93ZM456.99 84.44V85.36H449.88V84.44H456.99ZM455.77 92.15V93.07H449.88V92.15H455.77ZM456.91 99.8L457.1 100.72H449.88V99.8H456.91ZM458.51 96.46L457.18 100.72H452.87L453.77 99.8C454.62 99.8 455.33 99.66 455.9 99.38C456.47 99.1 456.95 98.71 457.33 98.2C457.71 97.69 458.02 97.11 458.25 96.46H458.52H458.51ZM456.99 84.01V84.72L453.98 84.45C454.54 84.45 455.13 84.4 455.74 84.3C456.36 84.2 456.77 84.11 456.99 84.01ZM455.77 90.39V92.21H454.03V92.16C454.5 92.16 454.86 92.02 455.1 91.73C455.34 91.44 455.47 91.1 455.47 90.7V90.4H455.77V90.39ZM455.77 93.02V94.84H455.47V94.54C455.47 94.12 455.35 93.78 455.1 93.49C454.86 93.21 454.5 93.07 454.03 93.07V93.02H455.77ZM456.99 85.28V87.51H456.72V87.16C456.72 86.64 456.57 86.21 456.26 85.87C455.95 85.53 455.53 85.37 454.98 85.37V85.29H456.99V85.28Z" fill="#0C2136"/>
<path d="M468.88 98.93V100.72H466.11V100.45H466.49C466.96 100.45 467.37 100.32 467.71 100.06C468.05 99.8 468.25 99.42 468.31 98.93H468.88ZM470.42 84.06H470.69L471.34 86.01L469.66 100.72H468.09L470.42 84.06ZM469.8 99.34C469.78 99.58 469.85 99.82 469.99 100.07C470.13 100.32 470.4 100.46 470.78 100.48H471.16V100.72H469.59L469.64 99.34H469.8ZM470.7 84.06L478.3 97.55L477.38 101.16L470.13 88.13L470.7 84.06ZM485.03 84.06L485.27 86.18L478.59 98.39C478.3 98.99 478.08 99.5 477.94 99.92C477.8 100.34 477.7 100.76 477.64 101.15H477.37L476.77 99.25L485.02 84.05L485.03 84.06ZM485.27 84.06L487.71 100.72H484.94L483.31 88.32L485.02 84.06H485.26H485.27ZM484.75 99.34H484.94L484.99 100.72H483.39V100.48H483.8C484.2 100.46 484.46 100.33 484.6 100.07C484.74 99.82 484.79 99.57 484.75 99.34ZM486.9 98.93H487.44C487.51 99.42 487.72 99.79 488.08 100.06C488.43 100.32 488.84 100.45 489.29 100.45H489.67V100.72H486.9V98.93Z" fill="#0C2136"/>
<path d="M492.19 84.44V85.88H492.14C492.12 85.54 491.99 85.26 491.75 85.04C491.51 84.82 491.2 84.71 490.84 84.71H490.46V84.44H492.2H492.19ZM494.58 84.44V94.7C494.58 96.42 495.01 97.77 495.87 98.76C496.73 99.75 497.9 100.24 499.38 100.24C501.01 100.24 502.29 99.77 503.21 98.84C504.13 97.91 504.59 96.63 504.59 95V84.44H506.03V94.94C506.03 96.84 505.43 98.34 504.23 99.45C503.03 100.55 501.36 101.11 499.25 101.11C496.99 101.11 495.24 100.56 494 99.47C492.76 98.38 492.14 96.88 492.14 94.98V84.45H494.58V84.44ZM496.26 84.44V84.71H495.85C495.51 84.71 495.21 84.82 494.95 85.04C494.7 85.26 494.57 85.54 494.57 85.88H494.52V84.44H496.26ZM504.65 84.44V85.88H504.6C504.6 85.54 504.47 85.26 504.22 85.04C503.97 84.82 503.67 84.71 503.32 84.71H502.91V84.44H504.65ZM507.69 84.44V84.71H507.31C506.97 84.71 506.67 84.82 506.41 85.04C506.16 85.26 506.03 85.54 506.03 85.88H505.98V84.44H507.69Z" fill="#0C2136"/>
<path d="M512.03 86.18H511.95C511.93 85.76 511.75 85.42 511.42 85.13C511.08 84.85 510.67 84.71 510.18 84.71H509.83V84.44H512.03V86.18ZM512.03 98.99V100.73H509.83V100.46H510.21C510.68 100.46 511.08 100.32 511.42 100.03C511.75 99.74 511.93 99.4 511.95 99H512.03V98.99ZM514.39 84.44V100.72H511.95V84.44H514.39ZM514.31 86.18V84.44H516.51L516.48 84.71H516.15C515.66 84.71 515.25 84.85 514.92 85.13C514.58 85.41 514.41 85.76 514.39 86.18H514.31ZM514.31 98.99H514.39C514.41 99.39 514.58 99.73 514.92 100.02C515.25 100.31 515.67 100.45 516.15 100.45H516.48L516.51 100.72H514.31V98.98V98.99Z" fill="#0C2136"/>
<path d="M518.14 83.98C518.3 84.03 518.55 84.1 518.89 84.17C519.23 84.24 519.6 84.3 520 84.35C520.41 84.39 520.78 84.42 521.12 84.42L518.14 84.69V83.98ZM533.33 84.41V85.31H518.13V84.41H533.33ZM520.17 85.26V85.31C519.63 85.33 519.2 85.5 518.89 85.83C518.58 86.16 518.43 86.58 518.43 87.11V87.46H518.13V85.26H520.16H520.17ZM524.54 98.99V100.73H522.61V100.46H522.94C523.36 100.46 523.71 100.32 524.01 100.03C524.31 99.74 524.47 99.4 524.48 99H524.54V98.99ZM526.98 84.52V100.72H524.48V84.52H526.98ZM526.9 98.99H526.98C526.98 99.39 527.13 99.73 527.44 100.02C527.75 100.31 528.11 100.45 528.52 100.45H528.82V100.72H526.89V98.98L526.9 98.99ZM533.33 83.98V84.69L530.34 84.42C530.68 84.42 531.06 84.4 531.46 84.35C531.87 84.3 532.24 84.25 532.57 84.17C532.9 84.09 533.15 84.03 533.32 83.98H533.33ZM533.33 85.26V87.46H533.03V87.11C533.03 86.59 532.88 86.16 532.57 85.83C532.26 85.5 531.84 85.33 531.29 85.31V85.26H533.33Z" fill="#0C2136"/>
<path d="M535.61 98.8C535.41 99.32 535.44 99.73 535.69 100.02C535.94 100.31 536.23 100.45 536.56 100.45H536.78V100.72H531.51V100.45H531.72C532.08 100.45 532.46 100.32 532.86 100.07C533.26 99.82 533.6 99.39 533.89 98.79H535.6L535.61 98.8ZM540.8 83.95L540.96 86.28L534.85 100.64H533.03L539.44 86.91C539.44 86.91 539.52 86.73 539.63 86.49C539.74 86.25 539.86 85.96 540 85.63C540.14 85.3 540.26 84.99 540.38 84.68C540.5 84.37 540.57 84.13 540.58 83.95H540.8ZM543.73 94.73V95.63H536.62V94.73H543.73ZM540.8 83.95L548.45 100.56H545.49L539.95 87.21L540.79 83.95H540.8ZM544.79 98.8H547.67C547.94 99.4 548.28 99.82 548.67 100.08C549.06 100.34 549.45 100.46 549.81 100.46H550.03V100.73H543.65V100.46H543.87C544.18 100.46 544.46 100.32 544.71 100.03C544.96 99.74 544.99 99.33 544.79 98.81V98.8Z" fill="#0C2136"/>
<path d="M559.69 86.18H559.64C559.62 85.76 559.46 85.42 559.16 85.13C558.86 84.85 558.5 84.71 558.09 84.71H557.77V84.44H559.7V86.18H559.69ZM559.71 98.96V100.72H557.76V100.45H558.11C558.53 100.45 558.88 100.3 559.18 100C559.48 99.7 559.63 99.35 559.63 98.95H559.71V98.96ZM562.13 84.44V100.72H559.64V84.44H562.13ZM566.85 84.44C568.7 84.44 570.28 84.77 571.61 85.42C572.94 86.07 573.96 87.01 574.68 88.23C575.39 89.45 575.75 90.9 575.75 92.59C575.75 94.28 575.39 95.72 574.68 96.93C573.96 98.14 572.94 99.08 571.61 99.74C570.28 100.4 568.69 100.73 566.85 100.73H560.99L560.94 99.83H566.75C568.72 99.83 570.27 99.18 571.39 97.89C572.51 96.6 573.07 94.83 573.07 92.58C573.07 90.33 572.51 88.57 571.39 87.27C570.27 85.98 568.72 85.33 566.75 85.33H560.67V84.43H566.86L566.85 84.44Z" fill="#0C2136"/>
<path d="M580.1 86.18H580.02C580 85.76 579.83 85.42 579.49 85.13C579.15 84.85 578.74 84.71 578.26 84.71H577.91V84.44H580.11V86.18H580.1ZM580.1 98.99V100.73H577.9V100.46H578.28C578.75 100.46 579.15 100.32 579.49 100.03C579.83 99.74 580 99.4 580.02 99H580.1V98.99ZM582.46 84.44V100.72H580.02V84.44H582.46ZM582.38 86.18V84.44H584.58L584.55 84.71H584.22C583.73 84.71 583.32 84.85 582.99 85.13C582.65 85.41 582.48 85.76 582.46 86.18H582.38ZM582.38 98.99H582.46C582.48 99.39 582.65 99.73 582.99 100.02C583.33 100.31 583.74 100.45 584.22 100.45H584.55L584.58 100.72H582.38V98.98V98.99Z" fill="#0C2136"/>
<path d="M590.79 86.37H587.91C587.64 85.77 587.3 85.35 586.91 85.09C586.51 84.84 586.13 84.71 585.77 84.71H585.58V84.44H591.93V84.71H591.71C591.4 84.71 591.13 84.86 590.88 85.14C590.64 85.43 590.6 85.84 590.79 86.36V86.37ZM594.73 101.11L587.1 84.61H590.06L595.57 97.83L594.73 101.11ZM594.73 101.11L594.57 98.8L600.67 84.52H602.49L596.11 98.12C596.11 98.12 596.03 98.29 595.92 98.53C595.81 98.77 595.69 99.05 595.55 99.39C595.41 99.73 595.29 100.05 595.17 100.35C595.05 100.65 594.98 100.91 594.97 101.11H594.73ZM599.91 86.37C600.11 85.84 600.08 85.44 599.83 85.15C599.57 84.86 599.29 84.72 598.96 84.72H598.77V84.45H604.01V84.72H603.79C603.41 84.72 603.02 84.85 602.62 85.1C602.22 85.35 601.89 85.78 601.62 86.38H599.91V86.37Z" fill="#0C2136"/>
<path d="M606.97 86.15H606.91C606.89 85.73 606.74 85.39 606.46 85.12C606.18 84.85 605.82 84.71 605.39 84.71H605.01V84.44H607.26L606.96 86.15H606.97ZM606.97 98.99L607.27 100.73H605.02V100.46H605.4C605.84 100.46 606.19 100.32 606.47 100.03C606.75 99.74 606.9 99.4 606.92 99H606.98L606.97 98.99ZM609.38 84.44V100.72H606.91V84.44H609.38ZM616.44 84.44V85.36H609.33V84.44H616.44ZM615.21 92.15V93.07H609.32V92.15H615.21ZM616.35 99.8L616.54 100.72H609.32V99.8H616.35ZM617.96 96.46L616.63 100.72H612.31L613.21 99.8C614.06 99.8 614.77 99.66 615.34 99.38C615.91 99.1 616.39 98.71 616.77 98.2C617.15 97.69 617.46 97.11 617.69 96.46H617.96ZM616.44 84.01V84.72L613.43 84.45C613.99 84.45 614.58 84.4 615.19 84.3C615.81 84.2 616.22 84.11 616.44 84.01ZM615.21 90.39V92.21H613.48V92.16C613.95 92.16 614.31 92.02 614.55 91.73C614.79 91.44 614.92 91.1 614.92 90.7V90.4H615.22L615.21 90.39ZM615.21 93.02V94.84H614.91V94.54C614.91 94.12 614.79 93.78 614.54 93.49C614.3 93.21 613.94 93.07 613.47 93.07V93.02H615.2H615.21ZM616.44 85.28V87.51H616.17V87.16C616.17 86.64 616.02 86.21 615.71 85.87C615.4 85.53 614.98 85.37 614.43 85.37V85.29H616.44V85.28Z" fill="#0C2136"/>
<path d="M621.78 86.15H621.72C621.7 85.73 621.55 85.39 621.26 85.12C620.97 84.85 620.62 84.71 620.2 84.71H619.82V84.44H622.02L621.78 86.15ZM621.78 98.99L622.02 100.73H619.82V100.46H620.2C620.62 100.46 620.97 100.32 621.26 100.03C621.55 99.74 621.7 99.4 621.72 99H621.78V98.99ZM624.17 84.44V100.72H621.7V84.44H624.17ZM624.09 98.99H624.17C624.17 99.41 624.32 99.75 624.62 100.03C624.92 100.31 625.27 100.45 625.69 100.45H626.01L626.04 100.72H623.81L624.08 98.98L624.09 98.99ZM627.16 84.44C627.98 84.44 628.73 84.53 629.41 84.71C630.1 84.89 630.69 85.17 631.2 85.54C631.7 85.91 632.1 86.37 632.38 86.92C632.66 87.47 632.8 88.12 632.8 88.86C632.8 89.6 632.64 90.24 632.31 90.88C631.99 91.52 631.51 92.06 630.9 92.49C630.29 92.92 629.56 93.2 628.73 93.3C629.11 93.43 629.52 93.72 629.95 94.17C630.38 94.62 630.74 95.06 631.01 95.47C631.05 95.51 631.17 95.68 631.39 96C631.61 96.32 631.88 96.7 632.22 97.14C632.56 97.58 632.89 98.02 633.24 98.46C633.62 98.89 633.96 99.26 634.26 99.55C634.56 99.84 634.88 100.06 635.23 100.21C635.57 100.36 635.97 100.44 636.42 100.44V100.71H635.12C634.12 100.71 633.3 100.6 632.65 100.38C632 100.16 631.45 99.86 631.02 99.48C630.59 99.1 630.21 98.68 629.88 98.23C629.77 98.1 629.6 97.86 629.36 97.5C629.12 97.14 628.87 96.75 628.61 96.35C628.35 95.94 628.11 95.57 627.89 95.22C627.67 94.88 627.54 94.65 627.48 94.54C627.15 94.03 626.79 93.61 626.38 93.28C625.97 92.95 625.55 92.78 625.12 92.78V92.51C625.59 92.53 626.01 92.53 626.37 92.51C626.84 92.49 627.31 92.44 627.77 92.36C628.23 92.28 628.66 92.06 629.06 91.71C629.46 91.36 629.77 90.8 629.98 90.04C630.03 89.88 630.08 89.67 630.12 89.43C630.16 89.19 630.16 88.92 630.15 88.63C630.11 88.07 630.01 87.59 629.83 87.19C629.65 86.79 629.4 86.46 629.08 86.2C628.76 85.94 628.41 85.74 628.02 85.6C627.63 85.46 627.21 85.39 626.76 85.37C626.09 85.35 625.5 85.35 624.98 85.36C624.46 85.36 624.18 85.36 624.13 85.35C624.04 85.04 623.95 84.73 623.86 84.43H627.17L627.16 84.44Z" fill="#0C2136"/>
<path d="M642.19 84.06C642.66 84.06 643.11 84.08 643.53 84.11C643.95 84.14 644.35 84.19 644.7 84.23C645.05 84.28 645.37 84.33 645.64 84.39C645.91 84.45 646.12 84.51 646.26 84.57L646.18 87.47H645.88C645.88 86.69 645.61 86.08 645.08 85.64C644.54 85.2 643.74 84.98 642.68 84.98C641.78 84.98 641.02 85.21 640.41 85.67C639.8 86.13 639.5 86.71 639.5 87.39C639.5 87.66 639.54 87.92 639.64 88.16C639.73 88.4 639.87 88.64 640.07 88.87C640.27 89.1 640.51 89.32 640.8 89.53L645.87 93.25C646.4 93.59 646.79 94.06 647.07 94.65C647.35 95.24 647.47 95.87 647.45 96.54C647.45 97.41 647.21 98.19 646.74 98.89C646.27 99.59 645.64 100.13 644.84 100.52C644.04 100.91 643.14 101.1 642.13 101.1C641.51 101.1 640.89 101.05 640.27 100.94C639.65 100.83 639.08 100.68 638.57 100.48C638.06 100.28 637.65 100.05 637.32 99.77C637.25 99.48 637.21 99.12 637.21 98.68C637.21 98.24 637.26 97.8 637.35 97.34C637.44 96.88 637.56 96.48 637.7 96.13H638C637.93 96.94 638.05 97.66 638.38 98.27C638.7 98.89 639.18 99.36 639.81 99.7C640.43 100.04 641.17 100.19 642.02 100.18C643.12 100.16 643.98 99.89 644.58 99.38C645.18 98.86 645.49 98.2 645.49 97.38C645.49 96.93 645.39 96.52 645.18 96.16C644.97 95.8 644.63 95.44 644.16 95.1L639.25 91.52C638.62 91.07 638.17 90.54 637.9 89.93C637.64 89.32 637.53 88.7 637.56 88.07C637.6 87.29 637.82 86.6 638.23 85.99C638.64 85.38 639.18 84.91 639.87 84.56C640.56 84.21 641.32 84.04 642.18 84.04L642.19 84.06ZM646.26 84.31V84.8H644.01V84.31H646.26Z" fill="#0C2136"/>
<path d="M652.56 98.8C652.36 99.32 652.39 99.73 652.64 100.02C652.89 100.31 653.18 100.45 653.51 100.45H653.73V100.72H648.46V100.45H648.67C649.03 100.45 649.41 100.32 649.81 100.07C650.21 99.82 650.55 99.39 650.84 98.79H652.55L652.56 98.8ZM657.74 83.95L657.9 86.28L651.79 100.64H649.97L656.38 86.91C656.38 86.91 656.46 86.73 656.57 86.49C656.68 86.25 656.8 85.96 656.94 85.63C657.08 85.3 657.2 84.99 657.32 84.68C657.44 84.37 657.51 84.13 657.52 83.95H657.74ZM660.67 94.73V95.63H653.56V94.73H660.67ZM654.24 82.62H654.51C654.62 82.37 654.75 82.15 654.9 81.97C655.06 81.79 655.24 81.65 655.47 81.56C655.7 81.47 655.94 81.43 656.19 81.45C656.55 81.47 656.92 81.58 657.29 81.78C657.66 81.98 658.05 82.18 658.46 82.38C658.87 82.58 659.28 82.69 659.69 82.71C660.02 82.71 660.31 82.64 660.56 82.49C660.81 82.34 661.03 82.16 661.2 81.92C661.37 81.68 661.5 81.41 661.59 81.09C661.68 80.77 661.73 80.45 661.73 80.13H661.46C661.39 80.31 661.27 80.48 661.11 80.65C660.95 80.81 660.75 80.93 660.53 81.02C660.3 81.1 660.06 81.13 659.78 81.12C659.4 81.1 659.02 80.99 658.65 80.78C658.28 80.57 657.9 80.37 657.51 80.18C657.12 79.99 656.7 79.89 656.25 79.89C655.94 79.89 655.67 79.97 655.42 80.12C655.18 80.27 654.97 80.48 654.81 80.73C654.65 80.98 654.52 81.27 654.42 81.6C654.32 81.93 654.26 82.27 654.24 82.63V82.62ZM657.74 83.95L665.39 100.56H662.43L656.89 87.21L657.73 83.95H657.74ZM661.73 98.8H664.61C664.88 99.4 665.22 99.82 665.61 100.08C666 100.34 666.39 100.46 666.75 100.46H666.97V100.73H660.59V100.46H660.81C661.12 100.46 661.4 100.32 661.65 100.03C661.9 99.74 661.93 99.33 661.73 98.81V98.8Z" fill="#0C2136"/>
<path d="M676.71 84.06C678.05 84.06 679.28 84.26 680.41 84.67C681.54 85.08 682.53 85.66 683.37 86.41C684.21 87.16 684.87 88.06 685.34 89.1C685.81 90.14 686.05 91.3 686.05 92.59C686.05 93.88 685.81 95.04 685.34 96.08C684.87 97.12 684.22 98.02 683.37 98.77C682.53 99.52 681.54 100.1 680.41 100.51C679.28 100.92 678.05 101.12 676.71 101.12C675.37 101.12 674.17 100.92 673.05 100.51C671.93 100.1 670.94 99.52 670.09 98.77C669.24 98.02 668.58 97.12 668.12 96.08C667.66 95.04 667.43 93.88 667.43 92.59C667.43 91.3 667.66 90.14 668.12 89.1C668.58 88.06 669.24 87.16 670.09 86.41C670.94 85.66 671.92 85.08 673.05 84.67C674.17 84.26 675.39 84.06 676.71 84.06ZM676.71 100.21C677.98 100.21 679.11 99.89 680.1 99.25C681.1 98.61 681.88 97.72 682.45 96.58C683.02 95.44 683.3 94.11 683.3 92.59C683.3 91.07 683.01 89.72 682.45 88.59C681.88 87.46 681.1 86.57 680.1 85.93C679.1 85.29 677.97 84.97 676.71 84.97C675.45 84.97 674.37 85.29 673.37 85.93C672.37 86.57 671.59 87.46 671.01 88.59C670.43 89.72 670.14 91.05 670.14 92.59C670.14 94.13 670.43 95.44 671.01 96.58C671.59 97.72 672.38 98.61 673.37 99.25C674.36 99.89 675.48 100.21 676.71 100.21Z" fill="#0C2136"/>
<path d="M43.63 60.81C43.63 60.81 34.58 60.42 28.7 60.33C22.83 60.23 8.86 60.33 8.86 60.33C7.03 60.33 4.72 60.52 1.35 60.81L0 60.91L0.1 58.69C0.49 58.69 0.68 58.69 1.16 58.59C5.88 58.11 7.42 56.76 7.42 52.91V8.03C7.42 4.18 5.88 2.83 1.16 2.35C0.68 2.25 0.49 2.25 0.1 2.25L0 0.0299988L1.35 0.129999C4.72 0.419999 7.03 0.609999 8.86 0.609999H43.44L45.27 14.87H43.25C41.52 8.32 40.84 7.94 34.97 7.84L18.79 7.65V24.12H40.46V30.67H18.79V47.53C18.79 52.83 19.08 53.12 23.7 53.12H33.04C40.17 53.12 41.61 51.19 45.47 45.32L47.88 45.13C44.41 51.39 44.61 57.17 43.64 60.83L43.63 60.81Z" fill="#0C2136"/>
<path d="M164.5 42.41C162.57 42.41 160.74 42.22 159.3 42.12V52.91C159.3 56.76 159.88 58.11 164.6 58.59C165.08 58.69 165.27 58.69 165.66 58.69L165.76 60.91L164.41 60.81C161.04 60.52 159.69 60.33 157.86 60.33H150.35C148.52 60.33 147.17 60.52 143.8 60.81L142.45 60.91L142.55 58.69C142.94 58.69 143.13 58.69 143.61 58.59C148.33 58.11 148.91 56.76 148.91 52.91V25.36C148.91 21.51 148.33 20.16 143.61 19.68C143.13 19.58 142.94 19.58 142.55 19.58L142.45 17.36L143.8 17.46C147.17 17.75 148.52 17.94 150.35 17.94C150.35 17.94 162.68 17.65 166.15 17.65C175.88 17.65 181.66 22.56 181.66 28.44C181.66 36.72 173.47 42.41 164.52 42.41H164.5ZM163.44 22.09C160.94 22.09 159.3 22.19 159.3 24.4V38.85C159.3 38.85 161.52 39.04 162.77 39.04C167.3 39.04 171.25 35.67 171.25 30.18C171.25 25.94 168.75 22.09 163.45 22.09H163.44Z" fill="#0C2136"/>
<path d="M303.12 70.35C282.12 70.35 264.69 46.75 260.45 43.38C260.16 43.09 259.2 42.8 258.14 42.32C256.99 42.32 255.93 42.22 254.96 42.13V52.92C254.96 56.77 255.54 58.12 260.26 58.6C260.74 58.7 260.93 58.7 261.32 58.7L261.42 60.92L260.07 60.82C256.7 60.53 255.35 60.34 253.52 60.34H246.01C244.18 60.34 242.83 60.53 239.46 60.82L238.11 60.92L238.21 58.7C238.6 58.7 238.79 58.7 239.27 58.6C243.99 58.12 244.57 56.77 244.57 52.92V25.37C244.57 21.52 243.99 20.17 239.27 19.69C238.79 19.59 238.6 19.59 238.21 19.59L238.11 17.37L239.46 17.47C242.83 17.76 244.18 17.95 246.01 17.95C246.01 17.95 258.34 17.66 261.81 17.66C271.54 17.66 277.32 22.57 277.32 28.45C277.32 33.65 274.05 37.79 269.42 40.2C275.87 45.98 287.72 62.74 300.15 67.07C304.29 68.51 309.78 68.51 313.73 66.88C312.96 68.71 308.72 70.35 303.13 70.35H303.12ZM259.1 22.09C256.6 22.09 254.96 22.19 254.96 24.4V38.85C254.96 38.85 257.18 39.04 258.43 39.04C262.96 39.04 266.91 35.67 266.91 30.18C266.91 25.94 264.41 22.09 259.11 22.09H259.1Z" fill="#0C2136"/>
<path d="M452.23 61C452.23 61 433.06 60.33 425.36 60.33H416.88C415.05 60.33 412.74 60.52 409.37 60.81L408.02 60.91L408.12 58.69C408.51 58.69 408.7 58.69 409.18 58.59C413.9 58.11 415.44 56.76 415.44 52.91V8.03C415.44 4.18 413.9 2.83 409.18 2.35C408.7 2.25 408.51 2.25 408.12 2.25L408.02 0.0299988L409.37 0.129999C412.74 0.419999 415.05 0.609999 416.88 0.609999H425.36C427.19 0.609999 429.5 0.419999 432.87 0.129999L434.22 0.0299988L434.12 2.25C433.73 2.25 433.54 2.25 433.06 2.35C428.34 2.83 426.8 4.18 426.8 8.03V47.52C426.8 52.82 427.09 53.11 431.71 53.11H440.76C447.89 53.11 448.85 52.73 453.67 46.56L456.75 42.51H459.54C454.73 48.96 453.18 57.34 452.22 61H452.23Z" fill="#0C2136"/>
<path d="M557.11 60.52C549.41 60.52 539.1 60.33 539.1 60.33C537.27 60.33 535.92 60.52 532.55 60.81L531.2 60.91L531.3 58.69C531.68 58.69 531.88 58.69 532.36 58.59C537.08 58.11 537.66 56.76 537.66 52.91V25.36C537.66 21.51 537.08 20.16 532.36 19.68C531.88 19.58 531.69 19.58 531.3 19.58L531.2 17.36L532.55 17.46C535.92 17.75 537.27 17.94 539.1 17.94C539.1 17.94 551.91 17.65 557.11 17.65C569.63 17.65 579.84 25.93 579.84 38.36C579.84 50.79 570.31 60.51 557.11 60.51V60.52ZM555.38 23.25C554.32 23.25 549.31 23.44 548.06 23.54V49.93C548.06 53.59 549.31 54.65 555.38 54.65C563.37 54.65 569.06 47.04 569.06 38.47C569.06 29.32 562.8 23.25 555.38 23.25Z" fill="#0C2136"/>
<path d="M493.86 13.41H490.53L495.05 0H506.71L493.86 13.41Z" fill="#ED8C3F"/>
<path d="M518.21 19.59C517.83 19.59 517.63 19.59 517.15 19.69C512.43 20.17 511.85 21.52 511.85 25.37V26.43C511.85 42.42 503.95 55.33 492.01 62.26C480.26 55.33 472.46 42.32 472.46 26.43V25.37C472.46 21.52 471.88 20.17 467.16 19.69C466.68 19.59 466.49 19.59 466.1 19.59L466 17.37L467.35 17.47C470.72 17.76 472.07 17.95 473.9 17.95H481.41C483.24 17.95 484.59 17.76 487.96 17.47L489.31 17.37L489.21 19.59C488.83 19.59 488.63 19.59 488.15 19.69C483.62 20.17 482.95 21.42 482.85 24.89C482.95 45.21 486.32 51.76 492.1 56.1C497.88 51.77 501.35 45.22 501.44 24.89C501.34 21.42 500.67 20.17 496.14 19.69C495.66 19.59 495.47 19.59 495.08 19.59L494.98 17.37L496.33 17.47C499.7 17.76 501.05 17.95 502.88 17.95H510.39C512.22 17.95 513.57 17.76 516.94 17.47L518.29 17.37L518.19 19.59H518.21Z" fill="#ED8C3F"/>
<path d="M492.53 44.32H491.77C490.71 41.89 489.11 40.29 486.67 39.23V38.47C489.1 37.41 490.7 35.81 491.77 33.38H492.53C493.59 35.81 495.19 37.41 497.63 38.47V39.23C495.2 40.29 493.6 41.89 492.53 44.32Z" fill="#ED8C3F"/>
<path d="M211.79 13.41H208.45L212.98 0H224.64L211.79 13.41Z" fill="#EA605D"/>
<path d="M221 28.55C224.46 32.18 227.92 35.81 231.4 39.42C231.76 39.8 231.74 39.99 231.38 40.33C224.26 47.1 217.16 53.88 210.06 60.67C209.7 61.01 209.5 61.03 209.14 60.65C202.22 53.39 195.3 46.14 188.36 38.89C188.01 38.52 188 38.32 188.36 37.97C195.47 31.19 202.57 24.41 209.66 17.61C210.06 17.23 210.25 17.28 210.61 17.66C214.06 21.3 217.53 24.92 220.99 28.55H221ZM219.63 32.02C216.4 28.64 213.24 25.33 210.08 22.02C209.22 22.84 208.4 23.63 207.53 24.46C209.63 26.66 211.7 28.82 213.81 31.03C210.87 33.83 207.98 36.59 205.06 39.39C205.81 40.17 206.51 40.91 207.22 41.65C206.42 42.42 205.66 43.14 204.9 43.87C203.4 42.3 201.92 40.75 200.4 39.16C203.3 36.39 206.16 33.66 209.04 30.91C207.7 29.51 206.4 28.14 205.07 26.76C202.96 28.77 200.89 30.75 198.77 32.77C199.48 33.51 200.16 34.22 200.87 34.96C200.07 35.73 199.31 36.45 198.5 37.22C197.8 36.48 197.11 35.77 196.4 35.02C196.21 35.18 196.07 35.29 195.93 35.42C195 36.31 194.08 37.22 193.13 38.08C192.74 38.43 192.73 38.65 193.11 39.04C196.47 42.52 199.8 46.03 203.14 49.52C203.28 49.67 203.44 49.79 203.63 49.96C206.94 46.8 210.21 43.67 213.5 40.53C215.11 42.22 216.69 43.87 218.28 45.53L215.89 47.81C215.06 46.94 214.25 46.09 213.44 45.24C210.92 47.65 208.44 50.01 205.94 52.4C206.08 52.56 206.19 52.7 206.31 52.82C207.28 53.84 208.27 54.84 209.21 55.88C209.56 56.26 209.82 56.3 210.13 55.9C210.16 55.86 210.2 55.83 210.24 55.79C215.7 50.56 221.16 45.33 226.61 40.11C226.74 39.98 226.87 39.84 227.01 39.69C225.31 37.92 223.65 36.17 221.94 34.38C220.48 35.78 219.04 37.15 217.6 38.52C216.81 37.7 216.08 36.93 215.31 36.12C216.76 34.73 218.19 33.37 219.64 31.99L219.63 32.02Z" fill="#EA605D"/>
<path d="M358.66 28.55C362.12 32.18 365.58 35.81 369.06 39.42C369.42 39.8 369.4 39.99 369.04 40.33C361.92 47.1 354.82 53.88 347.72 60.67C347.36 61.01 347.16 61.03 346.8 60.65C339.88 53.39 332.96 46.14 326.02 38.89C325.67 38.52 325.66 38.32 326.02 37.97C333.13 31.19 340.23 24.41 347.32 17.61C347.72 17.23 347.91 17.28 348.27 17.66C351.72 21.3 355.19 24.92 358.65 28.55H358.66ZM357.29 32.02C354.06 28.64 350.9 25.33 347.74 22.02C346.88 22.84 346.06 23.63 345.19 24.46C347.29 26.66 349.36 28.82 351.47 31.03C348.53 33.83 345.64 36.59 342.72 39.39C343.47 40.17 344.17 40.91 344.88 41.65L342.56 43.87C341.06 42.3 339.58 40.75 338.06 39.16C340.96 36.39 343.82 33.66 346.7 30.91C345.36 29.51 344.06 28.14 342.73 26.76C340.62 28.77 338.55 30.75 336.43 32.77L338.53 34.96C337.73 35.73 336.97 36.45 336.16 37.22C335.46 36.48 334.77 35.77 334.06 35.02C333.87 35.18 333.73 35.29 333.59 35.42C332.66 36.31 331.74 37.22 330.79 38.08C330.4 38.43 330.39 38.65 330.77 39.04C334.13 42.52 337.46 46.03 340.8 49.52C340.94 49.67 341.1 49.79 341.29 49.96C344.6 46.8 347.87 43.67 351.16 40.53C352.77 42.22 354.35 43.87 355.94 45.53C355.14 46.29 354.37 47.03 353.55 47.81C352.72 46.94 351.91 46.09 351.1 45.24C348.58 47.65 346.1 50.01 343.6 52.4C343.74 52.56 343.85 52.7 343.97 52.82C344.94 53.84 345.93 54.84 346.87 55.88C347.22 56.26 347.48 56.3 347.79 55.9C347.82 55.86 347.86 55.83 347.9 55.79C353.36 50.56 358.82 45.33 364.27 40.11C364.4 39.98 364.53 39.84 364.67 39.69C362.97 37.92 361.31 36.17 359.6 34.38C358.14 35.78 356.7 37.15 355.26 38.52C354.47 37.7 353.74 36.93 352.97 36.12C354.42 34.73 355.85 33.37 357.3 31.99L357.29 32.02Z" fill="#EA605D"/>
<path d="M703.74 28.55C707.2 32.18 710.66 35.81 714.14 39.42C714.5 39.8 714.48 39.99 714.12 40.33C707 47.1 699.9 53.88 692.8 60.67C692.44 61.01 692.24 61.03 691.88 60.65C684.96 53.39 678.04 46.14 671.1 38.89C670.75 38.52 670.74 38.32 671.1 37.97C678.21 31.19 685.31 24.41 692.4 17.61C692.8 17.23 692.99 17.28 693.35 17.66C696.8 21.3 700.27 24.92 703.73 28.55H703.74ZM702.37 32.02C699.14 28.64 695.98 25.33 692.82 22.02C691.96 22.84 691.14 23.63 690.27 24.46C692.37 26.66 694.44 28.82 696.55 31.03C693.61 33.83 690.72 36.59 687.8 39.39C688.55 40.17 689.25 40.91 689.96 41.65C689.16 42.42 688.4 43.14 687.64 43.87C686.14 42.3 684.66 40.75 683.14 39.16C686.04 36.39 688.9 33.66 691.78 30.91C690.44 29.51 689.14 28.14 687.81 26.76C685.7 28.77 683.63 30.75 681.51 32.77C682.22 33.51 682.9 34.22 683.61 34.96C682.81 35.73 682.05 36.45 681.24 37.22L679.14 35.02C678.95 35.18 678.81 35.29 678.67 35.42C677.74 36.31 676.82 37.22 675.87 38.08C675.48 38.43 675.47 38.65 675.85 39.04C679.21 42.52 682.54 46.03 685.88 49.52C686.02 49.67 686.18 49.79 686.37 49.96C689.68 46.8 692.95 43.67 696.24 40.53C697.85 42.22 699.43 43.87 701.02 45.53C700.22 46.29 699.45 47.03 698.63 47.81C697.8 46.94 696.99 46.09 696.18 45.24C693.66 47.65 691.18 50.01 688.68 52.4C688.82 52.56 688.93 52.7 689.05 52.82C690.02 53.84 691.01 54.84 691.95 55.88C692.3 56.26 692.56 56.3 692.87 55.9C692.9 55.86 692.94 55.83 692.98 55.79C698.44 50.56 703.9 45.33 709.35 40.11C709.48 39.98 709.61 39.84 709.75 39.69C708.05 37.92 706.39 36.17 704.68 34.38C703.22 35.78 701.78 37.15 700.34 38.52L698.05 36.12C699.5 34.73 700.93 33.37 702.38 31.99L702.37 32.02Z" fill="#EA605D"/>
<path d="M652.31 57.1C643.99 57.1 637.24 50.35 637.24 42.03C637.24 33.71 643.99 26.96 652.31 26.96C657.24 26.96 661.61 29.34 664.36 33.01C664.36 32.96 664.36 32.92 664.36 32.86C664.36 29.84 664.32 26.81 664.38 23.79C664.41 22.55 663.96 22.16 662.75 22.18C659.4 22.24 656.04 22.21 652.69 22.19C650.91 22.19 650.34 21.32 650.94 19.64C652.13 16.25 651.45 13.45 648.94 11.5C646.47 9.59 642.69 9.57 639.98 11.46C638.06 12.8 637.06 16.27 637.87 18.79C638 19.21 638.21 19.6 638.34 20.02C638.75 21.36 638.2 22.16 636.8 22.17C633.39 22.2 633.68 22.23 630.27 22.16C628.93 22.13 628.55 22.66 628.58 23.9C628.64 26.92 628.63 29.95 628.62 32.97C628.62 35.15 627.61 35.82 625.55 35.06C622.36 33.88 619.05 34.76 617.11 37.32C615.32 39.68 615.33 43.27 617.12 45.64C619.03 48.17 622.37 49.04 625.57 47.87C627.64 47.11 628.62 47.76 628.64 49.94C628.66 52.96 628.68 55.99 628.63 59.01C628.61 60.25 628.97 60.79 630.32 60.76C633.5 60.68 632.99 60.73 636.46 60.73C636.46 60.73 636.46 60.73 636.46 60.72H653.49V60.67C654.85 60.67 656.23 60.67 657.61 60.67C659.42 60.67 661.24 60.72 663.05 60.6C663.52 60.57 664.33 59.97 664.34 59.62C664.4 56.77 664.38 53.91 664.36 51.06C661.61 54.72 657.25 57.1 652.31 57.1Z" fill="#E9B73E"/>
<path d="M125.57 17.35V19.83H122.57V17.35H118.21V19.83H115.21V17.35H110.85V28.49H108.19V26.53H105.07V28.49H102.55V26.53H99.43V28.49H96.91V26.53H93.79V28.49H91.27V26.53H88.15V28.49H85.63V26.53H82.51V28.49H79.85V17.35H75.49V19.83H72.49V17.35H68.13V19.83H65.13V17.35H60.77V32.4H61.21C61.42 32.4 61.61 32.43 61.93 32.49C66.65 32.97 67.23 34.32 67.23 38.17V52.91C67.23 56.76 66.65 58.11 61.93 58.59C61.45 58.69 61.26 58.69 60.87 58.69L60.77 60.91L62.12 60.81C65.49 60.52 66.84 60.33 68.67 60.33H77.63V41.72C77.63 41.53 77.66 41.35 77.69 41.18C78.02 38.24 80.65 35.94 83.89 35.94C87.35 35.94 90.15 38.55 90.15 41.77C90.15 41.95 90.11 42.12 90.09 42.3L90.15 42.32V52.91C90.15 56.76 89.57 58.11 84.85 58.59C84.37 58.69 84.18 58.69 83.79 58.69L83.69 60.91L85.04 60.81C88.41 60.52 89.76 60.33 91.59 60.33H99.1C100.93 60.33 102.28 60.52 105.65 60.81L107 60.91L106.9 58.69C106.52 58.69 106.32 58.69 105.84 58.59C101.12 58.11 100.54 56.76 100.54 52.91V42.41L100.61 42.39C100.59 42.18 100.54 41.98 100.54 41.77C100.54 38.55 103.34 35.94 106.8 35.94C110.26 35.94 113.06 38.55 113.06 41.77C113.06 41.86 113.04 41.95 113.03 42.04C113.03 42.12 113.06 42.19 113.06 42.28V60.33H122.02C123.85 60.33 125.2 60.52 128.57 60.81L129.92 60.91L129.82 58.69C129.44 58.69 129.24 58.69 128.76 58.59C124.04 58.11 123.46 56.76 123.46 52.91V38.17C123.46 34.32 124.04 32.97 128.76 32.49C129.24 32.39 129.43 32.39 129.82 32.39H129.92V17.34H125.56L125.57 17.35Z" fill="#4BB0B8"/>
<path d="M597.81 23.72C601.582 23.72 604.64 20.6621 604.64 16.89C604.64 13.1179 601.582 10.06 597.81 10.06C594.038 10.06 590.98 13.1179 590.98 16.89C590.98 20.6621 594.038 23.72 597.81 23.72Z" fill="#6FA260"/>
<path d="M597.81 13.41L609.33 60.75H586.3L597.81 13.41Z" fill="#6FA260"/>
<path d="M307.79 23.72C311.562 23.72 314.62 20.6621 314.62 16.89C314.62 13.1179 311.562 10.06 307.79 10.06C304.018 10.06 300.96 13.1179 300.96 16.89C300.96 20.6621 304.018 23.72 307.79 23.72Z" fill="#6FA260"/>
<path d="M307.79 13.41L319.31 60.75H296.27L307.79 13.41Z" fill="#6FA260"/>
</g>
<defs>
<clipPath id="clip0_1_76">
<rect width="714.4" height="106.16" fill="white"/>
</clipPath>
</defs>
</svg>
