<svg width="370" height="152" viewBox="0 0 370 152" fill="none" xmlns="http://www.w3.org/2000/svg">
<g clip-path="url(#clip0_1_141)">
<path d="M75.68 150.45C75.68 150.45 56.51 149.78 48.81 149.78H40.33C38.5 149.78 36.19 149.97 32.82 150.26L31.47 150.36L31.57 148.14C31.96 148.14 32.15 148.14 32.63 148.04C37.35 147.56 38.89 146.21 38.89 142.36V97.47C38.89 93.62 37.35 92.27 32.63 91.79C32.15 91.69 31.96 91.69 31.57 91.69L31.47 89.47L32.82 89.57C36.19 89.86 38.5 90.05 40.33 90.05H48.81C50.64 90.05 52.95 89.86 56.32 89.57L57.67 89.47L57.57 91.69C57.18 91.69 56.99 91.69 56.51 91.79C51.79 92.27 50.25 93.62 50.25 97.47V136.96C50.25 142.26 50.54 142.55 55.16 142.55H64.21C71.34 142.55 72.3 142.17 77.12 136L80.2 131.95H82.99C78.18 138.4 76.63 146.78 75.67 150.44L75.68 150.45Z" fill="#0C2136"/>
<path d="M180.56 149.97C172.86 149.97 162.55 149.78 162.55 149.78C160.72 149.78 159.37 149.97 156 150.26L154.65 150.36L154.75 148.14C155.13 148.14 155.33 148.14 155.81 148.04C160.53 147.56 161.11 146.21 161.11 142.36V114.81C161.11 110.96 160.53 109.61 155.81 109.13C155.33 109.03 155.14 109.03 154.75 109.03L154.65 106.81L156 106.91C159.37 107.2 160.72 107.39 162.55 107.39C162.55 107.39 175.36 107.1 180.56 107.1C193.08 107.1 203.29 115.38 203.29 127.81C203.29 140.24 193.76 149.96 180.56 149.96V149.97ZM178.83 112.7C177.77 112.7 172.76 112.89 171.51 112.99V139.38C171.51 143.04 172.76 144.1 178.83 144.1C186.82 144.1 192.51 136.49 192.51 127.92C192.51 118.77 186.25 112.7 178.83 112.7Z" fill="#0C2136"/>
<path d="M117.31 102.86H113.98L118.5 89.45H130.17L117.31 102.86Z" fill="#ED8C3F"/>
<path d="M141.66 109.04C141.28 109.04 141.08 109.04 140.6 109.14C135.88 109.62 135.3 110.97 135.3 114.82V115.88C135.3 131.87 127.4 144.78 115.46 151.71C103.71 144.78 95.91 131.77 95.91 115.88V114.82C95.91 110.97 95.33 109.62 90.61 109.14C90.13 109.04 89.94 109.04 89.55 109.04L89.45 106.82L90.8 106.92C94.17 107.21 95.52 107.4 97.35 107.4H104.86C106.69 107.4 108.04 107.21 111.41 106.92L112.76 106.82L112.66 109.04C112.28 109.04 112.08 109.04 111.6 109.14C107.07 109.62 106.4 110.87 106.3 114.34C106.4 134.66 109.77 141.21 115.55 145.55C121.33 141.22 124.8 134.67 124.89 114.34C124.79 110.87 124.12 109.62 119.59 109.14C119.11 109.04 118.92 109.04 118.53 109.04L118.43 106.82L119.78 106.92C123.15 107.21 124.5 107.4 126.33 107.4H133.84C135.67 107.4 137.02 107.21 140.39 106.92L141.74 106.82L141.64 109.04H141.66Z" fill="#ED8C3F"/>
<path d="M115.98 133.77H115.22C114.16 131.34 112.56 129.74 110.12 128.68V127.92C112.55 126.86 114.15 125.26 115.22 122.83H115.98C117.04 125.26 118.64 126.86 121.08 127.92V128.68C118.65 129.74 117.05 131.34 115.98 133.77Z" fill="#ED8C3F"/>
<path d="M327.19 118C330.65 121.63 334.11 125.26 337.59 128.87C337.95 129.25 337.93 129.44 337.57 129.78C330.45 136.55 323.35 143.33 316.25 150.12C315.89 150.46 315.69 150.48 315.33 150.1C308.41 142.84 301.49 135.59 294.55 128.34C294.2 127.97 294.19 127.77 294.55 127.42C301.66 120.64 308.76 113.86 315.85 107.06C316.25 106.68 316.44 106.73 316.8 107.11C320.25 110.75 323.72 114.37 327.18 118H327.19ZM325.82 121.47C322.59 118.09 319.43 114.78 316.27 111.47C315.41 112.29 314.59 113.08 313.72 113.91C315.82 116.11 317.89 118.27 320 120.48C317.06 123.28 314.17 126.04 311.25 128.84L313.41 131.1C312.61 131.87 311.85 132.59 311.09 133.32C309.59 131.75 308.11 130.2 306.59 128.61C309.49 125.84 312.35 123.11 315.23 120.36C313.89 118.96 312.59 117.59 311.26 116.21C309.15 118.22 307.08 120.2 304.96 122.22L307.06 124.41C306.26 125.18 305.5 125.9 304.69 126.67C303.99 125.93 303.3 125.22 302.59 124.47C302.4 124.63 302.26 124.74 302.12 124.87C301.19 125.76 300.27 126.67 299.32 127.53C298.93 127.88 298.92 128.1 299.3 128.49C302.66 131.97 305.99 135.48 309.33 138.97C309.47 139.12 309.63 139.24 309.82 139.41C313.13 136.25 316.4 133.12 319.69 129.98C321.3 131.67 322.88 133.32 324.47 134.98C323.67 135.74 322.9 136.48 322.08 137.26C321.25 136.39 320.44 135.54 319.63 134.69C317.11 137.1 314.63 139.46 312.13 141.85C312.27 142.01 312.38 142.15 312.5 142.27C313.47 143.29 314.46 144.29 315.4 145.33C315.75 145.71 316.01 145.75 316.32 145.35C316.35 145.31 316.39 145.28 316.43 145.24C321.89 140.01 327.35 134.78 332.8 129.56C332.93 129.43 333.06 129.29 333.2 129.14C331.5 127.37 329.84 125.62 328.13 123.83C326.67 125.23 325.23 126.6 323.79 127.97C323 127.15 322.27 126.38 321.5 125.57C322.95 124.18 324.38 122.82 325.83 121.44L325.82 121.47Z" fill="#EA605D"/>
<path d="M275.76 146.54C267.44 146.54 260.69 139.79 260.69 131.47C260.69 123.15 267.44 116.4 275.76 116.4C280.69 116.4 285.06 118.78 287.81 122.45C287.81 122.4 287.81 122.36 287.81 122.3C287.81 119.28 287.77 116.25 287.83 113.23C287.86 111.99 287.41 111.6 286.2 111.62C282.85 111.68 279.49 111.65 276.14 111.63C274.36 111.63 273.79 110.76 274.39 109.08C275.58 105.69 274.9 102.89 272.39 100.94C269.92 99.03 266.14 99.01 263.43 100.9C261.51 102.24 260.51 105.71 261.32 108.23C261.45 108.65 261.66 109.04 261.79 109.46C262.2 110.8 261.65 111.6 260.25 111.61C256.84 111.64 257.13 111.67 253.72 111.6C252.38 111.57 252 112.1 252.03 113.34C252.09 116.36 252.08 119.39 252.07 122.41C252.07 124.59 251.06 125.26 249 124.5C245.81 123.32 242.5 124.2 240.56 126.76C238.77 129.12 238.78 132.71 240.57 135.08C242.48 137.61 245.82 138.48 249.02 137.31C251.09 136.55 252.07 137.2 252.09 139.38C252.11 142.4 252.13 145.43 252.08 148.45C252.06 149.69 252.42 150.23 253.77 150.2C256.95 150.12 256.44 150.17 259.91 150.17C259.91 150.17 259.91 150.17 259.91 150.16H276.94V150.11C278.3 150.11 279.68 150.11 281.06 150.11C282.87 150.11 284.69 150.16 286.5 150.04C286.97 150.01 287.78 149.41 287.79 149.06C287.85 146.21 287.83 143.35 287.81 140.5C285.06 144.16 280.7 146.54 275.76 146.54Z" fill="#E9B73E"/>
<path d="M221.26 113.16C225.032 113.16 228.09 110.102 228.09 106.33C228.09 102.558 225.032 99.5 221.26 99.5C217.488 99.5 214.43 102.558 214.43 106.33C214.43 110.102 217.488 113.16 221.26 113.16Z" fill="#6FA260"/>
<path d="M221.26 102.86L232.78 150.2H209.75L221.26 102.86Z" fill="#6FA260"/>
<path d="M43.63 60.81C43.63 60.81 34.58 60.42 28.7 60.33C22.83 60.23 8.86 60.33 8.86 60.33C7.03 60.33 4.72 60.52 1.35 60.81L0 60.91L0.1 58.69C0.49 58.69 0.68 58.69 1.16 58.59C5.88 58.11 7.42 56.76 7.42 52.91V8.03C7.42 4.18 5.88 2.83 1.16 2.35C0.68 2.25 0.49 2.25 0.1 2.25L0 0.0299988L1.35 0.129999C4.72 0.419999 7.03 0.609999 8.86 0.609999H43.44L45.27 14.87H43.25C41.52 8.32 40.84 7.94 34.97 7.84L18.79 7.65V24.12H40.46V30.67H18.79V47.53C18.79 52.83 19.08 53.12 23.7 53.12H33.04C40.17 53.12 41.61 51.19 45.47 45.32L47.88 45.13C44.41 51.39 44.61 57.17 43.64 60.83L43.63 60.81Z" fill="#0C2136"/>
<path d="M164.5 42.41C162.57 42.41 160.74 42.22 159.3 42.12V52.91C159.3 56.76 159.88 58.11 164.6 58.59C165.08 58.69 165.27 58.69 165.66 58.69L165.76 60.91L164.41 60.81C161.04 60.52 159.69 60.33 157.86 60.33H150.35C148.52 60.33 147.17 60.52 143.8 60.81L142.45 60.91L142.55 58.69C142.94 58.69 143.13 58.69 143.61 58.59C148.33 58.11 148.91 56.76 148.91 52.91V25.36C148.91 21.51 148.33 20.16 143.61 19.68C143.13 19.58 142.94 19.58 142.55 19.58L142.45 17.36L143.8 17.46C147.17 17.75 148.52 17.94 150.35 17.94C150.35 17.94 162.68 17.65 166.15 17.65C175.88 17.65 181.66 22.56 181.66 28.44C181.66 36.72 173.47 42.41 164.52 42.41H164.5ZM163.44 22.09C160.94 22.09 159.3 22.19 159.3 24.4V38.85C159.3 38.85 161.52 39.04 162.77 39.04C167.3 39.04 171.25 35.67 171.25 30.18C171.25 25.94 168.75 22.09 163.45 22.09H163.44Z" fill="#0C2136"/>
<path d="M303.12 70.35C282.12 70.35 264.69 46.75 260.45 43.38C260.16 43.09 259.2 42.8 258.14 42.32C256.99 42.32 255.93 42.22 254.96 42.13V52.92C254.96 56.77 255.54 58.12 260.26 58.6C260.74 58.7 260.93 58.7 261.32 58.7L261.42 60.92L260.07 60.82C256.7 60.53 255.35 60.34 253.52 60.34H246.01C244.18 60.34 242.83 60.53 239.46 60.82L238.11 60.92L238.21 58.7C238.6 58.7 238.79 58.7 239.27 58.6C243.99 58.12 244.57 56.77 244.57 52.92V25.37C244.57 21.52 243.99 20.17 239.27 19.69C238.79 19.59 238.6 19.59 238.21 19.59L238.11 17.37L239.46 17.47C242.83 17.76 244.18 17.95 246.01 17.95C246.01 17.95 258.34 17.66 261.81 17.66C271.54 17.66 277.32 22.57 277.32 28.45C277.32 33.65 274.05 37.79 269.42 40.2C275.87 45.98 287.72 62.74 300.15 67.07C304.29 68.51 309.78 68.51 313.73 66.88C312.96 68.71 308.72 70.35 303.13 70.35H303.12ZM259.1 22.09C256.6 22.09 254.96 22.19 254.96 24.4V38.85C254.96 38.85 257.18 39.04 258.43 39.04C262.96 39.04 266.91 35.67 266.91 30.18C266.91 25.94 264.41 22.09 259.11 22.09H259.1Z" fill="#0C2136"/>
<path d="M211.79 13.41H208.45L212.98 0H224.64L211.79 13.41Z" fill="#EA605D"/>
<path d="M221 28.55C224.46 32.18 227.92 35.81 231.4 39.42C231.76 39.8 231.74 39.99 231.38 40.33C224.26 47.1 217.16 53.88 210.06 60.67C209.7 61.01 209.5 61.03 209.14 60.65C202.22 53.39 195.3 46.14 188.36 38.89C188.01 38.52 188 38.32 188.36 37.97C195.47 31.19 202.57 24.41 209.66 17.61C210.06 17.23 210.25 17.28 210.61 17.66C214.06 21.3 217.53 24.92 220.99 28.55H221ZM219.63 32.02C216.4 28.64 213.24 25.33 210.08 22.02C209.22 22.84 208.4 23.63 207.53 24.46C209.63 26.66 211.7 28.82 213.81 31.03C210.87 33.83 207.98 36.59 205.06 39.39C205.81 40.17 206.51 40.91 207.22 41.65C206.42 42.42 205.66 43.14 204.9 43.87C203.4 42.3 201.92 40.75 200.4 39.16C203.3 36.39 206.16 33.66 209.04 30.91C207.7 29.51 206.4 28.14 205.07 26.76C202.96 28.77 200.89 30.75 198.77 32.77C199.48 33.51 200.16 34.22 200.87 34.96C200.07 35.73 199.31 36.45 198.5 37.22C197.8 36.48 197.11 35.77 196.4 35.02C196.21 35.18 196.07 35.29 195.93 35.42C195 36.31 194.08 37.22 193.13 38.08C192.74 38.43 192.73 38.65 193.11 39.04C196.47 42.52 199.8 46.03 203.14 49.52C203.28 49.67 203.44 49.79 203.63 49.96C206.94 46.8 210.21 43.67 213.5 40.53C215.11 42.22 216.69 43.87 218.28 45.53C217.48 46.29 216.71 47.03 215.89 47.81C215.06 46.94 214.25 46.09 213.44 45.24C210.92 47.65 208.44 50.01 205.94 52.4C206.08 52.56 206.19 52.7 206.31 52.82C207.28 53.84 208.27 54.84 209.21 55.88C209.56 56.26 209.82 56.3 210.13 55.9C210.16 55.86 210.2 55.83 210.24 55.79C215.7 50.56 221.16 45.33 226.61 40.11C226.74 39.98 226.87 39.84 227.01 39.69C225.31 37.92 223.65 36.17 221.94 34.38C220.48 35.78 219.04 37.15 217.6 38.52C216.81 37.7 216.08 36.93 215.31 36.12C216.76 34.73 218.19 33.37 219.64 31.99L219.63 32.02Z" fill="#EA605D"/>
<path d="M358.66 28.55C362.12 32.18 365.58 35.81 369.06 39.42C369.42 39.8 369.4 39.99 369.04 40.33C361.92 47.1 354.82 53.88 347.72 60.67C347.36 61.01 347.16 61.03 346.8 60.65C339.88 53.39 332.96 46.14 326.02 38.89C325.67 38.52 325.66 38.32 326.02 37.97C333.13 31.19 340.23 24.41 347.32 17.61C347.72 17.23 347.91 17.28 348.27 17.66C351.72 21.3 355.19 24.92 358.65 28.55H358.66ZM357.29 32.02C354.06 28.64 350.9 25.33 347.74 22.02C346.88 22.84 346.06 23.63 345.19 24.46C347.29 26.66 349.36 28.82 351.47 31.03C348.53 33.83 345.64 36.59 342.72 39.39C343.47 40.17 344.17 40.91 344.88 41.65L342.56 43.87C341.06 42.3 339.58 40.75 338.06 39.16C340.96 36.39 343.82 33.66 346.7 30.91C345.36 29.51 344.06 28.14 342.73 26.76C340.62 28.77 338.55 30.75 336.43 32.77C337.14 33.51 337.82 34.22 338.53 34.96C337.73 35.73 336.97 36.45 336.16 37.22C335.46 36.48 334.77 35.77 334.06 35.02C333.87 35.18 333.73 35.29 333.59 35.42C332.66 36.31 331.74 37.22 330.79 38.08C330.4 38.43 330.39 38.65 330.77 39.04C334.13 42.52 337.46 46.03 340.8 49.52C340.94 49.67 341.1 49.79 341.29 49.96C344.6 46.8 347.87 43.67 351.16 40.53C352.77 42.22 354.35 43.87 355.94 45.53C355.14 46.29 354.37 47.03 353.55 47.81C352.72 46.94 351.91 46.09 351.1 45.24C348.58 47.65 346.1 50.01 343.6 52.4C343.74 52.56 343.85 52.7 343.97 52.82C344.94 53.84 345.93 54.84 346.87 55.88C347.22 56.26 347.48 56.3 347.79 55.9C347.82 55.86 347.86 55.83 347.9 55.79C353.36 50.56 358.82 45.33 364.27 40.11C364.4 39.98 364.53 39.84 364.67 39.69C362.97 37.92 361.31 36.17 359.6 34.38C358.14 35.78 356.7 37.15 355.26 38.52C354.47 37.7 353.74 36.93 352.97 36.12C354.42 34.73 355.85 33.37 357.3 31.99L357.29 32.02Z" fill="#EA605D"/>
<path d="M125.57 17.35V19.83H122.57V17.35H118.21V19.83H115.21V17.35H110.85V28.49H108.19V26.53H105.07V28.49H102.55V26.53H99.43V28.49H96.91V26.53H93.79V28.49H91.27V26.53H88.15V28.49H85.63V26.53H82.51V28.49H79.85V17.35H75.49V19.83H72.49V17.35H68.13V19.83H65.13V17.35H60.77V32.4H61.21C61.42 32.4 61.61 32.43 61.93 32.49C66.65 32.97 67.23 34.32 67.23 38.17V52.91C67.23 56.76 66.65 58.11 61.93 58.59C61.45 58.69 61.26 58.69 60.87 58.69L60.77 60.91L62.12 60.81C65.49 60.52 66.84 60.33 68.67 60.33H77.63V41.72C77.63 41.53 77.66 41.35 77.69 41.18C78.02 38.24 80.65 35.94 83.89 35.94C87.35 35.94 90.15 38.55 90.15 41.77C90.15 41.95 90.11 42.12 90.09 42.3L90.15 42.32V52.91C90.15 56.76 89.57 58.11 84.85 58.59C84.37 58.69 84.18 58.69 83.79 58.69L83.69 60.91L85.04 60.81C88.41 60.52 89.76 60.33 91.59 60.33H99.1C100.93 60.33 102.28 60.52 105.65 60.81L107 60.91L106.9 58.69C106.52 58.69 106.32 58.69 105.84 58.59C101.12 58.11 100.54 56.76 100.54 52.91V42.41L100.61 42.39C100.59 42.18 100.54 41.98 100.54 41.77C100.54 38.55 103.34 35.94 106.8 35.94C110.26 35.94 113.06 38.55 113.06 41.77C113.06 41.86 113.04 41.95 113.03 42.04C113.03 42.12 113.06 42.19 113.06 42.28V60.33H122.02C123.85 60.33 125.2 60.52 128.57 60.81L129.92 60.91L129.82 58.69C129.44 58.69 129.24 58.69 128.76 58.59C124.04 58.11 123.46 56.76 123.46 52.91V38.17C123.46 34.32 124.04 32.97 128.76 32.49C129.24 32.39 129.43 32.39 129.82 32.39H129.92V17.34H125.56L125.57 17.35Z" fill="#4BB0B8"/>
<path d="M307.79 23.72C311.562 23.72 314.62 20.6621 314.62 16.89C314.62 13.1179 311.562 10.06 307.79 10.06C304.018 10.06 300.96 13.1179 300.96 16.89C300.96 20.6621 304.018 23.72 307.79 23.72Z" fill="#6FA260"/>
<path d="M307.79 13.41L319.31 60.75H296.27L307.79 13.41Z" fill="#6FA260"/>
</g>
<defs>
<clipPath id="clip0_1_141">
<rect width="369.32" height="151.71" fill="white"/>
</clipPath>
</defs>
</svg>
