<svg width="741" height="90" viewBox="0 0 741 90" fill="none" xmlns="http://www.w3.org/2000/svg">
<g clip-path="url(#clip0_1_3)">
<path d="M166.93 68.88V84.66C166.93 85.36 166.8 86.01 166.55 86.62C166.3 87.22 165.95 87.74 165.51 88.16C165.07 88.59 164.56 88.92 163.98 89.16C163.4 89.4 162.78 89.5 162.13 89.47V89.26C162.68 89.05 163.16 88.7 163.56 88.22C163.96 87.74 164.27 87.18 164.49 86.55C164.7 85.92 164.81 85.26 164.81 84.59V68.87H166.94L166.93 68.88ZM164.87 70.55H164.8C164.78 70.15 164.64 69.82 164.35 69.53C164.07 69.25 163.73 69.11 163.33 69.11H163.03V68.88H164.86V70.55H164.87ZM166.86 70.55V68.88H168.69V69.11H168.39C167.99 69.11 167.65 69.25 167.37 69.53C167.09 69.81 166.94 70.15 166.92 70.55H166.85H166.86Z" fill="#0C2136"/>
<path d="M178.23 70.85C179.36 70.85 180.4 71.02 181.35 71.37C182.3 71.71 183.13 72.2 183.84 72.83C184.55 73.46 185.1 74.22 185.5 75.09C185.9 75.97 186.1 76.95 186.1 78.03C186.1 79.11 185.9 80.09 185.5 80.97C185.1 81.85 184.55 82.6 183.84 83.23C183.13 83.86 182.3 84.35 181.35 84.69C180.4 85.03 179.36 85.2 178.23 85.2C177.1 85.2 176.09 85.03 175.14 84.69C174.19 84.35 173.36 83.86 172.65 83.23C171.93 82.6 171.38 81.84 170.99 80.97C170.6 80.09 170.41 79.11 170.41 78.03C170.41 76.95 170.6 75.97 170.99 75.09C171.38 74.21 171.93 73.46 172.65 72.83C173.37 72.2 174.2 71.71 175.14 71.37C176.08 71.03 177.11 70.85 178.23 70.85ZM178.23 84.46C179.3 84.46 180.25 84.19 181.09 83.65C181.93 83.11 182.59 82.36 183.07 81.4C183.55 80.44 183.79 79.32 183.79 78.04C183.79 76.76 183.55 75.62 183.07 74.67C182.59 73.72 181.93 72.97 181.09 72.43C180.25 71.89 179.3 71.62 178.23 71.62C177.16 71.62 176.26 71.89 175.42 72.43C174.58 72.97 173.92 73.72 173.43 74.67C172.94 75.62 172.7 76.75 172.7 78.04C172.7 79.33 172.94 80.44 173.43 81.4C173.92 82.36 174.58 83.11 175.42 83.65C176.26 84.19 177.2 84.46 178.23 84.46Z" fill="#0C2136"/>
<path d="M195.77 70.85C196.47 70.85 197.15 70.9 197.79 71C198.44 71.1 199.05 71.24 199.63 71.43C200.21 71.62 200.74 71.85 201.21 72.13L201.55 75.49H201.34C201.13 74.57 200.78 73.83 200.3 73.26C199.82 72.69 199.22 72.27 198.5 72C197.78 71.73 196.94 71.6 195.98 71.6C194.85 71.6 193.87 71.86 193.04 72.38C192.21 72.9 191.57 73.64 191.12 74.61C190.67 75.58 190.44 76.73 190.44 78.08C190.44 79.43 190.66 80.5 191.1 81.46C191.54 82.42 192.17 83.16 192.98 83.68C193.79 84.2 194.73 84.46 195.82 84.46C196.4 84.46 196.95 84.39 197.49 84.24C198.02 84.09 198.53 83.87 199 83.56C199.47 83.26 199.89 82.87 200.26 82.42L200.28 79.47C200.29 79.18 200.21 78.96 200.02 78.81C199.83 78.66 199.57 78.58 199.25 78.58H198.93V78.35H203.67V78.58H203.37C202.68 78.58 202.34 78.89 202.34 79.49V82.33C202 82.77 201.52 83.21 200.89 83.66C200.26 84.11 199.51 84.47 198.64 84.77C197.77 85.07 196.8 85.22 195.71 85.22C194.2 85.21 192.89 84.91 191.76 84.33C190.64 83.75 189.77 82.93 189.14 81.86C188.51 80.79 188.2 79.52 188.2 78.04C188.2 76.56 188.51 75.26 189.14 74.2C189.77 73.14 190.64 72.31 191.77 71.73C192.9 71.15 194.22 70.86 195.75 70.86L195.77 70.85Z" fill="#0C2136"/>
<path d="M212.97 70.85C214.1 70.85 215.14 71.02 216.09 71.37C217.04 71.71 217.87 72.2 218.58 72.83C219.29 73.46 219.84 74.22 220.24 75.09C220.64 75.97 220.84 76.95 220.84 78.03C220.84 79.11 220.64 80.09 220.24 80.97C219.84 81.85 219.29 82.6 218.58 83.23C217.87 83.86 217.04 84.35 216.09 84.69C215.14 85.03 214.1 85.2 212.97 85.2C211.84 85.2 210.83 85.03 209.88 84.69C208.93 84.35 208.1 83.86 207.39 83.23C206.67 82.6 206.12 81.84 205.73 80.97C205.34 80.09 205.15 79.11 205.15 78.03C205.15 76.95 205.34 75.97 205.73 75.09C206.12 74.21 206.67 73.46 207.39 72.83C208.1 72.2 208.94 71.71 209.88 71.37C210.83 71.03 211.86 70.85 212.97 70.85ZM212.97 84.46C214.04 84.46 214.99 84.19 215.83 83.65C216.67 83.11 217.33 82.36 217.81 81.4C218.29 80.44 218.53 79.32 218.53 78.04C218.53 76.76 218.29 75.62 217.81 74.67C217.33 73.72 216.67 72.97 215.83 72.43C214.99 71.89 214.04 71.62 212.97 71.62C211.9 71.62 211 71.89 210.16 72.43C209.32 72.97 208.66 73.72 208.17 74.67C207.68 75.62 207.44 76.75 207.44 78.04C207.44 79.33 207.68 80.44 208.17 81.4C208.66 82.36 209.32 83.11 210.16 83.65C211 84.19 211.94 84.46 212.97 84.46Z" fill="#0C2136"/>
<path d="M227.25 70.85C227.65 70.85 228.02 70.86 228.38 70.9C228.74 70.93 229.07 70.96 229.36 71C229.65 71.04 229.92 71.08 230.15 71.14C230.38 71.19 230.55 71.24 230.68 71.29L230.61 73.74H230.36C230.36 73.08 230.14 72.57 229.68 72.2C229.23 71.83 228.55 71.64 227.66 71.64C226.9 71.64 226.26 71.83 225.75 72.22C225.24 72.61 224.99 73.09 224.99 73.67C224.99 73.9 225.03 74.12 225.1 74.32C225.18 74.53 225.3 74.72 225.46 74.92C225.63 75.11 225.83 75.3 226.08 75.48L230.36 78.61C230.8 78.9 231.14 79.29 231.37 79.79C231.6 80.29 231.71 80.82 231.69 81.38C231.69 82.11 231.49 82.77 231.09 83.36C230.69 83.95 230.16 84.4 229.49 84.73C228.82 85.06 228.06 85.22 227.2 85.22C226.68 85.22 226.16 85.17 225.63 85.08C225.1 84.99 224.63 84.86 224.2 84.69C223.77 84.52 223.42 84.32 223.15 84.1C223.09 83.86 223.06 83.55 223.06 83.19C223.06 82.83 223.1 82.45 223.17 82.06C223.25 81.67 223.34 81.33 223.47 81.04H223.72C223.66 81.73 223.76 82.33 224.04 82.85C224.31 83.37 224.72 83.77 225.24 84.05C225.77 84.33 226.39 84.47 227.11 84.45C228.04 84.44 228.76 84.21 229.27 83.77C229.78 83.34 230.03 82.77 230.03 82.09C230.03 81.71 229.94 81.37 229.77 81.06C229.6 80.75 229.31 80.46 228.91 80.17L224.77 77.15C224.24 76.77 223.86 76.32 223.64 75.81C223.42 75.3 223.32 74.78 223.35 74.24C223.38 73.58 223.57 73 223.91 72.49C224.25 71.98 224.71 71.58 225.3 71.29C225.89 71 226.53 70.86 227.24 70.86L227.25 70.85ZM230.68 71.06V71.47H228.78V71.06H230.68Z" fill="#0C2136"/>
<path d="M241.29 72.64H241.24C241.23 72.29 241.09 72 240.84 71.76C240.59 71.52 240.29 71.41 239.94 71.41H239.66V71.18H241.28V72.64H241.29ZM241.32 83.41V84.9H239.67V84.67H239.97C240.32 84.67 240.62 84.54 240.87 84.29C241.12 84.04 241.25 83.75 241.25 83.41H241.32ZM243.35 71.17V84.89H241.25V71.17H243.35ZM247.33 71.17C248.89 71.17 250.22 71.44 251.34 71.99C252.46 72.54 253.32 73.33 253.92 74.36C254.52 75.39 254.82 76.61 254.82 78.03C254.82 79.45 254.52 80.67 253.92 81.69C253.32 82.71 252.46 83.5 251.34 84.06C250.22 84.62 248.88 84.9 247.33 84.9H242.39L242.34 84.15H247.23C248.89 84.15 250.2 83.61 251.14 82.51C252.09 81.42 252.56 79.93 252.56 78.04C252.56 76.15 252.09 74.66 251.14 73.57C250.19 72.48 248.89 71.93 247.23 71.93H242.11V71.18H247.33V71.17Z" fill="#0C2136"/>
<path d="M258.29 72.61H258.25C258.23 72.26 258.11 71.97 257.87 71.74C257.63 71.51 257.33 71.4 256.97 71.4H256.65V71.17H258.55L258.3 72.61H258.29ZM258.29 83.43L258.54 84.89H256.64V84.66H256.96C257.32 84.66 257.63 84.54 257.86 84.29C258.1 84.05 258.22 83.76 258.24 83.42H258.28L258.29 83.43ZM260.32 71.17V84.89H258.24V71.17H260.32ZM266.27 71.17V71.95H260.28V71.17H266.27ZM265.24 77.67V78.45H260.28V77.67H265.24ZM266.2 84.12L266.36 84.9H260.28V84.12H266.2ZM267.55 81.31L266.43 84.9H262.79L263.54 84.12C264.26 84.12 264.86 84 265.33 83.77C265.81 83.53 266.21 83.2 266.53 82.77C266.85 82.34 267.11 81.86 267.31 81.31H267.54H267.55ZM266.27 70.81V71.4L263.73 71.17C264.2 71.17 264.7 71.13 265.22 71.04C265.74 70.96 266.09 70.88 266.27 70.8V70.81ZM265.24 76.18V77.71H263.78V77.66C264.18 77.66 264.48 77.54 264.68 77.29C264.88 77.04 264.99 76.76 264.99 76.42V76.17H265.24V76.18ZM265.24 78.4V79.93H264.99V79.68C264.99 79.33 264.89 79.04 264.68 78.8C264.47 78.56 264.17 78.45 263.78 78.45V78.41H265.24V78.4ZM266.27 71.88V73.76H266.04V73.46C266.04 73.02 265.91 72.66 265.65 72.37C265.39 72.09 265.03 71.95 264.57 71.95V71.88H266.26H266.27Z" fill="#0C2136"/>
<path d="M274.19 70.78C274.33 70.83 274.54 70.88 274.82 70.94C275.1 71 275.41 71.05 275.76 71.09C276.1 71.13 276.42 71.15 276.71 71.15L274.19 71.38V70.79V70.78ZM287 71.15V71.9H274.19V71.15H287ZM275.9 71.86V71.91C275.44 71.92 275.08 72.07 274.83 72.34C274.58 72.61 274.44 72.97 274.44 73.41V73.71H274.19V71.86H275.91H275.9ZM279.58 83.43V84.89H277.96V84.66H278.23C278.58 84.66 278.88 84.54 279.13 84.29C279.38 84.05 279.52 83.76 279.53 83.42H279.58V83.43ZM281.64 71.24V84.9H279.54V71.24H281.64ZM281.58 83.43H281.65C281.65 83.77 281.78 84.06 282.04 84.3C282.3 84.54 282.6 84.67 282.96 84.67H283.21V84.9H281.59V83.44L281.58 83.43ZM287 70.78V71.37L284.48 71.14C284.77 71.14 285.09 71.12 285.43 71.08C285.77 71.04 286.09 70.99 286.37 70.93C286.65 70.87 286.86 70.82 287 70.77V70.78ZM287 71.86V73.71H286.75V73.41C286.75 72.97 286.62 72.61 286.36 72.34C286.1 72.07 285.74 71.92 285.29 71.91V71.86H287.01H287Z" fill="#0C2136"/>
<path d="M288.92 83.27C288.75 83.71 288.77 84.06 288.99 84.3C289.2 84.54 289.45 84.67 289.72 84.67H289.9V84.9H285.46V84.67H285.64C285.95 84.67 286.27 84.56 286.6 84.35C286.93 84.14 287.23 83.78 287.47 83.28H288.91L288.92 83.27ZM293.29 70.76L293.43 72.73L288.28 84.83H286.75L292.15 73.25C292.15 73.25 292.22 73.1 292.31 72.9C292.4 72.7 292.5 72.45 292.62 72.18C292.73 71.91 292.84 71.64 292.94 71.38C293.04 71.12 293.1 70.91 293.11 70.76H293.29ZM295.76 79.84V80.59H289.77V79.84H295.76ZM293.29 70.76L299.74 84.76H297.25L292.58 73.5L293.29 70.75V70.76ZM296.65 83.27H299.08C299.31 83.77 299.59 84.13 299.93 84.34C300.27 84.55 300.59 84.66 300.89 84.66H301.07V84.89H295.69V84.66H295.87C296.13 84.66 296.36 84.54 296.58 84.29C296.79 84.05 296.82 83.7 296.65 83.26V83.27Z" fill="#0C2136"/>
<path d="M303.53 72.64H303.46C303.46 72.27 303.34 71.98 303.09 71.75C302.84 71.52 302.53 71.41 302.13 71.41H301.88V71.18H303.53V72.64ZM303.53 83.43V84.89H301.88V84.66H302.13C302.53 84.66 302.85 84.54 303.09 84.29C303.33 84.05 303.46 83.76 303.46 83.42H303.53V83.43ZM305.52 71.17V84.89H303.46V71.17H305.52ZM307.03 71.17C307.5 71.17 308.02 71.21 308.59 71.3C309.15 71.38 309.69 71.54 310.19 71.77C310.69 72 311.11 72.34 311.44 72.8C311.77 73.26 311.93 73.86 311.93 74.61C311.93 75.1 311.81 75.54 311.56 75.95C311.32 76.35 311 76.68 310.62 76.93C310.24 77.18 309.83 77.35 309.41 77.44C310.12 77.5 310.77 77.7 311.33 78.02C311.89 78.35 312.34 78.77 312.67 79.29C313 79.81 313.16 80.39 313.16 81.03C313.16 81.76 313.01 82.38 312.7 82.87C312.39 83.37 311.98 83.76 311.46 84.06C310.94 84.36 310.37 84.57 309.74 84.7C309.11 84.83 308.49 84.89 307.86 84.89H305.3C305.31 84.63 305.32 84.38 305.32 84.14H307.52C308.15 84.14 308.71 84.03 309.2 83.81C309.7 83.59 310.09 83.24 310.39 82.77C310.69 82.3 310.84 81.7 310.84 80.96C310.84 80.29 310.71 79.74 310.44 79.3C310.17 78.86 309.82 78.53 309.38 78.29C308.94 78.05 308.44 77.89 307.89 77.79C307.34 77.69 306.78 77.64 306.2 77.64V77.41C306.6 77.41 307 77.38 307.41 77.31C307.82 77.24 308.2 77.11 308.54 76.91C308.88 76.71 309.17 76.43 309.39 76.08C309.61 75.73 309.72 75.25 309.72 74.67C309.72 73.69 309.45 72.99 308.92 72.57C308.39 72.14 307.67 71.93 306.77 71.93H304.16C304.16 71.93 304.14 71.85 304.1 71.72C304.06 71.6 304.01 71.42 303.95 71.17H307.02H307.03Z" fill="#0C2136"/>
<path d="M316.34 71.17V72.38H316.3C316.28 72.09 316.17 71.85 315.97 71.67C315.76 71.49 315.51 71.39 315.2 71.39H314.88V71.16H316.34V71.17ZM318.36 71.17V79.82C318.36 81.27 318.72 82.41 319.45 83.24C320.17 84.07 321.16 84.49 322.41 84.49C323.78 84.49 324.86 84.1 325.64 83.31C326.42 82.52 326.81 81.45 326.81 80.07V71.17H328.02V80.02C328.02 81.62 327.51 82.89 326.5 83.82C325.49 84.75 324.09 85.21 322.3 85.21C320.39 85.21 318.92 84.75 317.87 83.83C316.83 82.91 316.3 81.65 316.3 80.04V71.16H318.36V71.17ZM319.78 71.17V71.4H319.44C319.15 71.4 318.9 71.49 318.69 71.68C318.48 71.86 318.37 72.1 318.37 72.39H318.33V71.18H319.79L319.78 71.17ZM326.84 71.17V72.38H326.8C326.8 72.09 326.69 71.85 326.48 71.67C326.27 71.49 326.01 71.39 325.73 71.39H325.39V71.16H326.85L326.84 71.17ZM329.41 71.17V71.4H329.09C328.8 71.4 328.55 71.49 328.33 71.68C328.12 71.86 328.01 72.1 328.01 72.39H327.97V71.18H329.41V71.17Z" fill="#0C2136"/>
<path d="M332.86 72.64H332.81C332.79 72.29 332.66 72 332.41 71.76C332.16 71.52 331.85 71.41 331.48 71.41H331.2V71.18H332.85V72.64H332.86ZM332.86 83.43L333.11 84.89H331.21V84.66H331.53C331.9 84.66 332.2 84.54 332.43 84.29C332.67 84.05 332.79 83.76 332.81 83.42H332.86V83.43ZM334.9 71.17V84.89H332.82V71.17H334.9ZM334.83 72.64V71.18H336.5V71.41H336.23C335.86 71.41 335.55 71.53 335.29 71.76C335.03 72 334.9 72.29 334.9 72.64H334.83ZM340.78 84.12L340.94 84.9H334.86V84.12H340.78ZM342.12 81.31L341 84.9H337.36L338.11 84.12C338.83 84.12 339.43 84 339.91 83.77C340.39 83.54 340.79 83.2 341.11 82.77C341.43 82.34 341.69 81.86 341.89 81.31H342.12Z" fill="#0C2136"/>
<path d="M344.78 72.61H344.73C344.72 72.26 344.59 71.97 344.35 71.74C344.11 71.51 343.81 71.4 343.45 71.4H343.13V71.17H345.03L344.78 72.61ZM344.78 83.43L345.03 84.89H343.13V84.66H343.45C343.81 84.66 344.12 84.54 344.35 84.29C344.59 84.05 344.71 83.76 344.73 83.42H344.78V83.43ZM346.81 71.17V84.89H344.73V71.17H346.81ZM352.76 71.17V71.95H346.77V71.17H352.76ZM351.73 77.67V78.45H346.77V77.67H351.73ZM352.69 84.12L352.85 84.9H346.76V84.12H352.68H352.69ZM354.04 81.31L352.92 84.9H349.28L350.03 84.12C350.75 84.12 351.35 84 351.83 83.77C352.31 83.54 352.71 83.2 353.03 82.77C353.35 82.34 353.61 81.86 353.81 81.31H354.04ZM352.76 70.81V71.4L350.22 71.17C350.69 71.17 351.19 71.13 351.71 71.04C352.23 70.96 352.58 70.88 352.76 70.8V70.81ZM351.73 76.18V77.71H350.27V77.66C350.67 77.66 350.97 77.54 351.17 77.29C351.37 77.04 351.48 76.76 351.48 76.42V76.17H351.73V76.18ZM351.73 78.4V79.93H351.48V79.68C351.48 79.33 351.38 79.04 351.17 78.8C350.96 78.56 350.66 78.45 350.27 78.45V78.41H351.73V78.4ZM352.76 71.88V73.76H352.53V73.46C352.53 73.02 352.4 72.66 352.14 72.37C351.88 72.09 351.52 71.95 351.07 71.95V71.88H352.76Z" fill="#0C2136"/>
<path d="M357.43 72.64H357.36C357.35 72.29 357.2 72 356.91 71.76C356.63 71.52 356.28 71.41 355.87 71.41H355.57V71.18H357.42V72.64H357.43ZM357.43 83.43V84.89H355.58V84.66H355.9C356.3 84.66 356.64 84.54 356.92 84.29C357.2 84.05 357.35 83.76 357.37 83.42H357.44L357.43 83.43ZM359.42 71.17V84.89H357.36V71.17H359.42ZM359.35 72.64V71.18H361.2L361.18 71.41H360.91C360.5 71.41 360.15 71.53 359.87 71.76C359.59 72 359.44 72.29 359.42 72.64H359.35ZM359.35 83.43H359.42C359.43 83.77 359.58 84.06 359.87 84.3C360.15 84.54 360.5 84.67 360.91 84.67H361.18L361.2 84.9H359.35V83.44V83.43Z" fill="#0C2136"/>
<path d="M365.02 72.61H364.98C364.97 72.26 364.83 71.97 364.59 71.74C364.35 71.51 364.05 71.4 363.7 71.4H363.38V71.17H365.23L365.02 72.61ZM365.02 83.43L365.23 84.89H363.38V84.66H363.7C364.05 84.66 364.35 84.54 364.59 84.29C364.83 84.05 364.96 83.76 364.98 83.42H365.02V83.43ZM367.03 71.17V84.89H364.95V71.17H367.03ZM366.97 83.43H367.04C367.04 83.78 367.17 84.07 367.42 84.31C367.67 84.55 367.97 84.66 368.32 84.66H368.59L368.61 84.89H366.73L366.96 83.43H366.97ZM369.55 71.17C370.24 71.17 370.87 71.25 371.45 71.4C372.03 71.55 372.53 71.79 372.96 72.1C373.39 72.41 373.72 72.8 373.96 73.27C374.2 73.74 374.31 74.28 374.31 74.9C374.31 75.52 374.17 76.06 373.9 76.61C373.63 77.15 373.23 77.6 372.71 77.97C372.19 78.34 371.58 78.57 370.88 78.66C371.2 78.77 371.54 79.01 371.91 79.39C372.28 79.77 372.58 80.14 372.8 80.49C372.83 80.52 372.94 80.67 373.12 80.94C373.3 81.21 373.53 81.53 373.82 81.9C374.1 82.27 374.39 82.64 374.68 83.01C375 83.38 375.29 83.68 375.54 83.93C375.79 84.17 376.06 84.36 376.35 84.49C376.64 84.62 376.98 84.68 377.36 84.68V84.91H376.26C375.42 84.91 374.73 84.82 374.18 84.64C373.63 84.46 373.17 84.21 372.81 83.89C372.44 83.57 372.12 83.22 371.85 82.84C371.76 82.73 371.61 82.53 371.41 82.22C371.21 81.92 371 81.59 370.78 81.25C370.56 80.91 370.36 80.59 370.17 80.3C369.99 80.01 369.87 79.82 369.83 79.73C369.55 79.3 369.25 78.95 368.9 78.67C368.56 78.39 368.2 78.25 367.84 78.25V78.02C368.24 78.03 368.59 78.03 368.89 78.02C369.29 78.01 369.68 77.96 370.07 77.89C370.46 77.82 370.82 77.64 371.16 77.34C371.5 77.04 371.76 76.57 371.94 75.93C371.99 75.79 372.02 75.62 372.06 75.42C372.09 75.21 372.1 74.99 372.08 74.74C372.05 74.27 371.96 73.86 371.8 73.53C371.65 73.19 371.44 72.92 371.17 72.69C370.9 72.47 370.61 72.3 370.28 72.19C369.95 72.08 369.6 72.01 369.22 72C368.66 71.99 368.16 71.98 367.72 71.99C367.28 72 367.04 71.99 367 71.98C366.92 71.72 366.85 71.46 366.77 71.2H369.56L369.55 71.17Z" fill="#0C2136"/>
<path d="M384.99 70.85C386.12 70.85 387.16 71.02 388.11 71.37C389.06 71.71 389.89 72.2 390.6 72.83C391.31 73.46 391.86 74.22 392.26 75.09C392.66 75.97 392.85 76.95 392.85 78.03C392.85 79.11 392.65 80.09 392.26 80.97C391.86 81.85 391.31 82.6 390.6 83.23C389.89 83.86 389.06 84.35 388.11 84.69C387.16 85.03 386.12 85.2 384.99 85.2C383.86 85.2 382.85 85.03 381.9 84.69C380.95 84.35 380.12 83.86 379.41 83.23C378.7 82.6 378.14 81.84 377.75 80.97C377.36 80.09 377.17 79.11 377.17 78.03C377.17 76.95 377.36 75.97 377.75 75.09C378.14 74.21 378.69 73.46 379.41 72.83C380.13 72.2 380.96 71.71 381.9 71.37C382.84 71.03 383.87 70.85 384.99 70.85ZM384.99 84.46C386.06 84.46 387.01 84.19 387.85 83.65C388.69 83.11 389.35 82.36 389.83 81.4C390.31 80.44 390.55 79.32 390.55 78.04C390.55 76.76 390.31 75.62 389.83 74.67C389.35 73.72 388.69 72.97 387.85 72.43C387.01 71.89 386.06 71.62 384.99 71.62C383.92 71.62 383.01 71.89 382.18 72.43C381.35 72.97 380.68 73.72 380.19 74.67C379.7 75.62 379.46 76.75 379.46 78.04C379.46 79.33 379.7 80.44 380.19 81.4C380.68 82.36 381.34 83.11 382.18 83.65C383.02 84.19 383.96 84.46 384.99 84.46Z" fill="#0C2136"/>
<path d="M394.14 83.02C394.29 82.79 394.5 82.65 394.77 82.6C395.04 82.55 395.3 82.59 395.57 82.71C395.84 82.84 396.04 83.06 396.18 83.39C396.39 83.88 396.47 84.35 396.42 84.8C396.37 85.25 396.22 85.65 395.99 86C395.75 86.35 395.45 86.63 395.09 86.84C394.72 87.05 394.33 87.14 393.9 87.13L393.83 86.92C394.26 86.77 394.55 86.56 394.7 86.3C394.85 86.04 394.91 85.76 394.86 85.46C394.81 85.16 394.7 84.91 394.52 84.69C394.4 84.54 394.28 84.37 394.18 84.19C394.07 84.01 394.01 83.81 394 83.61C393.98 83.4 394.04 83.21 394.16 83.03L394.14 83.02Z" fill="#0C2136"/>
<path d="M405.83 72.64H405.78C405.77 72.29 405.63 72 405.38 71.76C405.13 71.52 404.83 71.41 404.48 71.41H404.2V71.18H405.82V72.64H405.83ZM405.85 83.41V84.9H404.2V84.67H404.5C404.85 84.67 405.15 84.54 405.4 84.29C405.65 84.04 405.78 83.75 405.78 83.41H405.85ZM407.89 71.17V84.89H405.79V71.17H407.89ZM411.87 71.17C413.43 71.17 414.76 71.44 415.88 71.99C417 72.54 417.86 73.33 418.46 74.36C419.06 75.39 419.36 76.61 419.36 78.03C419.36 79.45 419.06 80.67 418.46 81.69C417.86 82.71 417 83.5 415.88 84.06C414.76 84.62 413.42 84.9 411.87 84.9H406.93L406.88 84.15H411.77C413.43 84.15 414.74 83.61 415.68 82.51C416.63 81.42 417.1 79.93 417.1 78.04C417.1 76.15 416.63 74.66 415.68 73.57C414.73 72.48 413.43 71.93 411.77 71.93H406.65V71.18H411.87V71.17Z" fill="#0C2136"/>
<path d="M422.83 72.61H422.79C422.77 72.26 422.65 71.97 422.41 71.74C422.17 71.51 421.87 71.4 421.51 71.4H421.19V71.17H423.09L422.84 72.61H422.83ZM422.83 83.43L423.08 84.89H421.18V84.66H421.5C421.86 84.66 422.17 84.54 422.4 84.29C422.64 84.05 422.76 83.76 422.78 83.42H422.82L422.83 83.43ZM424.86 71.17V84.89H422.78V71.17H424.86ZM430.81 71.17V71.95H424.82V71.17H430.81ZM429.78 77.67V78.45H424.82V77.67H429.78ZM430.74 84.12L430.9 84.9H424.82V84.12H430.74ZM432.09 81.31L430.97 84.9H427.33L428.08 84.12C428.8 84.12 429.4 84 429.87 83.77C430.35 83.53 430.75 83.2 431.07 82.77C431.39 82.34 431.65 81.86 431.85 81.31H432.08H432.09ZM430.81 70.81V71.4L428.27 71.17C428.74 71.17 429.24 71.13 429.76 71.04C430.28 70.96 430.63 70.88 430.81 70.8V70.81ZM429.78 76.18V77.71H428.32V77.66C428.72 77.66 429.02 77.54 429.22 77.29C429.42 77.04 429.53 76.76 429.53 76.42V76.17H429.78V76.18ZM429.78 78.4V79.93H429.53V79.68C429.53 79.33 429.43 79.04 429.22 78.8C429.01 78.56 428.71 78.45 428.32 78.45V78.41H429.78V78.4ZM430.81 71.88V73.76H430.58V73.46C430.58 73.02 430.45 72.66 430.19 72.37C429.93 72.09 429.57 71.95 429.11 71.95V71.88H430.8H430.81Z" fill="#0C2136"/>
<path d="M438.08 70.85C438.48 70.85 438.85 70.86 439.21 70.9C439.57 70.93 439.9 70.96 440.19 71C440.48 71.04 440.75 71.08 440.98 71.14C441.21 71.19 441.38 71.24 441.51 71.29L441.44 73.74H441.19C441.19 73.08 440.97 72.57 440.51 72.2C440.06 71.83 439.38 71.64 438.49 71.64C437.73 71.64 437.09 71.83 436.58 72.22C436.07 72.61 435.82 73.09 435.82 73.67C435.82 73.9 435.86 74.12 435.93 74.32C436.01 74.53 436.13 74.72 436.29 74.92C436.46 75.11 436.66 75.3 436.91 75.48L441.19 78.61C441.63 78.9 441.97 79.29 442.2 79.79C442.43 80.29 442.54 80.82 442.52 81.38C442.52 82.11 442.32 82.77 441.92 83.36C441.52 83.95 440.99 84.4 440.32 84.73C439.65 85.06 438.89 85.22 438.03 85.22C437.51 85.22 436.99 85.17 436.46 85.08C435.93 84.99 435.46 84.86 435.03 84.69C434.6 84.52 434.25 84.32 433.98 84.1C433.92 83.86 433.89 83.55 433.89 83.19C433.89 82.83 433.93 82.45 434 82.06C434.08 81.67 434.17 81.33 434.3 81.04H434.55C434.49 81.73 434.59 82.33 434.87 82.85C435.14 83.37 435.55 83.77 436.07 84.05C436.6 84.33 437.22 84.47 437.94 84.45C438.87 84.44 439.59 84.21 440.1 83.77C440.61 83.34 440.86 82.77 440.86 82.09C440.86 81.71 440.77 81.37 440.6 81.06C440.43 80.75 440.14 80.46 439.74 80.17L435.6 77.15C435.07 76.77 434.69 76.32 434.47 75.81C434.25 75.3 434.15 74.78 434.18 74.24C434.21 73.58 434.4 73 434.74 72.49C435.08 71.98 435.54 71.58 436.13 71.29C436.72 71 437.36 70.86 438.07 70.86L438.08 70.85ZM441.52 71.06V71.47H439.62V71.06H441.52Z" fill="#0C2136"/>
<path d="M446.82 83.27C446.65 83.71 446.67 84.06 446.89 84.3C447.1 84.54 447.35 84.67 447.62 84.67H447.8V84.9H443.36V84.67H443.54C443.84 84.67 444.16 84.56 444.5 84.35C444.84 84.14 445.12 83.78 445.37 83.28H446.81L446.82 83.27ZM451.19 70.76L451.33 72.73L446.18 84.83H444.65L450.05 73.25C450.05 73.25 450.12 73.1 450.21 72.9C450.3 72.7 450.4 72.45 450.52 72.18C450.64 71.91 450.74 71.64 450.84 71.38C450.94 71.12 451 70.91 451.01 70.76H451.19ZM453.66 79.84V80.59H447.67V79.84H453.66ZM451.19 70.76L457.64 84.76H455.15L450.48 73.5L451.19 70.75V70.76ZM454.55 83.27H456.98C457.21 83.77 457.49 84.13 457.83 84.34C458.17 84.55 458.49 84.66 458.79 84.66H458.97V84.89H453.59V84.66H453.77C454.03 84.66 454.27 84.54 454.48 84.29C454.69 84.05 454.72 83.7 454.55 83.26V83.27Z" fill="#0C2136"/>
<path d="M461.44 72.61H461.39C461.38 72.26 461.25 71.97 461 71.74C460.75 71.51 460.45 71.4 460.09 71.4H459.77V71.17H461.67L461.44 72.61ZM461.44 83.43L461.67 84.89H459.77V84.66H460.09C460.45 84.66 460.76 84.54 461 84.29C461.24 84.05 461.37 83.76 461.39 83.42H461.44V83.43ZM463.45 71.17V84.89H461.39V71.17H463.45ZM463.41 83.43H463.46C463.47 83.77 463.6 84.06 463.85 84.3C464.1 84.54 464.41 84.67 464.79 84.67H465.09V84.9H463.19L463.42 83.44L463.41 83.43ZM469.49 71.17V71.95H463.4V71.17H469.49ZM468.42 77.67V78.45H463.41V77.67H468.42ZM469.49 70.81V71.4L466.93 71.17C467.23 71.17 467.56 71.15 467.9 71.11C468.24 71.07 468.56 71.02 468.85 70.96C469.14 70.9 469.35 70.85 469.49 70.8V70.81ZM468.42 76.18V77.71H466.96V77.66C467.37 77.66 467.68 77.54 467.87 77.29C468.07 77.05 468.17 76.76 468.17 76.42V76.17H468.42V76.18ZM468.42 78.4V79.93H468.17V79.68C468.17 79.33 468.07 79.04 467.87 78.8C467.67 78.56 467.37 78.45 466.96 78.45V78.41H468.42V78.4ZM469.49 71.88V73.76H469.24V73.46C469.24 73.02 469.11 72.66 468.85 72.37C468.59 72.09 468.23 71.95 467.78 71.95V71.88H469.5H469.49Z" fill="#0C2136"/>
<path d="M473.68 72.64H473.61C473.59 72.29 473.44 72 473.16 71.76C472.88 71.52 472.53 71.41 472.12 71.41H471.82V71.18H473.67V72.64H473.68ZM473.68 83.43V84.89H471.83V84.66H472.15C472.54 84.66 472.88 84.54 473.17 84.29C473.45 84.05 473.6 83.76 473.62 83.42H473.69L473.68 83.43ZM475.67 71.17V84.89H473.61V71.17H475.67ZM475.6 72.64V71.18H477.45L477.43 71.41H477.16C476.75 71.41 476.4 71.53 476.12 71.76C475.84 72 475.69 72.29 475.67 72.64H475.6ZM475.6 83.43H475.67C475.68 83.77 475.83 84.06 476.12 84.3C476.4 84.54 476.75 84.67 477.16 84.67H477.43L477.45 84.9H475.6V83.44V83.43Z" fill="#0C2136"/>
<path d="M487.08 70.85C488.21 70.85 489.25 71.02 490.2 71.37C491.15 71.71 491.98 72.2 492.69 72.83C493.4 73.46 493.95 74.22 494.35 75.09C494.75 75.97 494.95 76.95 494.95 78.03C494.95 79.11 494.75 80.09 494.35 80.97C493.95 81.85 493.4 82.6 492.69 83.23C491.98 83.86 491.15 84.35 490.2 84.69C489.25 85.03 488.21 85.2 487.08 85.2C485.95 85.2 484.94 85.03 483.99 84.69C483.04 84.35 482.21 83.86 481.5 83.23C480.78 82.6 480.23 81.84 479.84 80.97C479.45 80.09 479.26 79.11 479.26 78.03C479.26 76.95 479.45 75.97 479.84 75.09C480.23 74.21 480.78 73.46 481.5 72.83C482.22 72.2 483.05 71.71 483.99 71.37C484.93 71.03 485.96 70.85 487.08 70.85ZM487.08 84.46C488.15 84.46 489.1 84.19 489.94 83.65C490.78 83.11 491.44 82.36 491.92 81.4C492.4 80.44 492.64 79.32 492.64 78.04C492.64 76.76 492.4 75.62 491.92 74.67C491.44 73.72 490.78 72.97 489.94 72.43C489.1 71.89 488.15 71.62 487.08 71.62C486.01 71.62 485.11 71.89 484.27 72.43C483.43 72.97 482.77 73.72 482.28 74.67C481.79 75.62 481.55 76.75 481.55 78.04C481.55 79.33 481.79 80.44 482.28 81.4C482.77 82.36 483.43 83.11 484.27 83.65C485.11 84.19 486.05 84.46 487.08 84.46Z" fill="#0C2136"/>
<path d="M501.36 70.85C501.76 70.85 502.13 70.86 502.49 70.9C502.85 70.94 503.18 70.96 503.47 71C503.77 71.04 504.03 71.08 504.26 71.14C504.49 71.19 504.66 71.24 504.79 71.29L504.72 73.74H504.47C504.47 73.08 504.24 72.57 503.79 72.2C503.34 71.83 502.66 71.64 501.76 71.64C501 71.64 500.36 71.83 499.85 72.22C499.34 72.61 499.08 73.09 499.08 73.67C499.08 73.9 499.12 74.12 499.19 74.32C499.27 74.53 499.39 74.72 499.56 74.92C499.73 75.11 499.93 75.3 500.18 75.48L504.46 78.61C504.9 78.9 505.24 79.29 505.47 79.79C505.7 80.29 505.81 80.82 505.79 81.38C505.79 82.11 505.59 82.77 505.2 83.36C504.81 83.95 504.27 84.4 503.6 84.73C502.93 85.06 502.17 85.22 501.31 85.22C500.79 85.22 500.27 85.17 499.74 85.08C499.21 84.99 498.74 84.86 498.31 84.69C497.88 84.52 497.53 84.32 497.26 84.1C497.2 83.86 497.17 83.55 497.17 83.19C497.17 82.83 497.21 82.45 497.28 82.06C497.36 81.67 497.45 81.33 497.58 81.04H497.83C497.77 81.73 497.88 82.33 498.15 82.85C498.42 83.37 498.83 83.77 499.35 84.05C499.88 84.33 500.5 84.47 501.21 84.45C502.14 84.44 502.86 84.21 503.37 83.77C503.88 83.33 504.14 82.77 504.14 82.09C504.14 81.71 504.05 81.37 503.88 81.06C503.7 80.75 503.42 80.46 503.02 80.17L498.88 77.15C498.35 76.77 497.97 76.32 497.75 75.81C497.53 75.3 497.43 74.78 497.46 74.24C497.49 73.58 497.68 73 498.02 72.49C498.36 71.98 498.82 71.58 499.41 71.29C500 71 500.64 70.86 501.35 70.86L501.36 70.85ZM504.79 71.06V71.47H502.89V71.06H504.79Z" fill="#0C2136"/>
<path d="M515.42 72.61H515.38C515.36 72.26 515.24 71.97 515 71.74C514.76 71.51 514.46 71.4 514.1 71.4H513.78V71.17H515.68L515.43 72.61H515.42ZM515.42 83.43L515.67 84.89H513.77V84.66H514.09C514.45 84.66 514.76 84.54 514.99 84.29C515.23 84.05 515.35 83.76 515.37 83.42H515.41L515.42 83.43ZM517.46 71.17V84.89H515.38V71.17H517.46ZM523.41 71.17V71.95H517.42V71.17H523.41ZM522.38 77.67V78.45H517.42V77.67H522.38ZM523.34 84.12L523.5 84.9H517.42V84.12H523.34ZM524.69 81.31L523.57 84.9H519.93L520.68 84.12C521.4 84.12 522 84 522.47 83.77C522.95 83.53 523.35 83.2 523.67 82.77C523.99 82.34 524.25 81.86 524.45 81.31H524.68H524.69ZM523.41 70.81V71.4L520.87 71.17C521.34 71.17 521.84 71.13 522.36 71.04C522.88 70.96 523.23 70.88 523.41 70.8V70.81ZM522.38 76.18V77.71H520.92V77.66C521.32 77.66 521.62 77.54 521.82 77.29C522.02 77.04 522.13 76.76 522.13 76.42V76.17H522.38V76.18ZM522.38 78.4V79.93H522.13V79.68C522.13 79.33 522.03 79.04 521.82 78.8C521.61 78.56 521.31 78.45 520.92 78.45V78.41H522.38V78.4ZM523.41 71.88V73.76H523.18V73.46C523.18 73.02 523.05 72.66 522.79 72.37C522.53 72.09 522.17 71.95 521.71 71.95V71.88H523.4H523.41Z" fill="#0C2136"/>
<path d="M533.43 83.39V84.9H531.1V84.67H531.42C531.82 84.67 532.16 84.56 532.45 84.34C532.74 84.12 532.91 83.8 532.95 83.39H533.43ZM534.73 70.85H534.96L535.51 72.5L534.09 84.9H532.76L534.73 70.85ZM534.2 83.73C534.19 83.93 534.24 84.13 534.36 84.35C534.48 84.56 534.7 84.68 535.02 84.69H535.34V84.9H534.01L534.06 83.73H534.2ZM534.96 70.85L541.37 82.22L540.59 85.26L534.48 74.28L534.96 70.85ZM547.04 70.85L547.25 72.63L541.62 82.92C541.38 83.42 541.19 83.85 541.07 84.21C540.95 84.57 540.86 84.91 540.82 85.25H540.59L540.09 83.65L547.04 70.84V70.85ZM547.24 70.85L549.3 84.9H546.97L545.6 74.45L547.04 70.86H547.25L547.24 70.85ZM546.81 83.73H546.97L547.01 84.9H545.66V84.69H546C546.34 84.68 546.56 84.56 546.67 84.35C546.79 84.14 546.83 83.93 546.8 83.73H546.81ZM548.62 83.39H549.08C549.14 83.8 549.32 84.12 549.62 84.34C549.92 84.56 550.26 84.67 550.64 84.67H550.96V84.9H548.63V83.39H548.62Z" fill="#0C2136"/>
<path d="M553.08 71.17V72.38H553.04C553.03 72.09 552.91 71.85 552.71 71.67C552.5 71.49 552.25 71.39 551.94 71.39H551.62V71.16H553.08V71.17ZM555.09 71.17V79.82C555.09 81.27 555.45 82.41 556.18 83.24C556.91 84.07 557.89 84.49 559.14 84.49C560.51 84.49 561.59 84.1 562.37 83.31C563.15 82.52 563.54 81.45 563.54 80.07V71.17H564.75V80.02C564.75 81.62 564.24 82.89 563.23 83.82C562.21 84.75 560.81 85.21 559.03 85.21C557.12 85.21 555.65 84.75 554.6 83.83C553.56 82.91 553.03 81.65 553.03 80.04V71.16H555.09V71.17ZM556.51 71.17V71.4H556.17C555.88 71.4 555.63 71.49 555.42 71.68C555.21 71.86 555.1 72.1 555.1 72.39H555.06V71.18H556.52L556.51 71.17ZM563.58 71.17V72.38H563.53C563.53 72.09 563.42 71.85 563.21 71.67C563 71.49 562.74 71.39 562.46 71.39H562.12V71.16H563.58V71.17ZM566.14 71.17V71.4H565.82C565.53 71.4 565.28 71.49 565.06 71.68C564.85 71.86 564.74 72.1 564.74 72.39H564.69V71.18H566.13L566.14 71.17Z" fill="#0C2136"/>
<path d="M569.8 72.64H569.73C569.71 72.29 569.56 72 569.28 71.76C569 71.52 568.65 71.41 568.24 71.41H567.94V71.18H569.79V72.64H569.8ZM569.8 83.43V84.89H567.95V84.66H568.27C568.66 84.66 569 84.54 569.29 84.29C569.57 84.05 569.72 83.76 569.74 83.42H569.81L569.8 83.43ZM571.79 71.17V84.89H569.73V71.17H571.79ZM571.72 72.64V71.18H573.57L573.55 71.41H573.27C572.86 71.41 572.51 71.53 572.23 71.76C571.95 72 571.8 72.29 571.78 72.64H571.71H571.72ZM571.72 83.43H571.79C571.8 83.77 571.95 84.06 572.24 84.3C572.52 84.54 572.87 84.67 573.28 84.67H573.56L573.58 84.9H571.73V83.44L571.72 83.43Z" fill="#0C2136"/>
<path d="M574.95 70.78C575.09 70.83 575.3 70.88 575.58 70.94C575.86 71 576.18 71.05 576.52 71.09C576.86 71.13 577.18 71.15 577.47 71.15L574.96 71.38V70.79L574.95 70.78ZM587.76 71.15V71.9H574.95V71.15H587.76ZM576.66 71.86V71.91C576.2 71.92 575.84 72.07 575.59 72.34C575.33 72.61 575.2 72.97 575.2 73.41V73.71H574.95V71.86H576.67H576.66ZM580.34 83.43V84.89H578.71V84.66H578.99C579.34 84.66 579.64 84.54 579.89 84.29C580.14 84.05 580.27 83.76 580.29 83.42H580.34V83.43ZM582.4 71.24V84.9H580.3V71.24H582.4ZM582.33 83.43H582.4C582.4 83.77 582.53 84.06 582.79 84.3C583.05 84.54 583.35 84.67 583.7 84.67H583.95V84.9H582.32V83.44L582.33 83.43ZM587.76 70.78V71.37L585.24 71.14C585.53 71.14 585.85 71.12 586.19 71.08C586.53 71.04 586.85 70.99 587.13 70.93C587.41 70.87 587.62 70.82 587.76 70.77V70.78ZM587.76 71.86V73.71H587.51V73.41C587.51 72.97 587.38 72.61 587.12 72.34C586.86 72.07 586.5 71.92 586.05 71.91V71.86H587.77H587.76Z" fill="#0C2136"/>
<path d="M589.68 83.27C589.51 83.71 589.54 84.06 589.75 84.3C589.96 84.54 590.21 84.67 590.48 84.67H590.66V84.9H586.22V84.67H586.4C586.71 84.67 587.03 84.56 587.36 84.35C587.7 84.14 587.99 83.78 588.23 83.28H589.67L589.68 83.27ZM594.05 70.76L594.19 72.73L589.04 84.83H587.51L592.91 73.25C592.91 73.25 592.98 73.1 593.07 72.9C593.16 72.7 593.27 72.45 593.38 72.18C593.49 71.91 593.6 71.64 593.7 71.38C593.8 71.12 593.86 70.91 593.87 70.76H594.05ZM596.52 79.84V80.59H590.53V79.84H596.52ZM594.05 70.76L600.5 84.76H598.01L593.34 73.5L594.05 70.75V70.76ZM597.41 83.27H599.84C600.07 83.77 600.35 84.13 600.69 84.34C601.03 84.55 601.35 84.66 601.65 84.66H601.83V84.89H596.45V84.66H596.63C596.89 84.66 597.13 84.54 597.34 84.29C597.55 84.05 597.58 83.7 597.41 83.26V83.27Z" fill="#0C2136"/>
<path d="M609.97 72.64H609.93C609.91 72.29 609.78 72 609.53 71.76C609.28 71.52 608.98 71.41 608.63 71.41H608.36V71.18H609.98V72.64H609.97ZM609.99 83.41V84.9H608.34V84.67H608.64C608.99 84.67 609.29 84.54 609.54 84.29C609.79 84.04 609.92 83.75 609.92 83.41H609.99ZM612.03 71.17V84.89H609.93V71.17H612.03ZM616.01 71.17C617.57 71.17 618.9 71.44 620.02 71.99C621.14 72.54 622 73.33 622.61 74.36C623.21 75.39 623.51 76.61 623.51 78.03C623.51 79.45 623.21 80.67 622.61 81.69C622.01 82.71 621.15 83.5 620.02 84.06C618.9 84.62 617.56 84.9 616.01 84.9H611.07L611.03 84.15H615.92C617.58 84.15 618.89 83.61 619.83 82.51C620.78 81.42 621.25 79.93 621.25 78.04C621.25 76.15 620.78 74.66 619.83 73.57C618.88 72.48 617.58 71.93 615.92 71.93H610.8V71.18H616.01V71.17Z" fill="#0C2136"/>
<path d="M627.17 72.64H627.1C627.09 72.29 626.94 72 626.65 71.76C626.37 71.52 626.02 71.41 625.61 71.41H625.31V71.18H627.16V72.64H627.17ZM627.17 83.43V84.89H625.32V84.66H625.64C626.04 84.66 626.37 84.54 626.66 84.29C626.94 84.05 627.09 83.76 627.11 83.42H627.18L627.17 83.43ZM629.16 71.17V84.89H627.1V71.17H629.16ZM629.09 72.64V71.18H630.94L630.92 71.41H630.64C630.23 71.41 629.88 71.53 629.6 71.76C629.32 72 629.17 72.29 629.15 72.64H629.08H629.09ZM629.09 83.43H629.16C629.17 83.77 629.32 84.06 629.61 84.3C629.89 84.54 630.24 84.67 630.65 84.67H630.93L630.95 84.9H629.1V83.44L629.09 83.43Z" fill="#0C2136"/>
<path d="M636.18 72.8H633.75C633.52 72.3 633.24 71.94 632.9 71.72C632.56 71.51 632.24 71.4 631.94 71.4H631.78V71.17H637.13V71.4H636.95C636.69 71.4 636.46 71.52 636.25 71.77C636.04 72.01 636.02 72.36 636.17 72.8H636.18ZM639.5 85.22L633.07 71.31H635.56L640.2 82.45L639.49 85.22H639.5ZM639.5 85.22L639.36 83.28L644.51 71.25H646.04L640.66 82.71C640.66 82.71 640.59 82.86 640.5 83.05C640.41 83.25 640.31 83.49 640.19 83.77C640.07 84.05 639.97 84.32 639.87 84.58C639.77 84.84 639.71 85.05 639.7 85.22H639.49H639.5ZM643.87 72.8C644.04 72.36 644.02 72.01 643.8 71.77C643.58 71.53 643.34 71.4 643.07 71.4H642.91V71.17H647.33V71.4H647.15C646.83 71.4 646.5 71.51 646.17 71.72C645.83 71.93 645.55 72.29 645.32 72.8H643.88H643.87Z" fill="#0C2136"/>
<path d="M649.82 72.61H649.77C649.76 72.26 649.63 71.97 649.39 71.74C649.15 71.51 648.85 71.4 648.49 71.4H648.17V71.17H650.07L649.82 72.61ZM649.82 83.43L650.07 84.89H648.17V84.66H648.49C648.86 84.66 649.16 84.54 649.39 84.29C649.63 84.05 649.75 83.76 649.77 83.42H649.82V83.43ZM651.85 71.17V84.89H649.77V71.17H651.85ZM657.8 71.17V71.95H651.81V71.17H657.8ZM656.77 77.67V78.45H651.81V77.67H656.77ZM657.73 84.12L657.89 84.9H651.8V84.12H657.72H657.73ZM659.08 81.31L657.96 84.9H654.32L655.07 84.12C655.79 84.12 656.39 84 656.87 83.77C657.35 83.53 657.75 83.2 658.07 82.77C658.39 82.34 658.65 81.86 658.85 81.31H659.08ZM657.8 70.81V71.4L655.26 71.17C655.73 71.17 656.23 71.13 656.75 71.04C657.27 70.96 657.62 70.88 657.8 70.8V70.81ZM656.77 76.18V77.71H655.31V77.66C655.7 77.66 656.01 77.54 656.21 77.29C656.41 77.05 656.52 76.76 656.52 76.42V76.17H656.77V76.18ZM656.77 78.4V79.93H656.52V79.68C656.52 79.33 656.42 79.04 656.21 78.8C656 78.56 655.7 78.45 655.31 78.45V78.41H656.77V78.4ZM657.8 71.88V73.76H657.57V73.46C657.57 73.02 657.44 72.66 657.18 72.37C656.92 72.09 656.56 71.95 656.11 71.95V71.88H657.8Z" fill="#0C2136"/>
<path d="M662.31 72.61H662.26C662.25 72.26 662.12 71.97 661.87 71.74C661.63 71.51 661.33 71.4 660.98 71.4H660.66V71.17H662.51L662.3 72.61H662.31ZM662.31 83.43L662.52 84.89H660.67V84.66H660.99C661.34 84.66 661.64 84.54 661.88 84.29C662.13 84.05 662.25 83.76 662.27 83.42H662.32L662.31 83.43ZM664.32 71.17V84.89H662.24V71.17H664.32ZM664.25 83.43H664.32C664.32 83.78 664.44 84.07 664.7 84.31C664.95 84.55 665.25 84.66 665.6 84.66H665.87L665.89 84.89H664.01L664.24 83.43H664.25ZM666.83 71.17C667.52 71.17 668.15 71.25 668.73 71.4C669.31 71.55 669.81 71.79 670.24 72.1C670.66 72.41 671 72.8 671.23 73.27C671.47 73.74 671.58 74.28 671.58 74.9C671.58 75.52 671.44 76.06 671.17 76.61C670.9 77.15 670.5 77.6 669.98 77.97C669.46 78.34 668.85 78.57 668.15 78.66C668.47 78.77 668.81 79.01 669.18 79.39C669.54 79.77 669.84 80.14 670.07 80.49C670.1 80.52 670.21 80.67 670.39 80.94C670.57 81.21 670.8 81.53 671.09 81.9C671.37 82.27 671.66 82.64 671.95 83.01C672.27 83.38 672.56 83.68 672.81 83.93C673.06 84.17 673.33 84.36 673.62 84.49C673.91 84.62 674.24 84.68 674.63 84.68V84.91H673.53C672.69 84.91 672 84.82 671.45 84.64C670.9 84.46 670.44 84.21 670.08 83.89C669.72 83.57 669.39 83.22 669.12 82.84C669.03 82.73 668.88 82.53 668.69 82.22C668.49 81.92 668.28 81.59 668.06 81.25C667.84 80.91 667.64 80.59 667.45 80.3C667.27 80.01 667.15 79.82 667.11 79.73C666.83 79.3 666.53 78.95 666.18 78.67C665.83 78.39 665.48 78.25 665.12 78.25V78.02C665.52 78.03 665.87 78.03 666.17 78.02C666.57 78.01 666.96 77.96 667.35 77.89C667.74 77.82 668.1 77.64 668.43 77.34C668.77 77.04 669.03 76.57 669.21 75.93C669.25 75.79 669.29 75.62 669.32 75.42C669.35 75.22 669.36 74.99 669.34 74.74C669.31 74.27 669.22 73.86 669.07 73.53C668.92 73.19 668.71 72.92 668.44 72.69C668.17 72.47 667.88 72.3 667.55 72.19C667.22 72.08 666.87 72.01 666.49 72C665.93 71.99 665.43 71.98 664.99 71.99C664.56 71.99 664.32 71.99 664.27 71.98C664.19 71.72 664.12 71.46 664.04 71.2H666.83V71.17Z" fill="#0C2136"/>
<path d="M679.51 70.85C679.91 70.85 680.28 70.86 680.64 70.9C681 70.94 681.33 70.96 681.62 71C681.92 71.04 682.18 71.08 682.41 71.14C682.64 71.19 682.81 71.24 682.94 71.29L682.87 73.74H682.62C682.62 73.08 682.4 72.57 681.95 72.2C681.5 71.83 680.82 71.64 679.92 71.64C679.16 71.64 678.52 71.83 678.01 72.22C677.5 72.61 677.25 73.09 677.25 73.67C677.25 73.9 677.29 74.12 677.36 74.32C677.43 74.53 677.56 74.72 677.72 74.92C677.89 75.11 678.09 75.3 678.34 75.48L682.62 78.61C683.06 78.9 683.4 79.29 683.63 79.79C683.86 80.29 683.97 80.82 683.95 81.38C683.95 82.11 683.75 82.77 683.35 83.36C682.95 83.95 682.42 84.4 681.75 84.73C681.08 85.06 680.32 85.22 679.46 85.22C678.94 85.22 678.42 85.17 677.89 85.08C677.36 84.99 676.89 84.86 676.46 84.69C676.03 84.52 675.68 84.32 675.41 84.1C675.35 83.86 675.32 83.55 675.32 83.19C675.32 82.83 675.36 82.45 675.44 82.06C675.51 81.67 675.61 81.33 675.74 81.04H675.99C675.93 81.73 676.03 82.33 676.31 82.85C676.58 83.37 676.99 83.77 677.51 84.05C678.04 84.33 678.66 84.47 679.37 84.45C680.3 84.44 681.02 84.21 681.53 83.77C682.04 83.34 682.29 82.77 682.29 82.09C682.29 81.71 682.2 81.37 682.03 81.06C681.86 80.75 681.57 80.46 681.17 80.17L677.03 77.15C676.5 76.77 676.12 76.32 675.9 75.81C675.68 75.3 675.58 74.78 675.61 74.24C675.64 73.58 675.83 73 676.17 72.49C676.51 71.98 676.97 71.58 677.56 71.29C678.15 71 678.79 70.86 679.5 70.86L679.51 70.85ZM682.94 71.06V71.47H681.04V71.06H682.94Z" fill="#0C2136"/>
<path d="M688.24 83.27C688.07 83.71 688.1 84.06 688.31 84.3C688.52 84.54 688.77 84.67 689.04 84.67H689.22V84.9H684.78V84.67H684.96C685.27 84.67 685.59 84.56 685.92 84.35C686.26 84.14 686.55 83.78 686.79 83.28H688.23L688.24 83.27ZM692.62 70.76L692.76 72.73L687.61 84.83H686.08L691.48 73.25C691.48 73.25 691.55 73.1 691.64 72.9C691.73 72.7 691.84 72.45 691.95 72.18C692.06 71.91 692.17 71.64 692.27 71.38C692.37 71.12 692.43 70.91 692.44 70.76H692.62ZM695.08 79.84V80.59H689.09V79.84H695.08ZM689.66 69.64H689.89C689.98 69.43 690.09 69.24 690.22 69.09C690.35 68.94 690.51 68.82 690.7 68.75C690.89 68.67 691.09 68.64 691.31 68.66C691.62 68.67 691.92 68.77 692.24 68.93C692.56 69.09 692.88 69.27 693.23 69.43C693.57 69.6 693.92 69.69 694.27 69.7C694.55 69.7 694.79 69.64 695 69.52C695.21 69.4 695.39 69.24 695.54 69.04C695.68 68.84 695.79 68.61 695.87 68.34C695.95 68.07 695.98 67.8 695.98 67.53H695.75C695.69 67.68 695.59 67.83 695.45 67.97C695.31 68.11 695.15 68.21 694.96 68.28C694.77 68.35 694.56 68.38 694.33 68.36C694.01 68.35 693.69 68.25 693.38 68.07C693.07 67.89 692.75 67.73 692.42 67.57C692.09 67.41 691.74 67.33 691.36 67.33C691.1 67.33 690.87 67.4 690.66 67.52C690.45 67.65 690.28 67.82 690.14 68.04C690 68.26 689.89 68.5 689.81 68.77C689.73 69.04 689.68 69.33 689.66 69.64ZM692.62 70.76L699.07 84.76H696.58L691.91 73.5L692.62 70.75V70.76ZM695.98 83.27H698.41C698.64 83.77 698.92 84.13 699.26 84.34C699.6 84.55 699.92 84.66 700.22 84.66H700.4V84.89H695.02V84.66H695.2C695.46 84.66 695.7 84.54 695.91 84.29C696.12 84.05 696.15 83.7 695.98 83.26V83.27Z" fill="#0C2136"/>
<path d="M708.6 70.85C709.73 70.85 710.77 71.02 711.72 71.37C712.67 71.71 713.5 72.2 714.21 72.83C714.92 73.46 715.47 74.22 715.87 75.09C716.27 75.97 716.47 76.95 716.47 78.03C716.47 79.11 716.27 80.09 715.87 80.97C715.47 81.85 714.92 82.6 714.21 83.23C713.5 83.86 712.67 84.35 711.72 84.69C710.77 85.03 709.73 85.2 708.6 85.2C707.47 85.2 706.46 85.03 705.51 84.69C704.56 84.35 703.73 83.86 703.02 83.23C702.3 82.6 701.75 81.84 701.36 80.97C700.97 80.09 700.78 79.11 700.78 78.03C700.78 76.95 700.98 75.97 701.36 75.09C701.75 74.21 702.3 73.46 703.02 72.83C703.73 72.2 704.57 71.71 705.51 71.37C706.46 71.03 707.49 70.85 708.6 70.85ZM708.6 84.46C709.67 84.46 710.62 84.19 711.46 83.65C712.3 83.11 712.96 82.36 713.44 81.4C713.92 80.44 714.16 79.32 714.16 78.04C714.16 76.76 713.92 75.62 713.44 74.67C712.96 73.72 712.3 72.97 711.46 72.43C710.62 71.89 709.67 71.62 708.6 71.62C707.53 71.62 706.63 71.89 705.79 72.43C704.95 72.97 704.29 73.72 703.8 74.67C703.31 75.62 703.07 76.75 703.07 78.04C703.07 79.33 703.31 80.44 703.8 81.4C704.29 82.36 704.95 83.11 705.79 83.65C706.63 84.19 707.56 84.46 708.6 84.46Z" fill="#0C2136"/>
<path d="M175.01 51.26C175.01 51.26 167.38 50.93 162.43 50.85C157.48 50.77 145.71 50.85 145.71 50.85C144.17 50.85 142.22 51.01 139.38 51.26L138.24 51.34L138.32 49.47C138.65 49.47 138.81 49.47 139.21 49.39C143.19 48.99 144.49 47.85 144.49 44.6V6.77C144.49 3.52 143.19 2.39 139.21 1.98C138.8 1.9 138.64 1.9 138.32 1.9L138.24 0.0299988L139.38 0.109999C142.22 0.349999 144.17 0.519999 145.71 0.519999H174.86L176.4 12.54H174.7C173.24 7.02 172.67 6.7 167.72 6.61L154.08 6.45V20.33H172.35V25.85H154.08V40.06C154.08 44.53 154.32 44.77 158.22 44.77H166.09C172.1 44.77 173.32 43.15 176.56 38.2L178.59 38.04C175.67 43.32 175.83 48.19 175.02 51.27L175.01 51.26Z" fill="#0C2136"/>
<path d="M276.88 35.75C275.26 35.75 273.71 35.59 272.5 35.51V44.6C272.5 47.85 272.99 48.98 276.97 49.39C277.38 49.47 277.54 49.47 277.86 49.47L277.94 51.34L276.8 51.26C273.96 51.02 272.82 50.85 271.28 50.85H264.95C263.41 50.85 262.27 51.01 259.43 51.26L258.29 51.34L258.37 49.47C258.7 49.47 258.86 49.47 259.26 49.39C263.24 48.99 263.72 47.85 263.72 44.6V21.38C263.72 18.13 263.23 17 259.26 16.59C258.85 16.51 258.69 16.51 258.37 16.51L258.29 14.64L259.43 14.72C262.27 14.96 263.41 15.12 264.95 15.12C264.95 15.12 275.34 14.88 278.26 14.88C286.46 14.88 291.33 19.02 291.33 23.97C291.33 30.95 284.43 35.74 276.88 35.74V35.75ZM275.99 18.62C273.88 18.62 272.5 18.7 272.5 20.57V32.75C272.5 32.75 274.37 32.91 275.42 32.91C279.24 32.91 282.56 30.07 282.56 25.44C282.56 21.87 280.45 18.62 275.98 18.62H275.99Z" fill="#0C2136"/>
<path d="M316.74 11.3H313.93L317.74 0H327.57L316.74 11.3Z" fill="#EA605D"/>
<path d="M554.49 11.3H551.68L555.49 0H565.32L554.49 11.3Z" fill="#ED8C3F"/>
<path d="M393.72 59.29C376.02 59.29 361.33 39.4 357.76 36.56C357.52 36.32 356.7 36.07 355.81 35.67C354.84 35.67 353.94 35.59 353.13 35.51V44.6C353.13 47.85 353.62 48.98 357.6 49.39C358.01 49.47 358.17 49.47 358.49 49.47L358.57 51.34L357.43 51.26C354.59 51.02 353.45 50.85 351.91 50.85H345.58C344.04 50.85 342.9 51.01 340.06 51.26L338.92 51.34L339 49.47C339.33 49.47 339.49 49.47 339.89 49.39C343.87 48.99 344.35 47.85 344.35 44.6V21.38C344.35 18.13 343.86 17 339.89 16.59C339.48 16.51 339.32 16.51 339 16.51L338.92 14.64L340.06 14.72C342.9 14.96 344.04 15.12 345.58 15.12C345.58 15.12 355.97 14.88 358.89 14.88C367.09 14.88 371.96 19.02 371.96 23.97C371.96 28.35 369.2 31.85 365.3 33.87C370.74 38.74 380.72 52.87 391.2 56.52C394.69 57.74 399.32 57.74 402.65 56.36C402 57.9 398.43 59.28 393.72 59.28V59.29ZM356.62 18.62C354.51 18.62 353.13 18.7 353.13 20.57V32.75C353.13 32.75 355 32.91 356.05 32.91C359.87 32.91 363.19 30.07 363.19 25.44C363.19 21.87 361.08 18.62 356.61 18.62H356.62Z" fill="#0C2136"/>
<path d="M519.4 51.42C519.4 51.42 503.24 50.85 496.75 50.85H489.61C488.07 50.85 486.12 51.01 483.28 51.26L482.14 51.34L482.22 49.47C482.55 49.47 482.71 49.47 483.11 49.39C487.09 48.99 488.39 47.85 488.39 44.6V6.77C488.39 3.52 487.09 2.39 483.11 1.98C482.7 1.9 482.54 1.9 482.22 1.9L482.14 0.0299988L483.28 0.109999C486.12 0.349999 488.07 0.519999 489.61 0.519999H496.75C498.29 0.519999 500.24 0.359999 503.08 0.109999L504.22 0.0299988L504.14 1.9C503.81 1.9 503.65 1.9 503.25 1.98C499.27 2.39 497.97 3.52 497.97 6.77V40.06C497.97 44.53 498.21 44.77 502.11 44.77H509.74C515.75 44.77 516.56 44.45 520.62 39.25L523.22 35.84H525.57C521.51 41.28 520.21 48.34 519.4 51.43V51.42Z" fill="#0C2136"/>
<path d="M607.8 51.01C601.31 51.01 592.62 50.85 592.62 50.85C591.08 50.85 589.94 51.01 587.1 51.26L585.96 51.34L586.04 49.47C586.36 49.47 586.53 49.47 586.93 49.39C590.91 48.99 591.4 47.85 591.4 44.6V21.38C591.4 18.13 590.91 17 586.93 16.59C586.52 16.51 586.36 16.51 586.04 16.51L585.96 14.64L587.1 14.72C589.94 14.96 591.08 15.12 592.62 15.12C592.62 15.12 603.42 14.88 607.8 14.88C618.36 14.88 626.96 21.86 626.96 32.33C626.96 42.8 618.92 51 607.8 51V51.01ZM606.34 19.59C605.45 19.59 601.23 19.75 600.17 19.83V42.07C600.17 45.16 601.23 46.05 606.34 46.05C613.08 46.05 617.87 39.64 617.87 32.41C617.87 24.7 612.59 19.58 606.34 19.58V19.59Z" fill="#0C2136"/>
<path d="M575 16.51C574.68 16.51 574.51 16.51 574.11 16.59C570.13 17 569.65 18.13 569.65 21.38V22.27C569.65 35.75 562.99 46.63 552.93 52.47C543.03 46.63 536.45 35.67 536.45 22.27V21.38C536.45 18.13 535.96 17 531.98 16.59C531.58 16.51 531.41 16.51 531.09 16.51L531.01 14.64L532.15 14.72C534.99 14.96 536.13 15.12 537.67 15.12H544C545.54 15.12 546.68 14.96 549.52 14.72L550.66 14.64L550.58 16.51C550.26 16.51 550.09 16.51 549.69 16.59C545.87 17 545.31 18.05 545.23 20.97C545.31 38.1 548.15 43.62 553.02 47.27C557.89 43.62 560.81 38.1 560.89 20.97C560.81 18.05 560.24 16.99 556.42 16.59C556.02 16.51 555.85 16.51 555.53 16.51L555.45 14.64L556.59 14.72C559.43 14.96 560.57 15.12 562.11 15.12H568.44C569.98 15.12 571.12 14.96 573.96 14.72L575.1 14.64L575.02 16.51H575Z" fill="#ED8C3F"/>
<path d="M553.36 37.36H552.72C551.82 35.31 550.48 33.96 548.43 33.07V32.43C550.48 31.53 551.83 30.19 552.72 28.14H553.36C554.26 30.19 555.6 31.54 557.65 32.43V33.07C555.6 33.97 554.25 35.31 553.36 37.36Z" fill="#ED8C3F"/>
<path d="M324.5 24.06C327.42 27.12 330.33 30.18 333.26 33.22C333.56 33.54 333.54 33.7 333.24 33.99C327.24 39.7 321.25 45.41 315.27 51.13C314.97 51.42 314.8 51.43 314.5 51.11C308.67 44.99 302.83 38.88 296.99 32.77C296.69 32.46 296.69 32.29 296.99 32C302.98 26.29 308.97 20.57 314.94 14.84C315.27 14.52 315.44 14.56 315.74 14.88C318.65 17.95 321.57 21 324.49 24.05L324.5 24.06ZM323.35 26.99C320.63 24.14 317.96 21.35 315.3 18.56C314.58 19.25 313.88 19.91 313.15 20.61C314.92 22.46 316.66 24.29 318.44 26.15C315.97 28.51 313.53 30.84 311.06 33.2L312.88 35.11C312.2 35.76 311.56 36.37 310.92 36.98C309.65 35.65 308.41 34.35 307.13 33.01C309.57 30.68 311.99 28.37 314.41 26.06C313.28 24.88 312.18 23.73 311.07 22.56C309.29 24.26 307.55 25.93 305.76 27.63L307.53 29.48C306.85 30.13 306.21 30.74 305.53 31.39C304.94 30.77 304.36 30.17 303.76 29.54C303.6 29.67 303.48 29.77 303.36 29.88C302.57 30.63 301.8 31.39 301 32.12C300.68 32.41 300.66 32.6 300.98 32.93C303.81 35.87 306.62 38.82 309.43 41.77C309.55 41.89 309.68 42 309.84 42.14C312.63 39.47 315.39 36.84 318.16 34.2C319.52 35.62 320.85 37.01 322.19 38.41C321.52 39.05 320.87 39.67 320.18 40.33L318.11 38.17C315.98 40.2 313.9 42.19 311.79 44.2C311.91 44.33 312 44.45 312.1 44.56C312.92 45.42 313.75 46.26 314.55 47.14C314.85 47.46 315.06 47.49 315.32 47.16C315.35 47.13 315.38 47.1 315.41 47.07C320.01 42.66 324.61 38.26 329.21 33.85C329.32 33.74 329.43 33.62 329.55 33.49C328.12 31.99 326.72 30.53 325.27 29.01C324.04 30.19 322.83 31.34 321.61 32.5C320.95 31.81 320.33 31.16 319.68 30.48C320.9 29.31 322.11 28.16 323.33 27L323.35 26.99Z" fill="#EA605D"/>
<path d="M440.53 24.06C443.45 27.12 446.36 30.18 449.29 33.22C449.59 33.54 449.57 33.7 449.27 33.99C443.27 39.7 437.28 45.41 431.3 51.13C431 51.42 430.83 51.43 430.53 51.11C424.7 44.99 418.86 38.88 413.02 32.77C412.72 32.46 412.72 32.29 413.02 32C419.01 26.29 425 20.57 430.97 14.84C431.3 14.52 431.47 14.56 431.77 14.88C434.68 17.95 437.6 21 440.52 24.05L440.53 24.06ZM439.38 26.99C436.66 24.14 433.99 21.35 431.33 18.56C430.61 19.25 429.91 19.91 429.18 20.61C430.95 22.46 432.69 24.29 434.47 26.15C432 28.51 429.56 30.84 427.09 33.2C427.72 33.86 428.31 34.48 428.91 35.11L426.95 36.98C425.68 35.65 424.44 34.35 423.16 33.01C425.6 30.68 428.02 28.37 430.44 26.06C429.31 24.88 428.21 23.73 427.1 22.56C425.32 24.26 423.58 25.93 421.79 27.63L423.56 29.48C422.88 30.13 422.24 30.74 421.56 31.39L419.79 29.54C419.63 29.67 419.51 29.77 419.39 29.88C418.6 30.63 417.83 31.39 417.03 32.12C416.71 32.41 416.69 32.6 417.01 32.93C419.84 35.87 422.65 38.82 425.46 41.77C425.58 41.89 425.71 42 425.87 42.14C428.66 39.47 431.42 36.84 434.19 34.2C435.55 35.62 436.88 37.01 438.22 38.41C437.55 39.05 436.9 39.67 436.21 40.33C435.51 39.59 434.83 38.88 434.14 38.17C432.01 40.2 429.93 42.19 427.82 44.2C427.94 44.33 428.03 44.45 428.13 44.56C428.95 45.42 429.78 46.26 430.58 47.14C430.88 47.46 431.09 47.49 431.35 47.16C431.38 47.13 431.41 47.1 431.44 47.07C436.04 42.66 440.64 38.26 445.24 33.85C445.35 33.74 445.46 33.62 445.58 33.49C444.15 31.99 442.75 30.53 441.3 29.01C440.07 30.19 438.86 31.34 437.64 32.5C436.98 31.81 436.36 31.16 435.71 30.48C436.93 29.31 438.14 28.16 439.36 27L439.38 26.99Z" fill="#EA605D"/>
<path d="M731.38 24.06C734.3 27.12 737.21 30.18 740.14 33.22C740.44 33.54 740.42 33.7 740.12 33.99C734.12 39.7 728.13 45.41 722.15 51.13C721.85 51.42 721.68 51.43 721.38 51.11C715.55 44.99 709.71 38.88 703.87 32.77C703.57 32.46 703.57 32.29 703.87 32C709.86 26.29 715.85 20.57 721.82 14.84C722.15 14.52 722.32 14.56 722.62 14.88C725.53 17.95 728.45 21 731.37 24.05L731.38 24.06ZM730.23 26.99C727.51 24.14 724.84 21.35 722.18 18.56L720.03 20.61C721.8 22.46 723.54 24.29 725.32 26.15C722.85 28.51 720.41 30.84 717.94 33.2C718.57 33.86 719.16 34.48 719.76 35.11C719.08 35.76 718.44 36.37 717.8 36.98C716.53 35.65 715.29 34.35 714.01 33.01C716.45 30.68 718.87 28.37 721.29 26.06C720.16 24.88 719.06 23.73 717.95 22.56C716.17 24.26 714.43 25.93 712.64 27.63C713.24 28.25 713.81 28.86 714.41 29.48C713.73 30.13 713.09 30.74 712.41 31.39L710.64 29.54C710.48 29.67 710.36 29.77 710.24 29.88C709.45 30.63 708.68 31.39 707.88 32.12C707.56 32.41 707.54 32.6 707.86 32.93C710.69 35.87 713.5 38.82 716.31 41.77C716.43 41.89 716.56 42 716.72 42.14C719.51 39.47 722.27 36.84 725.04 34.2C726.4 35.62 727.73 37.01 729.07 38.41C728.4 39.05 727.75 39.67 727.06 40.33L724.99 38.17C722.86 40.2 720.78 42.19 718.67 44.2C718.79 44.33 718.88 44.45 718.98 44.56C719.8 45.42 720.63 46.26 721.43 47.14C721.73 47.46 721.94 47.49 722.2 47.16C722.23 47.13 722.26 47.1 722.29 47.07C726.89 42.66 731.49 38.26 736.09 33.85C736.2 33.74 736.31 33.62 736.43 33.49C735 31.99 733.6 30.53 732.15 29.01C730.92 30.19 729.71 31.34 728.49 32.5C727.83 31.81 727.21 31.16 726.56 30.48C727.78 29.31 728.99 28.16 730.21 27L730.23 26.99Z" fill="#EA605D"/>
<path d="M688.04 48.12C681.02 48.12 675.34 42.43 675.34 35.42C675.34 28.41 681.03 22.72 688.04 22.72C692.2 22.72 695.88 24.73 698.2 27.82C698.2 27.77 698.2 27.74 698.2 27.69C698.2 25.14 698.16 22.59 698.22 20.04C698.24 19 697.87 18.66 696.85 18.68C694.02 18.73 691.2 18.71 688.37 18.69C686.87 18.69 686.39 17.96 686.89 16.54C687.9 13.68 687.32 11.32 685.21 9.68C683.13 8.07 679.94 8.05 677.66 9.64C676.04 10.77 675.2 13.7 675.88 15.82C675.99 16.17 676.17 16.5 676.28 16.86C676.63 17.99 676.16 18.66 674.98 18.67C672.11 18.69 672.35 18.72 669.48 18.66C668.35 18.63 668.03 19.08 668.05 20.13C668.1 22.68 668.09 25.23 668.09 27.78C668.09 29.62 667.23 30.18 665.51 29.54C662.82 28.54 660.03 29.29 658.4 31.45C656.89 33.44 656.9 36.46 658.41 38.46C660.02 40.59 662.83 41.33 665.53 40.34C667.27 39.7 668.1 40.24 668.12 42.08C668.14 44.63 668.15 47.18 668.11 49.73C668.09 50.77 668.4 51.23 669.53 51.2C672.21 51.13 671.78 51.18 674.7 51.18C674.7 51.18 674.7 51.18 674.7 51.17H689.05V51.13C690.2 51.13 691.36 51.13 692.53 51.13C694.06 51.13 695.59 51.18 697.11 51.07C697.5 51.04 698.19 50.54 698.19 50.25C698.24 47.85 698.23 45.44 698.21 43.03C695.89 46.12 692.21 48.12 688.06 48.12H688.04Z" fill="#E9B73E"/>
<path d="M244.07 14.62V16.71H241.54V14.62H237.86V16.71H235.33V14.62H231.65V24.01H229.41V22.36H226.78V24.01H224.66V22.36H222.03V24.01H219.91V22.36H217.28V24.01H215.16V22.36H212.53V24.01H210.41V22.36H207.78V24.01H205.54V14.62H201.86V16.71H199.33V14.62H195.65V16.71H193.12V14.62H189.44V27.31H189.81C189.98 27.31 190.15 27.33 190.42 27.39C194.4 27.8 194.89 28.93 194.89 32.18V44.6C194.89 47.85 194.4 48.98 190.42 49.39C190.01 49.47 189.85 49.47 189.53 49.47L189.45 51.34L190.59 51.26C193.43 51.02 194.57 50.85 196.11 50.85H203.66V35.16C203.66 35 203.68 34.85 203.71 34.71C203.98 32.23 206.2 30.3 208.93 30.3C211.84 30.3 214.21 32.5 214.21 35.22C214.21 35.37 214.18 35.51 214.16 35.66H214.21V44.6C214.21 47.85 213.72 48.98 209.74 49.39C209.34 49.47 209.17 49.47 208.85 49.47L208.77 51.34L209.91 51.26C212.75 51.02 213.89 50.85 215.43 50.85H221.76C223.3 50.85 224.44 51.01 227.28 51.26L228.42 51.34L228.34 49.47C228.02 49.47 227.85 49.47 227.45 49.39C223.47 48.99 222.98 47.85 222.98 44.6V35.75L223.04 35.73C223.02 35.56 222.98 35.39 222.98 35.21C222.98 32.49 225.34 30.29 228.26 30.29C231.18 30.29 233.54 32.49 233.54 35.21C233.54 35.29 233.52 35.36 233.52 35.43C233.52 35.5 233.54 35.56 233.54 35.63V50.84H241.09C242.63 50.84 243.77 51 246.61 51.25L247.75 51.33L247.67 49.46C247.35 49.46 247.18 49.46 246.78 49.38C242.8 48.98 242.31 47.84 242.31 44.59V32.17C242.31 28.92 242.8 27.79 246.78 27.38C247.18 27.3 247.35 27.3 247.67 27.3H247.75V14.62H244.07Z" fill="#4BB0B8"/>
<path d="M642.1 19.99C645.281 19.99 647.86 17.4112 647.86 14.23C647.86 11.0488 645.281 8.47 642.1 8.47C638.919 8.47 636.34 11.0488 636.34 14.23C636.34 17.4112 638.919 19.99 642.1 19.99Z" fill="#6FA260"/>
<path d="M642.1 11.3L651.81 51.2H632.4L642.1 11.3Z" fill="#6FA260"/>
<path d="M397.65 19.99C400.831 19.99 403.41 17.4112 403.41 14.23C403.41 11.0488 400.831 8.47 397.65 8.47C394.469 8.47 391.89 11.0488 391.89 14.23C391.89 17.4112 394.469 19.99 397.65 19.99Z" fill="#6FA260"/>
<path d="M397.65 11.3L407.36 51.2H387.95L397.65 11.3Z" fill="#6FA260"/>
<path d="M64.63 50.64C64.29 50.64 64.12 50.64 63.7 50.72C59.56 51.14 59.05 52.33 59.05 55.71V56.64C59.05 70.67 52.12 81.99 41.64 88.08C31.33 82 24.48 70.59 24.48 56.64V55.71C24.48 52.33 23.97 51.15 19.83 50.72C19.41 50.64 19.24 50.64 18.9 50.64L18.82 48.7L20 48.79C22.96 49.04 24.14 49.21 25.75 49.21H32.34C33.94 49.21 35.13 49.04 38.09 48.79L39.27 48.7L39.19 50.64C38.85 50.64 38.68 50.64 38.26 50.72C34.29 51.14 33.7 52.24 33.61 55.28C33.69 73.11 36.65 78.86 41.72 82.66C46.79 78.86 49.83 73.11 49.92 55.28C49.84 52.24 49.24 51.14 45.27 50.72C44.85 50.64 44.68 50.64 44.34 50.64L44.26 48.7L45.44 48.79C48.4 49.04 49.58 49.21 51.19 49.21H57.78C59.39 49.21 60.57 49.04 63.53 48.79L64.71 48.7L64.63 50.64Z" fill="#ED8C3F"/>
<path d="M42.1 72.34H41.43C40.5 70.21 39.09 68.8 36.96 67.87V67.2C39.09 66.27 40.5 64.87 41.43 62.73H42.1C43.03 64.86 44.44 66.27 46.57 67.2V67.87C44.44 68.8 43.03 70.2 42.1 72.34Z" fill="#ED8C3F"/>
<path d="M105.96 19.4C105.96 25.42 105.96 31.43 105.97 37.45C105.97 38.08 105.79 38.22 105.2 38.22C93.41 38.2 81.63 38.19 69.84 38.2C69.25 38.2 69.06 38.05 69.06 37.42C69.08 25.39 69.08 13.35 69.06 1.32C69.06 0.710002 69.22 0.530002 69.83 0.530002C81.62 0.540002 93.4 0.540002 105.19 0.510002C105.85 0.510002 105.98 0.710002 105.97 1.34C105.95 7.36 105.96 13.37 105.96 19.39V19.4ZM101.89 21.28C101.89 15.67 101.89 10.18 101.89 4.69C100.46 4.69 99.1 4.69 97.65 4.69C97.65 8.34 97.65 11.93 97.65 15.59C92.78 15.59 87.98 15.59 83.12 15.59C83.12 16.89 83.12 18.11 83.12 19.34H79.27C79.27 16.73 79.27 14.16 79.27 11.53C84.08 11.53 88.83 11.53 93.6 11.53C93.6 9.2 93.6 6.94 93.6 4.64C90.1 4.64 86.66 4.64 83.15 4.64C83.15 5.87 83.15 7.05 83.15 8.28C81.82 8.28 80.55 8.28 79.22 8.28C79.22 7.06 79.22 5.87 79.22 4.64C78.93 4.62 78.71 4.6 78.48 4.6C76.93 4.6 75.39 4.63 73.84 4.58C73.22 4.56 73.02 4.74 73.02 5.4C73.04 11.2 73.03 17.01 73.04 22.81C73.04 23.05 73.07 23.3 73.1 23.6C78.6 23.6 84.02 23.6 89.48 23.6C89.48 26.4 89.48 29.14 89.48 31.9C88.16 31.9 86.88 31.9 85.52 31.9C85.52 30.45 85.52 29.05 85.52 27.64C81.33 27.64 77.23 27.64 73.08 27.64C73.07 27.89 73.05 28.1 73.05 28.31C73.05 30 73.07 31.68 73.04 33.37C73.03 33.99 73.22 34.24 73.82 34.15C73.88 34.15 73.95 34.15 74.01 34.15C83.08 34.14 92.15 34.12 101.22 34.11C101.44 34.11 101.67 34.09 101.92 34.08C101.92 31.13 101.92 28.25 101.92 25.26C99.5 25.26 97.11 25.26 94.72 25.26C94.72 23.89 94.72 22.62 94.72 21.28C97.13 21.28 99.5 21.28 101.9 21.28H101.89Z" fill="#EA605D"/>
<path d="M95.38 84.87C88.08 84.87 82.16 78.95 82.16 71.65C82.16 64.35 88.08 58.43 95.38 58.43C99.71 58.43 103.54 60.52 105.95 63.73C105.95 63.68 105.95 63.65 105.95 63.6C105.95 60.95 105.91 58.29 105.97 55.64C105.99 54.56 105.6 54.21 104.54 54.23C101.6 54.28 98.66 54.26 95.71 54.24C94.15 54.24 93.65 53.48 94.17 52C95.22 49.02 94.61 46.57 92.42 44.86C90.25 43.18 86.94 43.16 84.56 44.82C82.88 45.99 82 49.04 82.71 51.25C82.83 51.62 83.01 51.96 83.12 52.33C83.48 53.5 83 54.21 81.76 54.21C78.77 54.23 79.02 54.27 76.03 54.2C74.85 54.17 74.52 54.64 74.54 55.73C74.59 58.38 74.59 61.04 74.58 63.69C74.58 65.6 73.69 66.19 71.89 65.53C69.09 64.49 66.19 65.27 64.49 67.51C62.92 69.58 62.92 72.73 64.5 74.81C66.18 77.03 69.11 77.8 71.91 76.76C73.73 76.09 74.59 76.66 74.6 78.58C74.62 81.23 74.63 83.89 74.59 86.54C74.57 87.63 74.89 88.1 76.07 88.07C78.86 88 78.41 88.05 81.46 88.05C81.46 88.05 81.46 88.05 81.46 88.04H96.4V88C97.59 88 98.8 88 100.02 88C101.61 88 103.21 88.05 104.79 87.94C105.2 87.91 105.91 87.39 105.92 87.08C105.98 84.58 105.96 82.07 105.94 79.57C103.53 82.78 99.7 84.87 95.37 84.87H95.38Z" fill="#E9B73E"/>
<path d="M56.85 0V2.17H54.22V0H50.39V2.17H47.76V0H43.93V9.78H41.6V8.06H38.87V9.78H36.66V8.06H33.93V9.78H31.72V8.06H28.99V9.78H26.78V8.06H24.05V9.78H21.84V8.06H19.11V9.78H16.78V0H12.95V2.17H10.32V0H6.48999V2.17H3.85999V0H-9.76585e-06V13.21H0.37999C0.55999 13.21 0.72999 13.23 1.00999 13.29C5.14999 13.71 5.65999 14.9 5.65999 18.28V31.21C5.65999 34.59 5.14999 35.77 1.00999 36.2C0.58999 36.28 0.41999 36.28 0.0799902 36.28L-0.0100098 38.22L1.16999 38.14C4.12999 37.89 5.30999 37.72 6.91999 37.72H14.78V21.39C14.78 21.23 14.8 21.07 14.84 20.92C15.13 18.34 17.44 16.32 20.28 16.32C23.31 16.32 25.77 18.61 25.77 21.44C25.77 21.6 25.74 21.75 25.72 21.9L25.77 21.92V31.22C25.77 34.6 25.26 35.78 21.12 36.21C20.7 36.29 20.53 36.29 20.19 36.29L20.11 38.23L21.29 38.15C24.25 37.9 25.43 37.73 27.04 37.73H33.63C35.24 37.73 36.42 37.9 39.38 38.15L40.56 38.23L40.48 36.29C40.14 36.29 39.97 36.29 39.55 36.21C35.41 35.79 34.9 34.6 34.9 31.22V22.01L34.96 21.99C34.94 21.81 34.9 21.63 34.9 21.45C34.9 18.62 37.36 16.33 40.39 16.33C43.42 16.33 45.88 18.62 45.88 21.45C45.88 21.53 45.86 21.6 45.85 21.68C45.85 21.75 45.88 21.82 45.88 21.89V37.73H53.74C55.35 37.73 56.53 37.9 59.49 38.15L60.67 38.23L60.58 36.29C60.24 36.29 60.07 36.29 59.65 36.21C55.51 35.79 55 34.6 55 31.22V18.29C55 14.91 55.51 13.73 59.65 13.3C60.07 13.22 60.24 13.22 60.58 13.22H60.67V0H56.84H56.85Z" fill="#4BB0B8"/>
<path d="M10.1 55.59C13.4137 55.59 16.1 52.9037 16.1 49.59C16.1 46.2763 13.4137 43.59 10.1 43.59C6.7863 43.59 4.10001 46.2763 4.10001 49.59C4.10001 52.9037 6.7863 55.59 10.1 55.59Z" fill="#6FA260"/>
<path d="M10.1 46.54L20.21 88.07H0L10.1 46.54Z" fill="#6FA260"/>
</g>
<defs>
<clipPath id="clip0_1_3">
<rect width="740.36" height="89.48" fill="white"/>
</clipPath>
</defs>
</svg>
