<svg width="790" height="395" viewBox="0 0 790 395" fill="none" xmlns="http://www.w3.org/2000/svg">
<g clip-path="url(#clip0_1_187)">
<path d="M98.62 0H0V98.62H98.62V0Z" fill="#E9B73E"/>
<path d="M98.62 98.62H0V197.24H98.62V98.62Z" fill="#EA605D"/>
<path d="M197.24 0.0500031H98.62V98.67H197.24V0.0500031Z" fill="#4BB0B8"/>
<path d="M197.24 98.68H98.62V197.3H197.24V98.68Z" fill="#ED8C3F"/>
<path d="M295.88 0H197.25V98.62H295.88V0Z" fill="#6FA260"/>
<path d="M295.87 98.62H197.25V197.24H295.87V98.62Z" fill="#4BB0B8"/>
<path d="M394.51 0.0500031H295.88V98.67H394.51V0.0500031Z" fill="#EA605D"/>
<path d="M394.51 98.68H295.88V197.3H394.51V98.68Z" fill="#E9B73E"/>
<path d="M98.62 197.25H0V295.87H98.62V197.25Z" fill="#4BB0B8"/>
<path d="M98.62 295.87H0V394.49H98.62V295.87Z" fill="#ED8C3F"/>
<path d="M197.24 197.3H98.62V295.92H197.24V197.3Z" fill="#E9B73E"/>
<path d="M197.24 295.93H98.62V394.55H197.24V295.93Z" fill="#6FA260"/>
<path d="M295.88 197.25H197.25V295.87H295.88V197.25Z" fill="#EA605D"/>
<path d="M295.87 295.87H197.25V394.49H295.87V295.87Z" fill="#E9B73E"/>
<path d="M394.51 197.3H295.88V295.92H394.51V197.3Z" fill="#ED8C3F"/>
<path d="M394.51 295.93H295.88V394.55H394.51V295.93Z" fill="#4BB0B8"/>
<g opacity="0.13">
<path d="M174.4 127.44C174.01 127.44 173.81 127.44 173.32 127.54C168.53 128.03 167.94 129.4 167.94 133.31V134.39C167.94 150.63 159.92 163.74 147.79 170.78C135.85 163.74 127.93 150.53 127.93 134.39V133.31C127.93 129.4 127.34 128.03 122.55 127.54C122.06 127.44 121.87 127.44 121.48 127.44L121.38 125.19L122.75 125.29C126.17 125.58 127.54 125.78 129.4 125.78H137.03C138.89 125.78 140.26 125.58 143.68 125.29L145.05 125.19L144.95 127.44C144.56 127.44 144.36 127.44 143.87 127.54C139.27 128.03 138.59 129.3 138.49 132.82C138.59 153.46 142.01 160.12 147.88 164.52C153.75 160.12 157.27 153.47 157.37 132.82C157.27 129.3 156.59 128.03 151.99 127.54C151.5 127.44 151.31 127.44 150.92 127.44L150.82 125.19L152.19 125.29C155.61 125.58 156.98 125.78 158.84 125.78H166.47C168.33 125.78 169.7 125.58 173.12 125.29L174.49 125.19L174.39 127.44H174.4Z" fill="black"/>
<path d="M148.32 152.57H147.55C146.47 150.1 144.85 148.48 142.37 147.4V146.63C144.84 145.55 146.46 143.93 147.55 141.46H148.32C149.4 143.93 151.02 145.55 153.5 146.63V147.4C151.03 148.48 149.41 150.1 148.32 152.57Z" fill="black"/>
<path d="M273.03 324.64C272.64 324.64 272.44 324.64 271.95 324.74C267.16 325.23 266.57 326.6 266.57 330.51V331.59C266.57 347.83 258.55 360.94 246.42 367.98C234.48 360.94 226.56 347.73 226.56 331.59V330.51C226.56 326.6 225.97 325.23 221.18 324.74C220.69 324.64 220.5 324.64 220.11 324.64L220.01 322.39L221.38 322.49C224.8 322.78 226.17 322.98 228.03 322.98H235.66C237.52 322.98 238.89 322.78 242.31 322.49L243.68 322.39L243.58 324.64C243.19 324.64 242.99 324.64 242.5 324.74C237.9 325.23 237.22 326.5 237.12 330.02C237.22 350.66 240.64 357.32 246.51 361.72C252.38 357.32 255.9 350.67 256 330.02C255.9 326.5 255.22 325.23 250.62 324.74C250.13 324.64 249.94 324.64 249.55 324.64L249.45 322.39L250.82 322.49C254.24 322.78 255.61 322.98 257.47 322.98H265.1C266.96 322.98 268.33 322.78 271.75 322.49L273.12 322.39L273.02 324.64H273.03Z" fill="black"/>
<path d="M246.95 349.77H246.18C245.1 347.3 243.48 345.68 241 344.6V343.83C243.47 342.75 245.09 341.13 246.18 338.66H246.95C248.03 341.13 249.65 342.75 252.13 343.83V344.6C249.66 345.68 248.04 347.3 246.95 349.77Z" fill="black"/>
<path d="M371.65 28.82C371.26 28.82 371.06 28.82 370.57 28.92C365.78 29.41 365.19 30.78 365.19 34.69V35.77C365.19 52.01 357.17 65.12 345.04 72.16C333.1 65.12 325.18 51.91 325.18 35.77V34.69C325.18 30.78 324.59 29.41 319.8 28.92C319.31 28.82 319.12 28.82 318.73 28.82L318.63 26.57L320 26.67C323.42 26.96 324.79 27.16 326.65 27.16H334.28C336.14 27.16 337.51 26.96 340.93 26.67L342.3 26.57L342.2 28.82C341.81 28.82 341.61 28.82 341.12 28.92C336.52 29.41 335.84 30.68 335.74 34.2C335.84 54.84 339.26 61.5 345.13 65.9C351 61.5 354.52 54.85 354.62 34.2C354.52 30.68 353.84 29.41 349.24 28.92C348.75 28.82 348.56 28.82 348.17 28.82L348.07 26.57L349.44 26.67C352.86 26.96 354.23 27.16 356.09 27.16H363.72C365.58 27.16 366.95 26.96 370.37 26.67L371.74 26.57L371.64 28.82H371.65Z" fill="black"/>
<path d="M345.57 53.95H344.8C343.72 51.48 342.1 49.86 339.62 48.78V48.01C342.09 46.93 343.71 45.31 344.8 42.84H345.57C346.65 45.31 348.27 46.93 350.75 48.01V48.78C348.28 49.86 346.66 51.48 345.57 53.95Z" fill="black"/>
<path d="M170.24 49.4C170.24 56.68 170.23 63.95 170.26 71.23C170.26 71.99 170.04 72.16 169.33 72.16C155.08 72.13 140.82 72.13 126.57 72.14C125.85 72.14 125.63 71.96 125.63 71.2C125.65 56.65 125.65 42.1 125.63 27.54C125.63 26.8 125.83 26.58 126.56 26.58C140.81 26.6 155.07 26.59 169.32 26.56C170.12 26.56 170.27 26.81 170.27 27.56C170.24 34.84 170.25 42.11 170.25 49.39L170.24 49.4ZM165.32 51.67C165.32 44.89 165.32 38.25 165.32 31.61C163.6 31.61 161.94 31.61 160.2 31.61C160.2 36.02 160.2 40.36 160.2 44.79C154.31 44.79 148.51 44.79 142.63 44.79C142.63 46.36 142.63 47.84 142.63 49.33C141.02 49.33 139.5 49.33 137.97 49.33C137.97 46.17 137.97 43.07 137.97 39.88C143.78 39.88 149.53 39.88 155.3 39.88C155.3 37.06 155.3 34.32 155.3 31.55C151.07 31.55 146.91 31.55 142.66 31.55C142.66 33.04 142.66 34.47 142.66 35.95C141.05 35.95 139.52 35.95 137.91 35.95C137.91 34.47 137.91 33.04 137.91 31.54C137.56 31.52 137.29 31.49 137.02 31.49C135.15 31.49 133.28 31.52 131.41 31.47C130.66 31.45 130.42 31.66 130.42 32.46C130.45 39.48 130.44 46.5 130.44 53.52C130.44 53.82 130.48 54.11 130.51 54.47C137.16 54.47 143.72 54.47 150.31 54.47C150.31 57.86 150.31 61.17 150.31 64.5C148.71 64.5 147.16 64.5 145.52 64.5C145.52 62.75 145.52 61.06 145.52 59.35C140.46 59.35 135.49 59.35 130.48 59.35C130.47 59.66 130.44 59.91 130.44 60.16C130.44 62.2 130.47 64.24 130.42 66.27C130.4 67.02 130.64 67.32 131.36 67.21C131.43 67.2 131.51 67.21 131.59 67.21C142.56 67.19 153.53 67.18 164.49 67.16C164.76 67.16 165.03 67.13 165.33 67.12C165.33 63.56 165.33 60.06 165.33 56.46C162.4 56.46 159.51 56.46 156.62 56.46C156.62 54.81 156.62 53.27 156.62 51.65C159.54 51.65 162.4 51.65 165.31 51.65L165.32 51.67Z" fill="black"/>
<path d="M71.61 345.22C71.61 352.5 71.6 359.77 71.63 367.05C71.63 367.81 71.41 367.98 70.7 367.98C56.45 367.95 42.19 367.95 27.94 367.96C27.22 367.96 27 367.78 27 367.02C27.02 352.47 27.02 337.92 27 323.36C27 322.62 27.2 322.4 27.93 322.4C42.18 322.42 56.44 322.41 70.69 322.38C71.49 322.38 71.64 322.63 71.64 323.38C71.61 330.66 71.62 337.93 71.62 345.21L71.61 345.22ZM66.69 347.5C66.69 340.72 66.69 334.08 66.69 327.44C64.97 327.44 63.31 327.44 61.57 327.44C61.57 331.85 61.57 336.19 61.57 340.62C55.68 340.62 49.88 340.62 44 340.62C44 342.19 44 343.67 44 345.16C42.39 345.16 40.87 345.16 39.34 345.16C39.34 342 39.34 338.9 39.34 335.71C45.15 335.71 50.9 335.71 56.67 335.71C56.67 332.89 56.67 330.15 56.67 327.38C52.44 327.38 48.28 327.38 44.03 327.38C44.03 328.87 44.03 330.3 44.03 331.78C42.42 331.78 40.89 331.78 39.28 331.78C39.28 330.3 39.28 328.87 39.28 327.37C38.93 327.35 38.66 327.32 38.39 327.32C36.52 327.32 34.65 327.35 32.78 327.3C32.03 327.28 31.79 327.49 31.79 328.29C31.82 335.31 31.81 342.33 31.81 349.35C31.81 349.65 31.85 349.94 31.88 350.3C38.53 350.3 45.09 350.3 51.68 350.3C51.68 353.69 51.68 357 51.68 360.33C50.08 360.33 48.53 360.33 46.89 360.33C46.89 358.58 46.89 356.89 46.89 355.18C41.83 355.18 36.86 355.18 31.85 355.18C31.84 355.49 31.81 355.74 31.81 355.99C31.81 358.03 31.84 360.07 31.79 362.1C31.77 362.85 32.01 363.15 32.73 363.04C32.8 363.03 32.88 363.04 32.96 363.04C43.93 363.02 54.9 363.01 65.86 362.99C66.13 362.99 66.4 362.96 66.7 362.95C66.7 359.39 66.7 355.89 66.7 352.29C63.77 352.29 60.88 352.29 57.99 352.29C57.99 350.64 57.99 349.1 57.99 347.48C60.91 347.48 63.77 347.48 66.68 347.48L66.69 347.5Z" fill="black"/>
<path d="M367.49 148.02C367.49 155.3 367.48 162.57 367.51 169.85C367.51 170.61 367.29 170.78 366.58 170.78C352.33 170.75 338.07 170.75 323.82 170.76C323.1 170.76 322.88 170.58 322.88 169.82C322.9 155.27 322.9 140.72 322.88 126.16C322.88 125.42 323.08 125.2 323.81 125.2C338.06 125.22 352.32 125.21 366.57 125.18C367.37 125.18 367.52 125.43 367.52 126.18C367.49 133.46 367.5 140.73 367.5 148.01L367.49 148.02ZM362.57 150.3C362.57 143.52 362.57 136.88 362.57 130.24C360.85 130.24 359.19 130.24 357.45 130.24C357.45 134.65 357.45 138.99 357.45 143.42C351.56 143.42 345.76 143.42 339.88 143.42C339.88 144.99 339.88 146.47 339.88 147.96C338.27 147.96 336.75 147.96 335.22 147.96C335.22 144.8 335.22 141.7 335.22 138.51C341.03 138.51 346.78 138.51 352.55 138.51C352.55 135.69 352.55 132.95 352.55 130.18C348.32 130.18 344.16 130.18 339.91 130.18C339.91 131.67 339.91 133.1 339.91 134.58C338.3 134.58 336.77 134.58 335.16 134.58C335.16 133.1 335.16 131.67 335.16 130.17C334.81 130.15 334.54 130.12 334.27 130.12C332.4 130.12 330.53 130.15 328.66 130.1C327.91 130.08 327.67 130.29 327.67 131.09C327.7 138.11 327.69 145.13 327.69 152.15C327.69 152.45 327.73 152.74 327.76 153.1C334.41 153.1 340.97 153.1 347.56 153.1C347.56 156.49 347.56 159.8 347.56 163.13C345.96 163.13 344.41 163.13 342.77 163.13C342.77 161.38 342.77 159.69 342.77 157.98C337.71 157.98 332.74 157.98 327.73 157.98C327.72 158.29 327.69 158.54 327.69 158.79C327.69 160.83 327.72 162.87 327.67 164.9C327.65 165.65 327.89 165.95 328.61 165.84C328.68 165.83 328.76 165.84 328.84 165.84C339.81 165.82 350.78 165.81 361.74 165.79C362.01 165.79 362.28 165.76 362.58 165.75C362.58 162.19 362.58 158.69 362.58 155.09C359.65 155.09 356.76 155.09 353.87 155.09C353.87 153.44 353.87 151.9 353.87 150.28C356.79 150.28 359.65 150.28 362.56 150.28L362.57 150.3Z" fill="black"/>
<path d="M268.86 246.6C268.86 253.88 268.85 261.15 268.88 268.43C268.88 269.19 268.66 269.36 267.95 269.36C253.7 269.33 239.44 269.33 225.19 269.34C224.47 269.34 224.25 269.16 224.25 268.4C224.27 253.85 224.27 239.3 224.25 224.74C224.25 224 224.45 223.78 225.18 223.78C239.43 223.8 253.69 223.79 267.94 223.76C268.74 223.76 268.89 224.01 268.89 224.76C268.86 232.04 268.87 239.31 268.87 246.59L268.86 246.6ZM263.94 248.87C263.94 242.09 263.94 235.45 263.94 228.81H258.82C258.82 233.22 258.82 237.56 258.82 241.99C252.93 241.99 247.13 241.99 241.25 241.99C241.25 243.56 241.25 245.04 241.25 246.53C239.64 246.53 238.12 246.53 236.59 246.53C236.59 243.37 236.59 240.27 236.59 237.08C242.4 237.08 248.15 237.08 253.92 237.08C253.92 234.26 253.92 231.52 253.92 228.75C249.69 228.75 245.53 228.75 241.28 228.75C241.28 230.24 241.28 231.67 241.28 233.15C239.67 233.15 238.14 233.15 236.53 233.15C236.53 231.67 236.53 230.24 236.53 228.74C236.18 228.72 235.91 228.69 235.64 228.69C233.77 228.69 231.9 228.72 230.03 228.67C229.28 228.65 229.04 228.86 229.04 229.66C229.07 236.68 229.06 243.7 229.06 250.72C229.06 251.02 229.1 251.31 229.13 251.67C235.78 251.67 242.34 251.67 248.93 251.67C248.93 255.06 248.93 258.37 248.93 261.7C247.33 261.7 245.78 261.7 244.14 261.7C244.14 259.95 244.14 258.26 244.14 256.55C239.08 256.55 234.11 256.55 229.1 256.55C229.09 256.86 229.06 257.11 229.06 257.36C229.06 259.4 229.09 261.44 229.04 263.47C229.02 264.22 229.26 264.52 229.98 264.41C230.05 264.4 230.13 264.41 230.21 264.41C241.18 264.39 252.15 264.38 263.11 264.36C263.38 264.36 263.65 264.33 263.95 264.32C263.95 260.76 263.95 257.26 263.95 253.66C261.02 253.66 258.13 253.66 255.24 253.66C255.24 252.01 255.24 250.47 255.24 248.85C258.16 248.85 261.02 248.85 263.93 248.85L263.94 248.87Z" fill="black"/>
<path d="M55.41 163.99C46.88 163.99 39.97 157.08 39.97 148.55C39.97 140.02 46.89 133.11 55.41 133.11C60.47 133.11 64.94 135.55 67.76 139.31C67.76 139.26 67.76 139.22 67.76 139.16C67.76 136.06 67.71 132.96 67.78 129.86C67.81 128.59 67.35 128.19 66.11 128.21C62.67 128.27 59.24 128.24 55.8 128.22C53.98 128.22 53.4 127.33 54 125.61C55.22 122.13 54.52 119.26 51.95 117.27C49.42 115.31 45.55 115.29 42.77 117.22C40.81 118.59 39.78 122.15 40.61 124.73C40.75 125.16 40.96 125.56 41.09 125.99C41.51 127.36 40.95 128.18 39.51 128.19C36.02 128.22 36.31 128.26 32.82 128.18C31.44 128.15 31.06 128.69 31.08 129.96C31.14 133.06 31.13 136.16 31.12 139.26C31.12 141.49 30.08 142.18 27.98 141.4C24.71 140.19 21.32 141.09 19.33 143.72C17.5 146.14 17.5 149.81 19.34 152.24C21.3 154.83 24.72 155.73 28 154.52C30.12 153.74 31.13 154.4 31.14 156.64C31.16 159.74 31.18 162.84 31.13 165.94C31.11 167.21 31.48 167.76 32.86 167.73C36.12 167.65 35.59 167.7 39.15 167.7C39.15 167.7 39.15 167.7 39.15 167.69H56.6V167.64C57.99 167.64 59.41 167.64 60.83 167.64C62.69 167.64 64.55 167.7 66.4 167.57C66.88 167.54 67.71 166.93 67.72 166.57C67.78 163.65 67.77 160.72 67.74 157.79C64.92 161.54 60.45 163.98 55.39 163.98L55.41 163.99Z" fill="black"/>
<path d="M350.92 361.24C342.39 361.24 335.48 354.33 335.48 345.8C335.48 337.27 342.4 330.36 350.92 330.36C355.98 330.36 360.45 332.8 363.27 336.56C363.27 336.51 363.27 336.47 363.27 336.41C363.27 333.31 363.22 330.21 363.29 327.11C363.32 325.84 362.86 325.44 361.62 325.46C358.18 325.52 354.75 325.49 351.31 325.47C349.49 325.47 348.91 324.58 349.51 322.86C350.73 319.38 350.03 316.51 347.46 314.52C344.93 312.56 341.06 312.54 338.28 314.47C336.32 315.84 335.29 319.4 336.12 321.98C336.26 322.41 336.47 322.81 336.6 323.24C337.02 324.61 336.46 325.43 335.02 325.44C331.53 325.47 331.82 325.51 328.33 325.43C326.95 325.4 326.57 325.94 326.59 327.21C326.65 330.31 326.64 333.41 326.63 336.51C326.63 338.74 325.59 339.43 323.49 338.65C320.22 337.44 316.83 338.34 314.84 340.97C313.01 343.39 313.01 347.06 314.85 349.49C316.81 352.08 320.23 352.98 323.51 351.77C325.63 350.99 326.64 351.65 326.65 353.89C326.67 356.99 326.69 360.09 326.64 363.19C326.62 364.46 326.99 365.01 328.37 364.98C331.63 364.9 331.1 364.95 334.66 364.95C334.66 364.95 334.66 364.95 334.66 364.94H352.11V364.89C353.5 364.89 354.92 364.89 356.34 364.89C358.2 364.89 360.06 364.95 361.91 364.82C362.39 364.79 363.22 364.18 363.23 363.82C363.29 360.9 363.28 357.97 363.25 355.04C360.43 358.79 355.96 361.23 350.9 361.23L350.92 361.24Z" fill="black"/>
<path d="M154.04 262.61C145.51 262.61 138.6 255.7 138.6 247.17C138.6 238.64 145.52 231.73 154.04 231.73C159.1 231.73 163.57 234.17 166.39 237.93C166.39 237.88 166.39 237.84 166.39 237.78C166.39 234.68 166.34 231.58 166.41 228.48C166.44 227.21 165.98 226.81 164.74 226.83C161.3 226.89 157.87 226.86 154.43 226.84C152.61 226.84 152.03 225.95 152.63 224.23C153.85 220.75 153.15 217.88 150.58 215.89C148.05 213.93 144.18 213.91 141.4 215.84C139.44 217.21 138.41 220.77 139.24 223.35C139.38 223.78 139.59 224.18 139.72 224.61C140.14 225.98 139.58 226.8 138.14 226.81C134.65 226.84 134.94 226.88 131.45 226.8C130.07 226.77 129.69 227.31 129.71 228.58C129.77 231.68 129.76 234.78 129.75 237.88C129.75 240.11 128.71 240.8 126.61 240.02C123.34 238.81 119.95 239.71 117.96 242.34C116.13 244.76 116.13 248.43 117.97 250.86C119.93 253.45 123.35 254.35 126.63 253.14C128.75 252.36 129.76 253.02 129.77 255.26C129.79 258.36 129.81 261.46 129.76 264.56C129.74 265.83 130.11 266.38 131.49 266.35C134.75 266.27 134.22 266.32 137.78 266.32C137.78 266.32 137.78 266.32 137.78 266.31H155.23V266.26C156.62 266.26 158.04 266.26 159.46 266.26C161.32 266.26 163.18 266.32 165.03 266.19C165.51 266.16 166.34 265.55 166.35 265.19C166.41 262.27 166.4 259.34 166.37 256.41C163.55 260.16 159.08 262.6 154.02 262.6L154.04 262.61Z" fill="black"/>
<path d="M70.7 32.18V34.14H68.33V32.18H64.88V34.14H62.51V32.18H59.06V40.99H56.96V39.44H54.5V40.99H52.51V39.44H50.05V40.99H48.06V39.44H45.6V40.99H43.61V39.44H41.15V40.99H39.16V39.44H36.7V40.99H34.6V32.18H31.15V34.14H28.78V32.18H25.33V34.14H22.96V32.18H19.51V44.09H19.85C20.01 44.09 20.17 44.11 20.42 44.16C24.15 44.54 24.61 45.61 24.61 48.65V60.31C24.61 63.36 24.15 64.43 20.42 64.8C20.04 64.88 19.89 64.88 19.58 64.88L19.5 66.63L20.57 66.55C23.24 66.32 24.3 66.17 25.75 66.17H32.84V51.45C32.84 51.3 32.86 51.16 32.89 51.02C33.15 48.7 35.23 46.88 37.79 46.88C40.53 46.88 42.74 48.95 42.74 51.5C42.74 51.64 42.71 51.78 42.69 51.92H42.73V60.31C42.73 63.36 42.27 64.43 38.54 64.8C38.16 64.88 38.01 64.88 37.7 64.88L37.62 66.63L38.69 66.55C41.36 66.32 42.42 66.17 43.87 66.17H49.81C51.26 66.17 52.32 66.32 54.99 66.55L56.06 66.63L55.98 64.88C55.68 64.88 55.52 64.88 55.14 64.8C51.41 64.42 50.95 63.35 50.95 60.31V52.01L51 51.99C50.98 51.83 50.95 51.67 50.95 51.5C50.95 48.95 53.17 46.88 55.9 46.88C58.63 46.88 60.85 48.95 60.85 51.5C60.85 51.57 60.83 51.64 60.83 51.71C60.83 51.77 60.85 51.83 60.85 51.9V66.18H67.94C69.39 66.18 70.45 66.33 73.12 66.56L74.19 66.64L74.11 64.89C73.81 64.89 73.65 64.89 73.27 64.81C69.54 64.43 69.08 63.36 69.08 60.32V48.66C69.08 45.61 69.54 44.55 73.27 44.17C73.65 44.09 73.8 44.09 74.11 44.09H74.19V32.19H70.74L70.7 32.18Z" fill="black"/>
<path d="M270.46 130.71V132.67H268.09V130.71H264.64V132.67H262.27V130.71H258.82V139.52H256.72V137.97H254.26V139.52H252.27V137.97H249.81V139.52H247.82V137.97H245.36V139.52H243.37V137.97H240.91V139.52H238.92V137.97H236.46V139.52H234.36V130.71H230.91V132.67H228.54V130.71H225.09V132.67H222.72V130.71H219.27V142.62H219.61C219.77 142.62 219.93 142.64 220.18 142.69C223.91 143.07 224.37 144.14 224.37 147.18V158.84C224.37 161.89 223.91 162.96 220.18 163.33C219.8 163.41 219.65 163.41 219.34 163.41L219.26 165.16L220.33 165.08C223 164.85 224.06 164.7 225.51 164.7H232.6V149.98C232.6 149.83 232.62 149.69 232.65 149.55C232.91 147.23 234.99 145.41 237.55 145.41C240.29 145.41 242.5 147.48 242.5 150.03C242.5 150.17 242.47 150.31 242.45 150.45H242.49V158.84C242.49 161.89 242.03 162.96 238.3 163.33C237.92 163.41 237.77 163.41 237.46 163.41L237.38 165.16L238.45 165.08C241.12 164.85 242.18 164.7 243.63 164.7H249.57C251.02 164.7 252.08 164.85 254.75 165.08L255.82 165.16L255.74 163.41C255.44 163.41 255.28 163.41 254.9 163.33C251.17 162.95 250.71 161.88 250.71 158.84V150.54L250.76 150.52C250.74 150.36 250.71 150.2 250.71 150.03C250.71 147.48 252.93 145.41 255.66 145.41C258.39 145.41 260.61 147.48 260.61 150.03C260.61 150.1 260.59 150.17 260.59 150.24C260.59 150.3 260.61 150.36 260.61 150.43V164.71H267.7C269.15 164.71 270.21 164.86 272.88 165.09L273.95 165.17L273.87 163.42C273.57 163.42 273.41 163.42 273.03 163.34C269.3 162.96 268.84 161.89 268.84 158.85V147.19C268.84 144.14 269.3 143.08 273.03 142.7C273.41 142.62 273.56 142.62 273.87 142.62H273.95V130.72H270.5L270.46 130.71Z" fill="black"/>
<path d="M171.84 328.01V329.97H169.47V328.01H166.02V329.97H163.65V328.01H160.2V336.82H158.1V335.27H155.64V336.82H153.65V335.27H151.19V336.82H149.2V335.27H146.74V336.82H144.75V335.27H142.29V336.82H140.3V335.27H137.84V336.82H135.74V328.01H132.29V329.97H129.92V328.01H126.47V329.97H124.1V328.01H120.65V339.92H120.99C121.15 339.92 121.31 339.94 121.56 339.99C125.29 340.37 125.75 341.44 125.75 344.48V356.14C125.75 359.19 125.29 360.26 121.56 360.63C121.18 360.71 121.03 360.71 120.72 360.71L120.64 362.46L121.71 362.38C124.38 362.15 125.44 362 126.89 362H133.98V347.28C133.98 347.13 134 346.99 134.03 346.85C134.29 344.53 136.37 342.71 138.93 342.71C141.67 342.71 143.88 344.78 143.88 347.33C143.88 347.47 143.85 347.61 143.83 347.75H143.87V356.14C143.87 359.19 143.41 360.26 139.68 360.63C139.3 360.71 139.15 360.71 138.84 360.71L138.76 362.46L139.83 362.38C142.5 362.15 143.56 362 145.01 362H150.95C152.4 362 153.46 362.15 156.13 362.38L157.2 362.46L157.12 360.71C156.82 360.71 156.66 360.71 156.28 360.63C152.55 360.25 152.09 359.18 152.09 356.14V347.84L152.14 347.82C152.12 347.66 152.09 347.5 152.09 347.33C152.09 344.78 154.31 342.71 157.04 342.71C159.77 342.71 161.99 344.78 161.99 347.33C161.99 347.4 161.97 347.47 161.97 347.54C161.97 347.6 161.99 347.66 161.99 347.73V362.01H169.08C170.53 362.01 171.59 362.16 174.26 362.39L175.33 362.47L175.25 360.72C174.95 360.72 174.79 360.72 174.41 360.64C170.68 360.26 170.22 359.19 170.22 356.15V344.49C170.22 341.44 170.68 340.38 174.41 340C174.79 339.92 174.94 339.92 175.25 339.92H175.33V328.02H171.88L171.84 328.01Z" fill="black"/>
<path d="M246.56 36.68C250.641 36.68 253.95 33.3714 253.95 29.29C253.95 25.2086 250.641 21.9 246.56 21.9C242.479 21.9 239.17 25.2086 239.17 29.29C239.17 33.3714 242.479 36.68 246.56 36.68Z" fill="black"/>
<path d="M246.56 25.54L259.02 76.72H234.11L246.56 25.54Z" fill="black"/>
<path d="M345.19 233.98C349.271 233.98 352.58 230.671 352.58 226.59C352.58 222.509 349.271 219.2 345.19 219.2C341.109 219.2 337.8 222.509 337.8 226.59C337.8 230.671 341.109 233.98 345.19 233.98Z" fill="black"/>
<path d="M345.19 222.84L357.64 274.02H332.73L345.19 222.84Z" fill="black"/>
<path d="M49.31 233.93C53.3914 233.93 56.7 230.621 56.7 226.54C56.7 222.459 53.3914 219.15 49.31 219.15C45.2286 219.15 41.92 222.459 41.92 226.54C41.92 230.621 45.2286 233.93 49.31 233.93Z" fill="black"/>
<path d="M49.31 222.79L61.77 273.97H36.86L49.31 222.79Z" fill="black"/>
</g>
<path d="M493.62 0H395V98.62H493.62V0Z" fill="#E9B73E"/>
<path d="M493.62 98.62H395V197.24H493.62V98.62Z" fill="#EA605D"/>
<path d="M592.26 0.0500031H493.63V98.67H592.26V0.0500031Z" fill="#4BB0B8"/>
<path d="M592.26 98.68H493.63V197.3H592.26V98.68Z" fill="#ED8C3F"/>
<path d="M690.87 0H592.25V98.62H690.87V0Z" fill="#6FA260"/>
<path d="M690.87 98.62H592.25V197.24H690.87V98.62Z" fill="#4BB0B8"/>
<path d="M789.51 0.0500031H690.88V98.67H789.51V0.0500031Z" fill="#EA605D"/>
<path d="M789.51 98.68H690.88V197.3H789.51V98.68Z" fill="#E9B73E"/>
<path d="M493.62 197.25H395V295.87H493.62V197.25Z" fill="#4BB0B8"/>
<path d="M493.62 295.87H395V394.49H493.62V295.87Z" fill="#ED8C3F"/>
<path d="M592.26 197.3H493.63V295.92H592.26V197.3Z" fill="#E9B73E"/>
<path d="M592.26 295.93H493.63V394.55H592.26V295.93Z" fill="#6FA260"/>
<path d="M690.87 197.25H592.25V295.87H690.87V197.25Z" fill="#EA605D"/>
<path d="M690.87 295.87H592.25V394.49H690.87V295.87Z" fill="#E9B73E"/>
<path d="M789.51 197.3H690.88V295.92H789.51V197.3Z" fill="#ED8C3F"/>
<path d="M789.51 295.93H690.88V394.55H789.51V295.93Z" fill="#4BB0B8"/>
<g opacity="0.13">
<path d="M569.4 127.44C569.01 127.44 568.81 127.44 568.32 127.54C563.53 128.03 562.94 129.4 562.94 133.31V134.39C562.94 150.63 554.92 163.74 542.79 170.78C530.85 163.74 522.93 150.53 522.93 134.39V133.31C522.93 129.4 522.34 128.03 517.55 127.54C517.06 127.44 516.87 127.44 516.48 127.44L516.38 125.19L517.75 125.29C521.17 125.58 522.54 125.78 524.4 125.78H532.03C533.89 125.78 535.26 125.58 538.68 125.29L540.05 125.19L539.95 127.44C539.56 127.44 539.36 127.44 538.87 127.54C534.27 128.03 533.59 129.3 533.49 132.82C533.59 153.46 537.01 160.12 542.88 164.52C548.75 160.12 552.27 153.47 552.37 132.82C552.27 129.3 551.59 128.03 546.99 127.54C546.5 127.44 546.31 127.44 545.92 127.44L545.82 125.19L547.19 125.29C550.61 125.58 551.98 125.78 553.84 125.78H561.47C563.33 125.78 564.7 125.58 568.12 125.29L569.49 125.19L569.39 127.44H569.4Z" fill="black"/>
<path d="M543.32 152.57H542.55C541.47 150.1 539.85 148.48 537.37 147.4V146.63C539.84 145.55 541.46 143.93 542.55 141.46H543.32C544.4 143.93 546.02 145.55 548.5 146.63V147.4C546.03 148.48 544.41 150.1 543.32 152.57Z" fill="black"/>
<path d="M668.03 324.64C667.64 324.64 667.44 324.64 666.95 324.74C662.16 325.23 661.57 326.6 661.57 330.51V331.59C661.57 347.83 653.55 360.94 641.42 367.98C629.48 360.94 621.56 347.73 621.56 331.59V330.51C621.56 326.6 620.97 325.23 616.18 324.74C615.69 324.64 615.5 324.64 615.11 324.64L615.01 322.39L616.38 322.49C619.8 322.78 621.17 322.98 623.03 322.98H630.66C632.52 322.98 633.89 322.78 637.31 322.49L638.68 322.39L638.58 324.64C638.19 324.64 637.99 324.64 637.5 324.74C632.9 325.23 632.22 326.5 632.12 330.02C632.22 350.66 635.64 357.32 641.51 361.72C647.38 357.32 650.9 350.67 651 330.02C650.9 326.5 650.22 325.23 645.62 324.74C645.13 324.64 644.94 324.64 644.55 324.64L644.45 322.39L645.82 322.49C649.24 322.78 650.61 322.98 652.47 322.98H660.1C661.96 322.98 663.33 322.78 666.75 322.49L668.12 322.39L668.02 324.64H668.03Z" fill="black"/>
<path d="M641.95 349.77H641.18C640.1 347.3 638.48 345.68 636 344.6V343.83C638.47 342.75 640.09 341.13 641.18 338.66H641.95C643.03 341.13 644.65 342.75 647.13 343.83V344.6C644.66 345.68 643.04 347.3 641.95 349.77Z" fill="black"/>
<path d="M766.65 28.82C766.26 28.82 766.06 28.82 765.57 28.92C760.78 29.41 760.19 30.78 760.19 34.69V35.77C760.19 52.01 752.17 65.12 740.04 72.16C728.1 65.12 720.18 51.91 720.18 35.77V34.69C720.18 30.78 719.59 29.41 714.8 28.92C714.31 28.82 714.12 28.82 713.73 28.82L713.63 26.57L715 26.67C718.42 26.96 719.79 27.16 721.65 27.16H729.28C731.14 27.16 732.51 26.96 735.93 26.67L737.3 26.57L737.2 28.82C736.81 28.82 736.61 28.82 736.12 28.92C731.52 29.41 730.84 30.68 730.74 34.2C730.84 54.84 734.26 61.5 740.13 65.9C746 61.5 749.52 54.85 749.62 34.2C749.52 30.68 748.84 29.41 744.24 28.92C743.75 28.82 743.56 28.82 743.17 28.82L743.07 26.57L744.44 26.67C747.86 26.96 749.23 27.16 751.09 27.16H758.72C760.58 27.16 761.95 26.96 765.37 26.67L766.74 26.57L766.64 28.82H766.65Z" fill="black"/>
<path d="M740.57 53.95H739.8C738.72 51.48 737.1 49.86 734.62 48.78V48.01C737.09 46.93 738.71 45.31 739.8 42.84H740.57C741.65 45.31 743.27 46.93 745.75 48.01V48.78C743.28 49.86 741.66 51.48 740.57 53.95Z" fill="black"/>
<path d="M565.24 49.4C565.24 56.68 565.23 63.95 565.26 71.23C565.26 71.99 565.04 72.16 564.33 72.16C550.08 72.13 535.82 72.13 521.57 72.14C520.85 72.14 520.63 71.96 520.63 71.2C520.65 56.65 520.65 42.1 520.63 27.54C520.63 26.8 520.83 26.58 521.56 26.58C535.81 26.6 550.07 26.59 564.32 26.56C565.12 26.56 565.27 26.81 565.27 27.56C565.24 34.84 565.25 42.11 565.25 49.39L565.24 49.4ZM560.32 51.67C560.32 44.89 560.32 38.25 560.32 31.61C558.6 31.61 556.94 31.61 555.2 31.61C555.2 36.02 555.2 40.36 555.2 44.79C549.31 44.79 543.51 44.79 537.63 44.79C537.63 46.36 537.63 47.84 537.63 49.33C536.02 49.33 534.5 49.33 532.97 49.33C532.97 46.17 532.97 43.07 532.97 39.88C538.78 39.88 544.53 39.88 550.3 39.88C550.3 37.06 550.3 34.32 550.3 31.55C546.07 31.55 541.91 31.55 537.66 31.55C537.66 33.04 537.66 34.47 537.66 35.95C536.05 35.95 534.52 35.95 532.91 35.95C532.91 34.47 532.91 33.04 532.91 31.54C532.56 31.52 532.29 31.49 532.02 31.49C530.15 31.49 528.28 31.52 526.41 31.47C525.66 31.45 525.42 31.66 525.42 32.46C525.45 39.48 525.44 46.5 525.44 53.52C525.44 53.82 525.48 54.11 525.51 54.47C532.16 54.47 538.72 54.47 545.31 54.47C545.31 57.86 545.31 61.17 545.31 64.5C543.71 64.5 542.16 64.5 540.52 64.5C540.52 62.75 540.52 61.06 540.52 59.35C535.46 59.35 530.49 59.35 525.48 59.35C525.47 59.66 525.44 59.91 525.44 60.16C525.44 62.2 525.47 64.24 525.42 66.27C525.4 67.02 525.64 67.32 526.36 67.21C526.43 67.2 526.51 67.21 526.59 67.21C537.56 67.19 548.53 67.18 559.49 67.16C559.76 67.16 560.03 67.13 560.33 67.12C560.33 63.56 560.33 60.06 560.33 56.46C557.4 56.46 554.51 56.46 551.62 56.46C551.62 54.81 551.62 53.27 551.62 51.65C554.54 51.65 557.4 51.65 560.31 51.65L560.32 51.67Z" fill="black"/>
<path d="M466.61 345.22C466.61 352.5 466.6 359.77 466.63 367.05C466.63 367.81 466.41 367.98 465.7 367.98C451.45 367.95 437.19 367.95 422.94 367.96C422.22 367.96 422 367.78 422 367.02C422.02 352.47 422.02 337.92 422 323.36C422 322.62 422.2 322.4 422.93 322.4C437.18 322.42 451.44 322.41 465.69 322.38C466.49 322.38 466.64 322.63 466.64 323.38C466.61 330.66 466.62 337.93 466.62 345.21L466.61 345.22ZM461.69 347.5C461.69 340.72 461.69 334.08 461.69 327.44C459.97 327.44 458.31 327.44 456.57 327.44C456.57 331.85 456.57 336.19 456.57 340.62C450.68 340.62 444.88 340.62 439 340.62C439 342.19 439 343.67 439 345.16C437.39 345.16 435.87 345.16 434.34 345.16C434.34 342 434.34 338.9 434.34 335.71C440.15 335.71 445.9 335.71 451.67 335.71C451.67 332.89 451.67 330.15 451.67 327.38C447.44 327.38 443.28 327.38 439.03 327.38C439.03 328.87 439.03 330.3 439.03 331.78C437.42 331.78 435.89 331.78 434.28 331.78C434.28 330.3 434.28 328.87 434.28 327.37C433.93 327.35 433.66 327.32 433.39 327.32C431.52 327.32 429.65 327.35 427.78 327.3C427.03 327.28 426.79 327.49 426.79 328.29C426.82 335.31 426.81 342.33 426.81 349.35C426.81 349.65 426.85 349.94 426.88 350.3C433.53 350.3 440.09 350.3 446.68 350.3C446.68 353.69 446.68 357 446.68 360.33C445.08 360.33 443.53 360.33 441.89 360.33C441.89 358.58 441.89 356.89 441.89 355.18C436.83 355.18 431.86 355.18 426.85 355.18C426.84 355.49 426.81 355.74 426.81 355.99C426.81 358.03 426.84 360.07 426.79 362.1C426.77 362.85 427.01 363.15 427.73 363.04C427.8 363.03 427.88 363.04 427.96 363.04C438.93 363.02 449.9 363.01 460.86 362.99C461.13 362.99 461.4 362.96 461.7 362.95C461.7 359.39 461.7 355.89 461.7 352.29C458.77 352.29 455.88 352.29 452.99 352.29C452.99 350.64 452.99 349.1 452.99 347.48C455.91 347.48 458.77 347.48 461.68 347.48L461.69 347.5Z" fill="black"/>
<path d="M762.49 148.02C762.49 155.3 762.48 162.57 762.51 169.85C762.51 170.61 762.29 170.78 761.58 170.78C747.33 170.75 733.07 170.75 718.82 170.76C718.1 170.76 717.88 170.58 717.88 169.82C717.9 155.27 717.9 140.72 717.88 126.16C717.88 125.42 718.08 125.2 718.81 125.2C733.06 125.22 747.32 125.21 761.57 125.18C762.37 125.18 762.52 125.43 762.52 126.18C762.49 133.46 762.5 140.73 762.5 148.01L762.49 148.02ZM757.57 150.3C757.57 143.52 757.57 136.88 757.57 130.24C755.85 130.24 754.19 130.24 752.45 130.24C752.45 134.65 752.45 138.99 752.45 143.42C746.56 143.42 740.76 143.42 734.88 143.42C734.88 144.99 734.88 146.47 734.88 147.96C733.27 147.96 731.75 147.96 730.22 147.96C730.22 144.8 730.22 141.7 730.22 138.51C736.03 138.51 741.78 138.51 747.55 138.51C747.55 135.69 747.55 132.95 747.55 130.18C743.32 130.18 739.16 130.18 734.91 130.18C734.91 131.67 734.91 133.1 734.91 134.58C733.3 134.58 731.77 134.58 730.16 134.58C730.16 133.1 730.16 131.67 730.16 130.17C729.81 130.15 729.54 130.12 729.27 130.12C727.4 130.12 725.53 130.15 723.66 130.1C722.91 130.08 722.67 130.29 722.67 131.09C722.7 138.11 722.69 145.13 722.69 152.15C722.69 152.45 722.73 152.74 722.76 153.1C729.41 153.1 735.97 153.1 742.56 153.1C742.56 156.49 742.56 159.8 742.56 163.13C740.96 163.13 739.41 163.13 737.77 163.13C737.77 161.38 737.77 159.69 737.77 157.98C732.71 157.98 727.74 157.98 722.73 157.98C722.72 158.29 722.69 158.54 722.69 158.79C722.69 160.83 722.72 162.87 722.67 164.9C722.65 165.65 722.89 165.95 723.61 165.84C723.68 165.83 723.76 165.84 723.84 165.84C734.81 165.82 745.78 165.81 756.74 165.79C757.01 165.79 757.28 165.76 757.58 165.75C757.58 162.19 757.58 158.69 757.58 155.09C754.65 155.09 751.76 155.09 748.87 155.09C748.87 153.44 748.87 151.9 748.87 150.28C751.79 150.28 754.65 150.28 757.56 150.28L757.57 150.3Z" fill="black"/>
<path d="M663.86 246.6C663.86 253.88 663.85 261.15 663.88 268.43C663.88 269.19 663.66 269.36 662.95 269.36C648.7 269.33 634.44 269.33 620.19 269.34C619.47 269.34 619.25 269.16 619.25 268.4C619.27 253.85 619.27 239.3 619.25 224.74C619.25 224 619.45 223.78 620.18 223.78C634.43 223.8 648.69 223.79 662.94 223.76C663.74 223.76 663.89 224.01 663.89 224.76C663.86 232.04 663.87 239.31 663.87 246.59L663.86 246.6ZM658.94 248.87C658.94 242.09 658.94 235.45 658.94 228.81H653.82C653.82 233.22 653.82 237.56 653.82 241.99C647.93 241.99 642.13 241.99 636.25 241.99C636.25 243.56 636.25 245.04 636.25 246.53C634.64 246.53 633.12 246.53 631.59 246.53C631.59 243.37 631.59 240.27 631.59 237.08C637.4 237.08 643.15 237.08 648.92 237.08C648.92 234.26 648.92 231.52 648.92 228.75C644.69 228.75 640.53 228.75 636.28 228.75C636.28 230.24 636.28 231.67 636.28 233.15C634.67 233.15 633.14 233.15 631.53 233.15C631.53 231.67 631.53 230.24 631.53 228.74C631.18 228.72 630.91 228.69 630.64 228.69C628.77 228.69 626.9 228.72 625.03 228.67C624.28 228.65 624.04 228.86 624.04 229.66C624.07 236.68 624.06 243.7 624.06 250.72C624.06 251.02 624.1 251.31 624.13 251.67C630.78 251.67 637.34 251.67 643.93 251.67C643.93 255.06 643.93 258.37 643.93 261.7C642.33 261.7 640.78 261.7 639.14 261.7C639.14 259.95 639.14 258.26 639.14 256.55C634.08 256.55 629.11 256.55 624.1 256.55C624.09 256.86 624.06 257.11 624.06 257.36C624.06 259.4 624.09 261.44 624.04 263.47C624.02 264.22 624.26 264.52 624.98 264.41C625.05 264.4 625.13 264.41 625.21 264.41C636.18 264.39 647.15 264.38 658.11 264.36C658.38 264.36 658.65 264.33 658.95 264.32C658.95 260.76 658.95 257.26 658.95 253.66C656.02 253.66 653.13 253.66 650.24 253.66C650.24 252.01 650.24 250.47 650.24 248.85C653.16 248.85 656.02 248.85 658.93 248.85L658.94 248.87Z" fill="black"/>
<path d="M450.41 163.99C441.88 163.99 434.97 157.08 434.97 148.55C434.97 140.02 441.89 133.11 450.41 133.11C455.47 133.11 459.94 135.55 462.76 139.31C462.76 139.26 462.76 139.22 462.76 139.16C462.76 136.06 462.71 132.96 462.78 129.86C462.81 128.59 462.35 128.19 461.11 128.21C457.67 128.27 454.24 128.24 450.8 128.22C448.98 128.22 448.4 127.33 449 125.61C450.22 122.13 449.52 119.26 446.95 117.27C444.42 115.31 440.55 115.29 437.77 117.22C435.81 118.59 434.78 122.15 435.61 124.73C435.75 125.16 435.96 125.56 436.09 125.99C436.51 127.36 435.95 128.18 434.51 128.19C431.02 128.22 431.31 128.26 427.82 128.18C426.44 128.15 426.06 128.69 426.08 129.96C426.14 133.06 426.13 136.16 426.12 139.26C426.12 141.49 425.08 142.18 422.98 141.4C419.71 140.19 416.32 141.09 414.33 143.72C412.5 146.14 412.5 149.81 414.34 152.24C416.3 154.83 419.72 155.73 423 154.52C425.12 153.74 426.13 154.4 426.14 156.64C426.16 159.74 426.18 162.84 426.13 165.94C426.11 167.21 426.48 167.76 427.86 167.73C431.12 167.65 430.59 167.7 434.15 167.7C434.15 167.7 434.15 167.7 434.15 167.69H451.6V167.64C452.99 167.64 454.41 167.64 455.83 167.64C457.69 167.64 459.55 167.7 461.4 167.57C461.88 167.54 462.71 166.93 462.72 166.57C462.78 163.65 462.77 160.72 462.74 157.79C459.92 161.54 455.45 163.98 450.39 163.98L450.41 163.99Z" fill="black"/>
<path d="M745.92 361.24C737.39 361.24 730.48 354.33 730.48 345.8C730.48 337.27 737.4 330.36 745.92 330.36C750.98 330.36 755.45 332.8 758.27 336.56C758.27 336.51 758.27 336.47 758.27 336.41C758.27 333.31 758.22 330.21 758.29 327.11C758.32 325.84 757.86 325.44 756.62 325.46C753.18 325.52 749.75 325.49 746.31 325.47C744.49 325.47 743.91 324.58 744.51 322.86C745.73 319.38 745.03 316.51 742.46 314.52C739.93 312.56 736.06 312.54 733.28 314.47C731.32 315.84 730.29 319.4 731.12 321.98C731.26 322.41 731.47 322.81 731.6 323.24C732.02 324.61 731.46 325.43 730.02 325.44C726.53 325.47 726.82 325.51 723.33 325.43C721.95 325.4 721.57 325.94 721.59 327.21C721.65 330.31 721.64 333.41 721.63 336.51C721.63 338.74 720.59 339.43 718.49 338.65C715.22 337.44 711.83 338.34 709.84 340.97C708.01 343.39 708.01 347.06 709.85 349.49C711.81 352.08 715.23 352.98 718.51 351.77C720.63 350.99 721.64 351.65 721.65 353.89C721.67 356.99 721.69 360.09 721.64 363.19C721.62 364.46 721.99 365.01 723.37 364.98C726.63 364.9 726.1 364.95 729.66 364.95C729.66 364.95 729.66 364.95 729.66 364.94H747.11V364.89C748.5 364.89 749.92 364.89 751.34 364.89C753.2 364.89 755.06 364.95 756.91 364.82C757.39 364.79 758.22 364.18 758.23 363.82C758.29 360.9 758.28 357.97 758.25 355.04C755.43 358.79 750.96 361.23 745.9 361.23L745.92 361.24Z" fill="black"/>
<path d="M549.04 262.61C540.51 262.61 533.6 255.7 533.6 247.17C533.6 238.64 540.52 231.73 549.04 231.73C554.1 231.73 558.57 234.17 561.39 237.93C561.39 237.88 561.39 237.84 561.39 237.78C561.39 234.68 561.34 231.58 561.41 228.48C561.44 227.21 560.98 226.81 559.74 226.83C556.3 226.89 552.87 226.86 549.43 226.84C547.61 226.84 547.03 225.95 547.63 224.23C548.85 220.75 548.15 217.88 545.58 215.89C543.05 213.93 539.18 213.91 536.4 215.84C534.44 217.21 533.41 220.77 534.24 223.35C534.38 223.78 534.59 224.18 534.72 224.61C535.14 225.98 534.58 226.8 533.14 226.81C529.65 226.84 529.94 226.88 526.45 226.8C525.07 226.77 524.69 227.31 524.71 228.58C524.77 231.68 524.76 234.78 524.75 237.88C524.75 240.11 523.71 240.8 521.61 240.02C518.34 238.81 514.95 239.71 512.96 242.34C511.13 244.76 511.13 248.43 512.97 250.86C514.93 253.45 518.35 254.35 521.63 253.14C523.75 252.36 524.76 253.02 524.77 255.26C524.79 258.36 524.81 261.46 524.76 264.56C524.74 265.83 525.11 266.38 526.49 266.35C529.75 266.27 529.22 266.32 532.78 266.32C532.78 266.32 532.78 266.32 532.78 266.31H550.23V266.26C551.62 266.26 553.04 266.26 554.46 266.26C556.32 266.26 558.18 266.32 560.03 266.19C560.51 266.16 561.34 265.55 561.35 265.19C561.41 262.27 561.4 259.34 561.37 256.41C558.55 260.16 554.08 262.6 549.02 262.6L549.04 262.61Z" fill="black"/>
<path d="M465.7 32.18V34.14H463.33V32.18H459.88V34.14H457.51V32.18H454.06V40.99H451.96V39.44H449.5V40.99H447.51V39.44H445.05V40.99H443.06V39.44H440.6V40.99H438.61V39.44H436.15V40.99H434.16V39.44H431.7V40.99H429.6V32.18H426.15V34.14H423.78V32.18H420.33V34.14H417.96V32.18H414.51V44.09H414.85C415.01 44.09 415.17 44.11 415.42 44.16C419.15 44.54 419.61 45.61 419.61 48.65V60.31C419.61 63.36 419.15 64.43 415.42 64.8C415.04 64.88 414.89 64.88 414.58 64.88L414.5 66.63L415.57 66.55C418.24 66.32 419.3 66.17 420.75 66.17H427.84V51.45C427.84 51.3 427.86 51.16 427.89 51.02C428.15 48.7 430.23 46.88 432.79 46.88C435.53 46.88 437.74 48.95 437.74 51.5C437.74 51.64 437.71 51.78 437.69 51.92H437.73V60.31C437.73 63.36 437.27 64.43 433.54 64.8C433.16 64.88 433.01 64.88 432.7 64.88L432.62 66.63L433.69 66.55C436.36 66.32 437.42 66.17 438.87 66.17H444.81C446.26 66.17 447.32 66.32 449.99 66.55L451.06 66.63L450.98 64.88C450.68 64.88 450.52 64.88 450.14 64.8C446.41 64.42 445.95 63.35 445.95 60.31V52.01L446 51.99C445.98 51.83 445.95 51.67 445.95 51.5C445.95 48.95 448.17 46.88 450.9 46.88C453.63 46.88 455.85 48.95 455.85 51.5C455.85 51.57 455.83 51.64 455.83 51.71C455.83 51.77 455.85 51.83 455.85 51.9V66.18H462.94C464.39 66.18 465.45 66.33 468.12 66.56L469.19 66.64L469.11 64.89C468.81 64.89 468.65 64.89 468.27 64.81C464.54 64.43 464.08 63.36 464.08 60.32V48.66C464.08 45.61 464.54 44.55 468.27 44.17C468.65 44.09 468.8 44.09 469.11 44.09H469.19V32.19H465.74L465.7 32.18Z" fill="black"/>
<path d="M665.46 130.71V132.67H663.09V130.71H659.64V132.67H657.27V130.71H653.82V139.52H651.72V137.97H649.26V139.52H647.27V137.97H644.81V139.52H642.82V137.97H640.36V139.52H638.37V137.97H635.91V139.52H633.92V137.97H631.46V139.52H629.36V130.71H625.91V132.67H623.54V130.71H620.09V132.67H617.72V130.71H614.27V142.62H614.61C614.77 142.62 614.93 142.64 615.18 142.69C618.91 143.07 619.37 144.14 619.37 147.18V158.84C619.37 161.89 618.91 162.96 615.18 163.33C614.8 163.41 614.65 163.41 614.34 163.41L614.26 165.16L615.33 165.08C618 164.85 619.06 164.7 620.51 164.7H627.6V149.98C627.6 149.83 627.62 149.69 627.65 149.55C627.91 147.23 629.99 145.41 632.55 145.41C635.29 145.41 637.5 147.48 637.5 150.03C637.5 150.17 637.47 150.31 637.45 150.45H637.49V158.84C637.49 161.89 637.03 162.96 633.3 163.33C632.92 163.41 632.77 163.41 632.46 163.41L632.38 165.16L633.45 165.08C636.12 164.85 637.18 164.7 638.63 164.7H644.57C646.02 164.7 647.08 164.85 649.75 165.08L650.82 165.16L650.74 163.41C650.44 163.41 650.28 163.41 649.9 163.33C646.17 162.95 645.71 161.88 645.71 158.84V150.54L645.76 150.52C645.74 150.36 645.71 150.2 645.71 150.03C645.71 147.48 647.93 145.41 650.66 145.41C653.39 145.41 655.61 147.48 655.61 150.03C655.61 150.1 655.59 150.17 655.59 150.24C655.59 150.3 655.61 150.36 655.61 150.43V164.71H662.7C664.15 164.71 665.21 164.86 667.88 165.09L668.95 165.17L668.87 163.42C668.57 163.42 668.41 163.42 668.03 163.34C664.3 162.96 663.84 161.89 663.84 158.85V147.19C663.84 144.14 664.3 143.08 668.03 142.7C668.41 142.62 668.56 142.62 668.87 142.62H668.95V130.72H665.5L665.46 130.71Z" fill="black"/>
<path d="M566.84 328.01V329.97H564.47V328.01H561.02V329.97H558.65V328.01H555.2V336.82H553.1V335.27H550.64V336.82H548.65V335.27H546.19V336.82H544.2V335.27H541.74V336.82H539.75V335.27H537.29V336.82H535.3V335.27H532.84V336.82H530.74V328.01H527.29V329.97H524.92V328.01H521.47V329.97H519.1V328.01H515.65V339.92H515.99C516.15 339.92 516.31 339.94 516.56 339.99C520.29 340.37 520.75 341.44 520.75 344.48V356.14C520.75 359.19 520.29 360.26 516.56 360.63C516.18 360.71 516.03 360.71 515.72 360.71L515.64 362.46L516.71 362.38C519.38 362.15 520.44 362 521.89 362H528.98V347.28C528.98 347.13 529 346.99 529.03 346.85C529.29 344.53 531.37 342.71 533.93 342.71C536.67 342.71 538.88 344.78 538.88 347.33C538.88 347.47 538.85 347.61 538.83 347.75H538.87V356.14C538.87 359.19 538.41 360.26 534.68 360.63C534.3 360.71 534.15 360.71 533.84 360.71L533.76 362.46L534.83 362.38C537.5 362.15 538.56 362 540.01 362H545.95C547.4 362 548.46 362.15 551.13 362.38L552.2 362.46L552.12 360.71C551.82 360.71 551.66 360.71 551.28 360.63C547.55 360.25 547.09 359.18 547.09 356.14V347.84L547.14 347.82C547.12 347.66 547.09 347.5 547.09 347.33C547.09 344.78 549.31 342.71 552.04 342.71C554.77 342.71 556.99 344.78 556.99 347.33C556.99 347.4 556.97 347.47 556.97 347.54C556.97 347.6 556.99 347.66 556.99 347.73V362.01H564.08C565.53 362.01 566.59 362.16 569.26 362.39L570.33 362.47L570.25 360.72C569.95 360.72 569.79 360.72 569.41 360.64C565.68 360.26 565.22 359.19 565.22 356.15V344.49C565.22 341.44 565.68 340.38 569.41 340C569.79 339.92 569.94 339.92 570.25 339.92H570.33V328.02H566.88L566.84 328.01Z" fill="black"/>
<path d="M641.56 36.68C645.641 36.68 648.95 33.3714 648.95 29.29C648.95 25.2086 645.641 21.9 641.56 21.9C637.479 21.9 634.17 25.2086 634.17 29.29C634.17 33.3714 637.479 36.68 641.56 36.68Z" fill="black"/>
<path d="M641.56 25.54L654.02 76.72H629.11L641.56 25.54Z" fill="black"/>
<path d="M740.19 233.98C744.271 233.98 747.58 230.671 747.58 226.59C747.58 222.509 744.271 219.2 740.19 219.2C736.109 219.2 732.8 222.509 732.8 226.59C732.8 230.671 736.109 233.98 740.19 233.98Z" fill="black"/>
<path d="M740.19 222.84L752.64 274.02H727.73L740.19 222.84Z" fill="black"/>
<path d="M444.31 233.93C448.391 233.93 451.7 230.621 451.7 226.54C451.7 222.459 448.391 219.15 444.31 219.15C440.229 219.15 436.92 222.459 436.92 226.54C436.92 230.621 440.229 233.93 444.31 233.93Z" fill="black"/>
<path d="M444.31 222.79L456.77 273.97H431.86L444.31 222.79Z" fill="black"/>
</g>
</g>
<defs>
<clipPath id="clip0_1_187">
<rect width="789.5" height="394.55" fill="white"/>
</clipPath>
</defs>
</svg>
