<?xml version="1.0" encoding="UTF-8"?><svg id="b" xmlns="http://www.w3.org/2000/svg" xmlns:xlink="http://www.w3.org/1999/xlink" viewBox="0 0 1573.41 1789.61"><defs><linearGradient id="d" x1="0" y1="733.88" x2="1573.41" y2="733.88" gradientUnits="userSpaceOnUse"><stop offset="0" stop-color="#ff8340"/><stop offset="1" stop-color="#fb6d2c"/></linearGradient><linearGradient id="e" x1="314.82" y1="1696.96" x2="1260.53" y2="1696.96" xlink:href="#d"/></defs><g id="c"><path d="M316.42,5.88c257.11-52.49,357.06,258.66,405.51,450.04,10.83,42.77,5.84,154.97,67.5,155.02,58.02.04,58.96-145.73,72.21-195.72,159.45-601.86,582.41-507.98,686.98,52.03,44.54,238.54,33.9,544.75-71.89,766.9-182.99,384.28-477.12,252.64-591.36-92.32-23.76-71.74-29.48-184.03-53.51-240.94-13.71-32.47-47.68-51.23-77.48-26.66-19.33,15.94-51.57,219.82-69.25,270.44-91.94,263.22-331.38,478.22-538.04,169.2C-40.96,1032.65-43.41,503.81,109.54,206.69,145.66,136.52,235.82,22.33,316.42,5.88ZM531.82,623.36c32.81-33.34-13.49-188.82-42.49-229.28-93.12-129.89-238.84-78.08-300,50.93-88.14,185.93-90.1,739.73,214.15,701.08,200.85-25.51,334.47-410.58,58.82-382.74-54.13,5.47-139.58,33.75-86.28,95.28l158.71-5.97c22.08,111.21-131.27,281.04-234.36,188.97-46.61-41.63-81.32-232.75-83.23-296.09-2.48-82.55,38.31-408.32,174.32-333.14,86.8,47.98,44.3,160.51,69.43,202.55,12.28,20.55,53.43,26.17,70.93,8.4ZM1348.48,534.01c44.89-28.4-60.3-273.94-216.7-199.66-81.12,38.53-114.87,204.2-121.29,286.35-10.3,131.76,15.11,490.28,177.92,523.77,206.39,42.45,265.26-289.52,195.83-331.8-85.71-52.19-56.16,91.67-59.48,121.73-16.34,148.14-143.79,188.96-193.26,29.24-34.84-112.48-59.12-452.07,20.95-540.65,89.52-99.03,114.98,162.31,196.02,111.03Z" style="fill:url(#d);"/><path d="M359.07,1604.6c24.55-.89,158.5,54.42,202.45,64.92,155.76,37.21,306.04,47.04,462.42,6.47,57.15-14.83,237.24-127.79,236.59-36.23-.44,61.58-151.82,109.95-205.02,124.42-170.43,46.36-563.47,32.67-712.57-68.52-46.46-31.53-31.34-89.33,16.13-91.06Z" style="fill:url(#e);"/></g></svg>